<svg xmlns="http://www.w3.org/2000/svg" viewBox="0 0 1200 400"><defs><style>.a{fill:#f3af16;}.b{fill:#231815;}.c{fill:#fff;}.d{fill:#eb5b31;}.e{fill:none;stroke:#000;stroke-miterlimit:10;stroke-width:6px;}</style></defs><rect class="a" width="1200" height="400"/><path class="b" d="M193.71,233.58l-.24,0L187.71,247l.4.05c5.68.63,12.33,2.93,19.75,6.81l.3.16,5.74-13.31-.23-.13A53.18,53.18,0,0,0,193.71,233.58Z"/><path class="b" d="M324.8,242.58a.88.88,0,0,0,.66-.18.9.9,0,0,0,.32-.61l.35-3.92a.81.81,0,0,0-.21-.62.8.8,0,0,0-.6-.27H311.59a.82.82,0,0,1-.62-.26.86.86,0,0,1-.22-.65,1,1,0,0,1,1-.91h13.82a.88.88,0,0,0,.86-.8l.29-3.24a.84.84,0,0,0-.24-.66.82.82,0,0,0-.67-.22,19.16,19.16,0,0,1-2.09.09H267.78a23.68,23.68,0,0,1-3-.14.85.85,0,0,0-.65.19.9.9,0,0,0-.32.6l-.94,10.72a.84.84,0,0,0,.24.66.79.79,0,0,0,.57.23h.1a26.71,26.71,0,0,1,3-.15h55.94A15.18,15.18,0,0,1,324.8,242.58Z"/><path class="b" d="M312.52,126.9h21.85a1,1,0,0,1,.75.32,1,1,0,0,1,.26.78,1.27,1.27,0,0,1-1.24,1.14h-5l-.85,4.29.26.08c6.19,1.88,13.77,2.8,23.16,2.8a50.41,50.41,0,0,0,9.36-.8l.23,0,.48-3.86h-8a.48.48,0,0,1-.37-.15.54.54,0,0,1-.13-.39.65.65,0,0,1,.63-.58h8l1.11-9-.39.06a65.68,65.68,0,0,1-9.64.56c-9.1,0-16.21-.68-21.71-2.06l-.32-.09-.69,3.48H312.79a1.92,1.92,0,0,0-1.87,1.73,1.58,1.58,0,0,0,.41,1.24A1.55,1.55,0,0,0,312.52,126.9Z"/><path class="b" d="M307.67,149.87h19a1.35,1.35,0,0,1,1,.44,1.31,1.31,0,0,1,.34,1,1.63,1.63,0,0,1-1.6,1.47h-5.6a.85.85,0,0,0-.65.3.87.87,0,0,0-.22.68l.6,4.54a.82.82,0,0,0,.39.58.84.84,0,0,0,.71.07c9.33-3.35,17.72-5.05,24.94-5.05a20.1,20.1,0,0,1,5.77.64,4,4,0,0,1,2.83,4.42c-.62,7-5.42,12.22-14.27,15.4a64.62,64.62,0,0,1-20.64,3.33.87.87,0,0,0-.73.41.83.83,0,0,0-.05.82c.3.61.59,1.22.86,1.82l.29-.13-.33.19h-8a1.56,1.56,0,0,0-1.51,1.4,1.24,1.24,0,0,0,1.27,1.38H323a1.36,1.36,0,0,1,1,.43,1.32,1.32,0,0,1,.34,1,1.65,1.65,0,0,1-1,1.36.87.87,0,0,0-.54,1,18.43,18.43,0,0,1,.57,4.43.8.8,0,0,0,.28.62.81.81,0,0,0,.53.2h.13c13.26-1.93,22.92-4.59,29.53-8.12,10.35-5.57,16.09-14.1,17.07-25.36a26.33,26.33,0,0,0,.07-3.75.8.8,0,0,0-.81-.77h-5.81a.8.8,0,0,1-.62-.27.84.84,0,0,1-.22-.65,1,1,0,0,1,1-.91h5.1a.88.88,0,0,0,.68-.33.86.86,0,0,0,.16-.74,13.6,13.6,0,0,0-5.41-8.06c-3.73-2.53-9.42-3.81-16.91-3.81-8.27,0-17.62,1.44-28.59,4.4a.88.88,0,0,0-.64.95l.24,1.75.3,0-.35.1H307.92a1.56,1.56,0,0,0-1.52,1.4,1.31,1.31,0,0,0,.32,1A1.28,1.28,0,0,0,307.67,149.87Z"/><path class="b" d="M290.76,206.27a.88.88,0,0,0,.87-.78,34.38,34.38,0,0,1,1.93-7.71l.11-.31a.83.83,0,0,0-.09-.75.81.81,0,0,0-.67-.35h-6.14a.84.84,0,0,1-.63-.26.86.86,0,0,1-.21-.65,1,1,0,0,1,1-.92h7.37a.86.86,0,0,0,.79-.5c.45-.93.92-1.81,1.41-2.61a.84.84,0,0,0,0-.89.79.79,0,0,0-.8-.36,84.35,84.35,0,0,1-11.84.81c-7.57,0-12.2-1-14.16-3.19a3.8,3.8,0,0,1-1-3.06c.31-3.56,4.57-7.21,12.68-10.86,1.6,0,3.19,0,4.76,0s3.1,0,4.64,0c6.27,0,11.69.11,15.73.34a.85.85,0,0,0,.58-.23.88.88,0,0,0,.29-.6l.3-7a.76.76,0,0,0-.23-.59.8.8,0,0,0-.59-.25h-8.76a.85.85,0,0,1-.63-.27.84.84,0,0,1-.21-.65,1,1,0,0,1,1-.91h8.71a.87.87,0,0,0,.86-.84l.09-1.86a.81.81,0,0,0-.24-.61.77.77,0,0,0-.58-.24l-11.31.34-21.8.67V161c12.53-7.08,19.16-10.71,20-11.15a3.66,3.66,0,0,1,1.32-.32,2.24,2.24,0,0,0,.94-.16.87.87,0,0,0,.45-1.09c-.11-.28-.38-1-1.09-2.59a25.53,25.53,0,0,1-2.31-7.33,4,4,0,0,0-.45-1.35.85.85,0,0,0-1-.31l-1,.5a5.1,5.1,0,0,1-2.1.72c-7.88.63-13.52,1-16.77,1-6.17,0-11.56-.11-17-.36a.88.88,0,0,0-.86.77l-.14.89h-14a1.55,1.55,0,0,0-1.51,1.4,1.24,1.24,0,0,0,.32,1,1.25,1.25,0,0,0,.94.4h21.85a1.35,1.35,0,0,1,1,.44,1.38,1.38,0,0,1,.34,1,1.64,1.64,0,0,1-1.6,1.47H254a.88.88,0,0,0-.86.77l-.67,5.59a.83.83,0,0,0,.2.64.8.8,0,0,0,.6.27l4.05-.11,10.55-.27v-.31h0v.39c-6.74,4.25-11.66,7.27-15.3,9.16l-12.23.3a.87.87,0,0,0-.85.83l-.71,13.65a.8.8,0,0,0,.26.64.84.84,0,0,0,.66.21l21.14-2.58v.07c-5.17,4.25-8,8.68-8.38,13.18a12.32,12.32,0,0,0,.84,5.93l0,.06h-7.86a1.54,1.54,0,0,0-1.51,1.39,1.26,1.26,0,0,0,1.27,1.39H255a.75.75,0,0,0,.26,0h9.28a1.33,1.33,0,0,1,1.34,1.48,1.64,1.64,0,0,1-1.6,1.47h-2.57a.87.87,0,0,0-.84.66.8.8,0,0,0,.44.94c6.37,3,16.29,4.52,29.47,4.59Z"/><path class="b" d="M155.93,149.42a.87.87,0,0,0,.32.06h19.57a1.34,1.34,0,0,1,1,.43,1.39,1.39,0,0,1,.34,1,1.64,1.64,0,0,1-1.6,1.47H170a.88.88,0,0,0-.87.82.8.8,0,0,0,.77.86c3.88.18,8.58.27,14.79.27l0,0a114,114,0,0,1-5.11,12.13h-9a1.55,1.55,0,0,0-1.51,1.4,1.24,1.24,0,0,0,.32,1,1.26,1.26,0,0,0,.94.41H185a1.33,1.33,0,0,1,1.34,1.47,1.64,1.64,0,0,1-1.6,1.47h-7.87a.89.89,0,0,0-.73.39l-.5.74a.82.82,0,0,0,.28,1.22,53.74,53.74,0,0,1,9.18,6,.87.87,0,0,0,1,0c6.69-5.16,13.29-7.78,19.61-7.78a13.6,13.6,0,0,1,5.19,1c2,.89,2.86,2.19,2.71,3.86-.43,5-7.94,7.36-23,7.36-2.34,0-5.21-.06-8.55-.17a.87.87,0,0,0-.73.4.84.84,0,0,0,0,.84,20.27,20.27,0,0,1,.91,2.08l-.05.05H167.07a1.55,1.55,0,0,0-1.51,1.4,1.24,1.24,0,0,0,1,1.36h22.09a1.33,1.33,0,0,1,1,.43,1.35,1.35,0,0,1,.34,1,1.64,1.64,0,0,1-1.6,1.47h-3.75a.89.89,0,0,0-.65.29.87.87,0,0,0-.22.68,27.48,27.48,0,0,1,.19,4.23.77.77,0,0,0,.23.6.79.79,0,0,0,.58.25h0c11.17-.06,20.25-1.21,27-3.42.93-.31,1.85-.65,2.72-1a.88.88,0,0,0,.53-.94.81.81,0,0,0-.8-.68h-3.73a.81.81,0,0,1-.62-.27.8.8,0,0,1-.21-.65,1,1,0,0,1,1-.91h9.82a.87.87,0,0,0,.52-.17A20,20,0,0,0,229.23,177a14.52,14.52,0,0,0-5.58-13.33c-3.81-3-8.65-4.45-14.39-4.45a107.56,107.56,0,0,0-11.44,1.27v-.06a67.36,67.36,0,0,0,2.43-6.39c12.72-1,21.29-1.73,25.46-2.28a.88.88,0,0,0,.76-.83l.12-2.94a.83.83,0,0,0-.22-.6.82.82,0,0,0-.59-.25h-9.09a.81.81,0,0,1-.62-.27.79.79,0,0,1-.21-.64,1,1,0,0,1,1-.92h9a.88.88,0,0,0,.87-.83L227,139a.83.83,0,0,0-.26-.64.79.79,0,0,0-.66-.2c-6.93.89-14.3,1.57-21.91,2,.39-1.84.65-3,.79-3.62a3.54,3.54,0,0,1,1-1.5,4.16,4.16,0,0,0,.85-.93.85.85,0,0,0,.13-.47c0-.75-.64-1.25-1.82-1.47l-13.67-2.23a.88.88,0,0,0-.68.19.89.89,0,0,0-.33.63c0,.71-.06,1.31-.08,1.83,0,.73-.06,1.21-.08,1.45a43.7,43.7,0,0,1-1.34,6.72l-4.87,0c-5,0-9.49-.1-13.65-.3a.85.85,0,0,0-.58.23.86.86,0,0,0-.29.61l-.26,5.41H156.69a1.55,1.55,0,0,0-1.51,1.39A1.25,1.25,0,0,0,155.93,149.42Z"/><path class="b" d="M85.79,134.63a.86.86,0,0,0,.27.05h25.35a1.34,1.34,0,0,1,1,.43,1.31,1.31,0,0,1,.34,1,1.64,1.64,0,0,1-1.6,1.48h-3.54a.87.87,0,0,0-.84.64c-.36,1.32-.76,2.63-1.19,3.89a.81.81,0,0,0,.61,1.07,90.65,90.65,0,0,0,16.79,1.4v.08a62,62,0,0,0-15.33,9.52H97.41a1.56,1.56,0,0,0-1.52,1.39,1.3,1.3,0,0,0,.33,1,1.25,1.25,0,0,0,.94.4h15.31a1.36,1.36,0,0,1,1,.43,1.38,1.38,0,0,1,.34,1,1.64,1.64,0,0,1-1.6,1.47h-9.09a.9.9,0,0,0-.74.42,19.56,19.56,0,0,0-3,8.65c0,.25,0,.5,0,.78l0,.22H85.44a1.54,1.54,0,0,0-1.51,1.39,1.27,1.27,0,0,0,.32,1,1.25,1.25,0,0,0,.94.4H99.3a.76.76,0,0,0,.42.12h2.72a1.33,1.33,0,0,1,1.34,1.47,1.63,1.63,0,0,1-1.6,1.47h-1.32a.88.88,0,0,0-.69.34.86.86,0,0,0-.16.75,16.12,16.12,0,0,0,5.73,8.58.82.82,0,0,0,.51.17h6.25a1.33,1.33,0,0,1,1.35,1.48,1.64,1.64,0,0,1-1.6,1.47h-9.2a1.55,1.55,0,0,0-1.52,1.39,1.28,1.28,0,0,0,.33,1,1.25,1.25,0,0,0,.94.4h21.85l.31,0c1.05,0,2.14,0,3.25,0l22.86-.39a.86.86,0,0,0,.85-.77,38.23,38.23,0,0,1,1.27-6.3.81.81,0,0,0-.78-1.05h-7a.85.85,0,0,1-.63-.27.87.87,0,0,1-.21-.65,1,1,0,0,1,1-.91h7.95a.88.88,0,0,0,.81-.56,52.69,52.69,0,0,1,2.89-6.25.84.84,0,0,0-.06-.91.81.81,0,0,0-.85-.29,106,106,0,0,1-24.91,2.59c-5.26,0-8.63-.25-10.6-.79-4.37-1.12-6.34-3.4-6-7,.37-4.3,4.28-8.73,11.94-13.56A78.77,78.77,0,0,1,144,146.22a23.93,23.93,0,0,1,7-1.36c.46,0,1.25-.18,1.36-1.39a9.49,9.49,0,0,0-.12-1.71.8.8,0,0,0-.8-.72h-10.8a.85.85,0,0,1-.62-.27.8.8,0,0,1-.21-.65,1,1,0,0,1,1-.91h10.15a.87.87,0,0,0,.64-.29.84.84,0,0,0,.22-.67,39.34,39.34,0,0,1-.07-7.75,1.4,1.4,0,0,0-.26-1.07,1.23,1.23,0,0,0-.93-.32,4.6,4.6,0,0,0-1.31.32,3.51,3.51,0,0,1-1.21.31c-11.73.59-17.42.8-18.38.8A139.76,139.76,0,0,1,109.39,129a.92.92,0,0,0-.66.17,1,1,0,0,0-.33.6c-.07.66-.16,1.35-.32,2.15H86.47A1.54,1.54,0,0,0,85,133.32,1.22,1.22,0,0,0,85.79,134.63Z"/><path class="b" d="M114.82,226.65a.82.82,0,0,0,.11-.5,2.61,2.61,0,0,0-.61-1.32l-.07-.08a42.48,42.48,0,0,1-6-7.93,3,3,0,0,0-2-1.64h-.09a.8.8,0,0,0-.3.06c-.22.08-.66.29-1.25.57a5.49,5.49,0,0,1-1.94.65L87.58,218V218c1.09-1.59,1.83-2.71,2.19-3.34A8.6,8.6,0,0,1,91.84,213c1-.66,1.45-1.27,1.51-1.88,0-.29-.08-.83-1-1.26a.88.88,0,0,0-.23-.07,16,16,0,0,1-1.84-.38l-12.92-3a.85.85,0,0,0-.94.43c-.45.79-.94,1.63-1.54,2.6H60.34a1.55,1.55,0,0,0-1.51,1.4,1.24,1.24,0,0,0,.32,1,1.26,1.26,0,0,0,.94.41H79.64a1.34,1.34,0,0,1,1,.43,1.38,1.38,0,0,1,.34,1,1.64,1.64,0,0,1-1.6,1.47H71.68a.89.89,0,0,0-.72.38,103.19,103.19,0,0,1-7.59,9.79A68.26,68.26,0,0,1,51,236.49H32.42a1.55,1.55,0,0,0-1.52,1.39,1.27,1.27,0,0,0,.32,1,1.25,1.25,0,0,0,1,.41H54a1.33,1.33,0,0,1,1.34,1.47,1.64,1.64,0,0,1-1.6,1.48H49.29a.89.89,0,0,0-.78.48.86.86,0,0,0,.09.9l6.16,7.68a.84.84,0,0,0,1.09.16c7.32-4.64,14.65-11.35,21.82-20l16.83-1.77a87.43,87.43,0,0,1-7.82,12.11h-.07a41.81,41.81,0,0,0-8.81-7.37.86.86,0,0,0-1,.17l-8.51,9a.87.87,0,0,0-.23.64.76.76,0,0,0,.29.58A35,35,0,0,1,75.75,253c-6.87,5.52-15.71,10.31-26.3,14.23h-6A1.56,1.56,0,0,0,42,268.59a1.32,1.32,0,0,0,.33,1,1.25,1.25,0,0,0,.94.4H60.85a1.33,1.33,0,0,1,1.34,1.48,1.64,1.64,0,0,1-1.6,1.47h-3.5a.88.88,0,0,0-.8.54.82.82,0,0,0,.19.93l5.06,4.6a.82.82,0,0,0,.94.11,118.62,118.62,0,0,0,28.69-20.24,95.57,95.57,0,0,0,7-7.79.81.81,0,0,0,.12-.88.79.79,0,0,0-.73-.47H93.2a.85.85,0,0,1-.63-.27.84.84,0,0,1-.21-.65,1,1,0,0,1,1-.91h6.83a.87.87,0,0,0,.7-.36A146.84,146.84,0,0,0,112,229.91a16.66,16.66,0,0,1,1.61-1.92A7.18,7.18,0,0,0,114.82,226.65Z"/><path class="b" d="M182.25,227.55a.8.8,0,0,0-.71-.42h-5.43a.85.85,0,0,1-.63-.27.83.83,0,0,1-.21-.65,1,1,0,0,1,1-.91h7.53a.86.86,0,0,0,.62-.27c.38-.4.8-.88,1.17-1.33a2.89,2.89,0,0,0,.85-1.66.73.73,0,0,0,0-.36,5.57,5.57,0,0,0-1.65-1.9l-6.31-5.26c-1.62-1.35-2.41-1.61-2.74-1.65h-.2a4.09,4.09,0,0,0-1.54.7,4.44,4.44,0,0,1-1.8.89l-12.93,1.21a5.31,5.31,0,0,1,2-2.17c1-.66,1.44-1.21,1.49-1.72s-.46-1.21-1.58-1.71l-12.1-4.56A.88.88,0,0,0,148,206c-.76,1.57-1.61,3.19-2.57,4.85h-15.9a1.54,1.54,0,0,0-1.51,1.39,1.24,1.24,0,0,0,.32,1,1.26,1.26,0,0,0,.94.41h18.67a1.32,1.32,0,0,1,1,.43,1.35,1.35,0,0,1,.35,1,1.64,1.64,0,0,1-1.6,1.47H142.4a.86.86,0,0,0-.72.4,115.16,115.16,0,0,1-7,9.38c-2,2.5-4,4.84-6.06,7h-10.2a1.54,1.54,0,0,0-1.51,1.39,1.26,1.26,0,0,0,1.26,1.39h12.84a1.36,1.36,0,0,1,1,.43,1.38,1.38,0,0,1,.34,1,1.64,1.64,0,0,1-1.6,1.47H123a.91.91,0,0,0-.57.21,58.22,58.22,0,0,1-5.09,3.93.88.88,0,0,0-.38.62.82.82,0,0,0,.22.67l8.38,8.65a.86.86,0,0,0,1.1.08,113.18,113.18,0,0,0,22.93-23l15.29-1.45c-3.25,6.48-9.16,13.91-18.06,22.69-4.35,4.26-9,8.39-13.8,12.3H113.92a1.55,1.55,0,0,0-1.52,1.39,1.28,1.28,0,0,0,.33,1,1.26,1.26,0,0,0,.94.41h21.85a1.33,1.33,0,0,1,1.34,1.47,1.63,1.63,0,0,1-1.6,1.47H126a.88.88,0,0,0-.51.18l-.23.17a.82.82,0,0,0-.35.64.78.78,0,0,0,.26.66l9.89,8.84a.82.82,0,0,0,.54.2.85.85,0,0,0,.53-.18,193.8,193.8,0,0,0,18.24-16,.86.86,0,0,0,.2-.91.81.81,0,0,0-.76-.52h-4.59a.84.84,0,0,1-.62-.26.86.86,0,0,1-.21-.65,1,1,0,0,1,1-.92h7.79a.83.83,0,0,0,.63-.27,189.6,189.6,0,0,0,24.45-31.95A.84.84,0,0,0,182.25,227.55Z"/><path class="b" d="M247.62,230.16a.86.86,0,0,0-.62-.28h-.06a.89.89,0,0,0-.65.37A76.33,76.33,0,0,1,239.2,239a.82.82,0,0,0-.18.9.79.79,0,0,0,.75.5h4.66a.83.83,0,0,1,.83.92,1,1,0,0,1-1,.91h-8a.91.91,0,0,0-.6.24,101.84,101.84,0,0,1-14.07,11A105.22,105.22,0,0,1,191,267.7a.87.87,0,0,0-.57.49.85.85,0,0,0,0,.73c.19.37.39.74.58,1.13l0,.06H169.1a1.56,1.56,0,0,0-1.52,1.4,1.28,1.28,0,0,0,.33,1,1.26,1.26,0,0,0,.94.41h23.54a.87.87,0,0,0,.39.1h5.39a1.33,1.33,0,0,1,1,.43,1.31,1.31,0,0,1,.34,1,1.64,1.64,0,0,1-1.6,1.47h-3a.9.9,0,0,0-.71.36.87.87,0,0,0-.12.78c.71,2.06,1.18,3.48,1.48,4.39.42,1.36,1,2.21,1.69,2.4a.78.78,0,0,0,.22,0,.89.89,0,0,0,.39-.09,6.9,6.9,0,0,0,1.53-1.27,5.17,5.17,0,0,1,1.94-1.67c2.28-1.11,4.22-2,5.87-2.82l.09,0c2-.94,3.52-1.68,4.54-2.21,5.74-2.9,11.18-6,16.17-9.15a.87.87,0,0,0,.38-.95.8.8,0,0,0-.78-.6H224a.85.85,0,0,1-.63-.27.83.83,0,0,1-.21-.65,1,1,0,0,1,1-.91h8.67a.78.78,0,0,0,.49-.16,108.73,108.73,0,0,0,23.4-21.34.82.82,0,0,0,0-1.07Z"/><path class="b" d="M222.86,222.14l-.19-.17c-4.63-4.47-11-7.95-18.8-10.34l-.25-.08L201,216.47h-8.71a1.91,1.91,0,0,0-1.88,1.72,1.62,1.62,0,0,0,.41,1.25A1.59,1.59,0,0,0,192,220h12.49a1,1,0,0,1,.75.32,1,1,0,0,1,.25.79,1.26,1.26,0,0,1-1.23,1.13h-6.36l-1.6,3,.35.11c7.7,2.37,13.54,5.56,17.35,9.47l.26.27Z"/><path class="b" d="M425.47,204.57a1.25,1.25,0,0,0-1-.41H359.46a.87.87,0,0,0-.87.85c0,1,0,2-.07,2.88l-.06,0a55.36,55.36,0,0,1-9.59-4.68.83.83,0,0,0-.78-.06.91.91,0,0,0-.51.62,67.75,67.75,0,0,1-2.06,7.36h-23a1.55,1.55,0,0,0-1.51,1.39,1.24,1.24,0,0,0,1.26,1.39h25.38a1.34,1.34,0,0,1,1,.43,1.38,1.38,0,0,1,.34,1,1.64,1.64,0,0,1-1.6,1.48H344a.87.87,0,0,0-.8.54c-.88,2.11-1.86,4.26-2.94,6.42H328.89a1.55,1.55,0,0,0-1.51,1.39,1.27,1.27,0,0,0,.32,1,1.25,1.25,0,0,0,.95.41H338.8a.86.86,0,0,0,.28,0h8.77a1.33,1.33,0,0,1,1.34,1.48,1.64,1.64,0,0,1-1.6,1.47h-9.78a.88.88,0,0,0-.77.45c-1.18,2.16-2.45,4.34-3.76,6.49a.87.87,0,0,0-.08.72,69.8,69.8,0,0,1,3.33,15.9.79.79,0,0,0,.6.7.87.87,0,0,0,.9-.31c.25-.33.5-.66.75-1l-.25-.17.33.2-.57,6H327.58a1.55,1.55,0,0,0-1.52,1.39,1.31,1.31,0,0,0,.32,1,1.25,1.25,0,0,0,.95.41H338a.83.83,0,0,0,.22,0H343a1.32,1.32,0,0,1,1,.43,1.35,1.35,0,0,1,.35,1,1.63,1.63,0,0,1-1.6,1.47h-4.12a.88.88,0,0,0-.87.8l-.86,9.38H309.46A1.56,1.56,0,0,0,308,276a1.25,1.25,0,0,0,.61,1.2.8.8,0,0,0,.51.11h28.71a1.32,1.32,0,0,1,1,.43,1.35,1.35,0,0,1,.35,1,1.65,1.65,0,0,1-1.6,1.48h-.29a.88.88,0,0,0-.86.79l0,.36a.79.79,0,0,0,.23.65.82.82,0,0,0,.58.23h.07c1.75-.16,3.67-.24,5.86-.24s4.35.08,6.22.25h.08a.87.87,0,0,0,.56-.2.88.88,0,0,0,.31-.59l.82-9.36h.08A62.07,62.07,0,0,1,355,282a.82.82,0,0,0,.78.57h.15a60.06,60.06,0,0,0,16.76-5.17c6,2.61,15.08,4,26.88,4a.88.88,0,0,0,.86-.71,56.39,56.39,0,0,1,1.68-6.53.81.81,0,0,0-.1-.74.83.83,0,0,0-.66-.34h-4.62a.82.82,0,0,1-.63-.27.83.83,0,0,1-.21-.65,1,1,0,0,1,1-.91h5.67a.87.87,0,0,0,.81-.55c.68-1.69,1.44-3.38,2.27-5a.82.82,0,0,0-.07-.88.8.8,0,0,0-.83-.3,59.36,59.36,0,0,1-12.05,1.56,50.29,50.29,0,0,1-8.94-.69l-.06.31,0-.36c.32-.77.62-1.57.91-2.44a.84.84,0,0,0-.11-.74.8.8,0,0,0-.67-.34H379a.85.85,0,0,1-.63-.27.87.87,0,0,1-.21-.65,1,1,0,0,1,1-.91h5.58a.87.87,0,0,0,.84-.67c.19-.76.38-1.56.59-2.4h17.52a.9.9,0,0,0,.62-.26.86.86,0,0,0,.25-.62c0-1.45.05-3,.21-4.73l2-23.38a.82.82,0,0,0-.2-.62.81.81,0,0,0-.6-.26h-2.69a.84.84,0,0,1-.84-.92,1,1,0,0,1,1-.91h2.81a.87.87,0,0,0,.86-.77c.11-.9.24-1.72.39-2.53a.82.82,0,0,0-.8-1l-17.06,0,.25-2.44h19a.86.86,0,0,0,.61-.25.85.85,0,0,0,.26-.61c0-1.9.12-4,.32-6.35a.83.83,0,0,0-.21-.62.79.79,0,0,0-.6-.26h-7.41a.85.85,0,0,1-.62-.27.83.83,0,0,1-.21-.65,1,1,0,0,1,1-.91h7.57a.88.88,0,0,0,.87-.77,5.54,5.54,0,0,1,.14-.83h13.65a1.55,1.55,0,0,0,1.51-1.39A1.27,1.27,0,0,0,425.47,204.57Zm-33,38.68-.28,2.78-4.74,0,.24-2.74,0,0Zm-3.75-11.34,4.74,0-.28,2.69-4.73,0,.23-2.66Zm-21.84,25h5.33l0,0a14.11,14.11,0,0,1-1.66,3.71,13.92,13.92,0,0,1-3.75-3.74Zm-8.26-35.71a.88.88,0,0,0-.25.61c0,.71,0,1.64,0,2.56a.81.81,0,0,0,.22.59.82.82,0,0,0,.59.25h13.56a.83.83,0,0,1,.84.91,1,1,0,0,1-1,.92H359a.88.88,0,0,0-.87.79l-2.05,23.47c-.14,1.57-.39,3.16-.64,4.66a.79.79,0,0,0,.18.66.81.81,0,0,0,.62.29h2.33l0,.07a37.11,37.11,0,0,1-5.16,3.89.9.9,0,0,0-.4.55.88.88,0,0,0,.12.65,37.41,37.41,0,0,0,3.64,4.53l0,.07a41.86,41.86,0,0,1-5.24.3l3.67-42.06c.36-.75.71-1.51,1.08-2.29l.1-.23c.6-1.27,1.21-2.57,1.85-3.9l0,0,17.94,0c0,.43,0,.85-.06,1.29a7.7,7.7,0,0,1-.11,1.14H359.29A.91.91,0,0,0,358.67,221.2Zm12.07,10.74,0,0,4.34,0-.28,2.69-4.33,0Zm-1,11.31,0,0,4.34,0-.28,2.78-4.34,0Z"/><path class="b" d="M385,199.12a.58.58,0,0,1-.58-.7c.13-.58.27-1.29.42-2.19l2.49-14.55c.15-.89.24-1.53.29-2a.62.62,0,0,1,.61-.54h1.18a.6.6,0,0,1,.46.22.58.58,0,0,1,.11.48c-.1.47-.2,1-.33,1.74l-2.48,14.56c-.18,1-.3,1.84-.37,2.47a.6.6,0,0,1-.6.53ZM367.63,199a.59.59,0,0,1-.38-.14.55.55,0,0,1-.21-.45l0-1.26a.6.6,0,0,1,.57-.58c.6,0,1.4-.13,2.58-.27a.4.4,0,0,0,.35-.33l1-5.72a.37.37,0,0,0-.09-.32.4.4,0,0,0-.3-.13h-1l-1,0h0a.6.6,0,0,1-.44-.19.56.56,0,0,1-.14-.48l.18-1a.61.61,0,0,1,.6-.5h0c.39,0,.82,0,1.31,0h1a.42.42,0,0,0,.4-.33l.17-1a.38.38,0,0,0-.09-.31.39.39,0,0,0-.3-.14h-.16a.57.57,0,0,1-.58-.55.39.39,0,0,0-.2-.32.35.35,0,0,0-.2-.05.46.46,0,0,0-.25.08.68.68,0,0,1-.41.14l-.18,0a.56.56,0,0,1-.4-.39,8.05,8.05,0,0,0-.32-1.08.59.59,0,0,1,.25-.69,12.48,12.48,0,0,0,2.6-2.16,8.85,8.85,0,0,0,1.18-1.48.61.61,0,0,1,.52-.29h2.16a.59.59,0,0,1,.54.36,7,7,0,0,0,2.2,2.73.57.57,0,0,1,.09.81c-.42.55-.71.94-1,1.37a.62.62,0,0,1-.51.28l-.15,0-.1,0-.14,0-.15,0-.06.12-.05.13-.08.49a.62.62,0,0,1-.6.5H375a.41.41,0,0,0-.4.33l-.17,1a.45.45,0,0,0,.09.32.42.42,0,0,0,.3.13h1.71a.57.57,0,0,1,.44.2.6.6,0,0,1,.14.47l-.17,1a.61.61,0,0,1-.6.49h-2a.4.4,0,0,0-.4.33l-.9,5.23a.4.4,0,0,0,.12.34.39.39,0,0,0,.27.11h.07l.85-.16h.13a.55.55,0,0,1,.4.16.57.57,0,0,1,.17.51l0,.23a.43.43,0,0,0,0,.25.54.54,0,0,1,0,.51.63.63,0,0,1-.41.34c-1.88.45-2,.47-3.21.72-.25,0-.77.12-2.25.38l-1.47.26Zm6.8-17.74a.44.44,0,0,0-.36.16,13.86,13.86,0,0,1-1.68,1.94.37.37,0,0,0-.09.42.38.38,0,0,0,.36.24h3l.18,0,.12,0,0-.1a.39.39,0,0,0,0-.44,8.58,8.58,0,0,1-1.19-1.91.38.38,0,0,0-.32-.22Zm2.7,17.53a.62.62,0,0,1-.41-.16,9.86,9.86,0,0,0-1-.86.6.6,0,0,1-.23-.44.59.59,0,0,1,.2-.46l.07-.07c1.43-2.11,2.11-4.21,2.93-9l.8-4.66a.4.4,0,0,0,0-.19.59.59,0,0,1,.09-.56.3.3,0,0,0,.08-.18l.15-.83c.11-.67.18-1.17.23-1.61a.61.61,0,0,1,.6-.54h1.14a.62.62,0,0,1,.46.21.59.59,0,0,1,.12.48c-.07.35-.15.75-.23,1.23L381,187.89c-.95,5.53-1.56,7.84-3.3,10.59a.66.66,0,0,1-.44.28Zm4.62-2.3a.62.62,0,0,1-.46-.21.58.58,0,0,1-.11-.49c.11-.47.2-1,.31-1.58l2.09-12.26c.09-.53.15-.95.2-1.31a.62.62,0,0,1,.61-.52h.82a.59.59,0,0,1,.45.21.54.54,0,0,1,.13.47c-.06.31-.12.68-.2,1.15l-2.17,12.69c-.09.57-.17,1-.22,1.34a.6.6,0,0,1-.6.51ZM368.66,195a.62.62,0,0,1-.34-.11.55.55,0,0,1-.24-.46,18.6,18.6,0,0,0-.17-2.24.6.6,0,0,1,.43-.64l.55-.16.18,0a.62.62,0,0,1,.32.09.58.58,0,0,1,.26.42c.09.82.14,1.52.16,2.34a.58.58,0,0,1-.41.57l-.54.18A.65.65,0,0,1,368.66,195Z"/><path class="b" d="M400.48,199.21A.61.61,0,0,1,400,199a.59.59,0,0,1-.12-.48c.07-.31.14-.64.2-1.05l1-6.08A.36.36,0,0,0,401,191a.37.37,0,0,0-.18-.08.58.58,0,0,1-.47-.5,7.55,7.55,0,0,0-.25-1.22.62.62,0,0,1,.39-.71,18.84,18.84,0,0,0,3.78-1.68.35.35,0,0,0,.2-.27.38.38,0,0,0-.08-.31,8.66,8.66,0,0,1-1-1.48.38.38,0,0,0-.26-.18H403a.39.39,0,0,0-.23.07l-.42.27a.56.56,0,0,1-.33.1l-.16,0a.61.61,0,0,1-.38-.32,4.9,4.9,0,0,0-.23-.46.39.39,0,0,0-.35-.21.43.43,0,0,0-.4.33l0,.23c-.09.53-.16.94-.21,1.29a.6.6,0,0,1-.6.51h-1.11a.4.4,0,0,0-.4.33l-.37,2.18a.4.4,0,0,0,.08.32.43.43,0,0,0,.3.13h.42a.57.57,0,0,1,.44.2.55.55,0,0,1,.14.47l-.18,1a.6.6,0,0,1-.59.49l-.72,0a.4.4,0,0,0-.39.33l-.42,2.44a.38.38,0,0,0,.39.44h.09c.29-.06.56-.12.87-.21l.16,0a.6.6,0,0,1,.4.15.59.59,0,0,1,.18.52l-.18,1a.59.59,0,0,1-.43.47c-2.25.63-4.61,1.19-7.67,1.79l-.12,0a.61.61,0,0,1-.36-.13.53.53,0,0,1-.22-.43l-.05-1.34a.61.61,0,0,1,.56-.62h.18a.43.43,0,0,0,.37-.33l.9-5.3c.1-.57.16-1,.2-1.34a.6.6,0,0,1,.6-.53h.69a.57.57,0,0,1,.45.21.55.55,0,0,1,.12.48c-.05.25-.11.55-.17.93l-.86,5a.38.38,0,0,0,.11.33.41.41,0,0,0,.28.11,5.83,5.83,0,0,0,.67-.11l.15,0a.41.41,0,0,0,.32-.32l1.4-8.21a.36.36,0,0,0-.09-.31.4.4,0,0,0-.3-.13H393.4a.59.59,0,0,1-.45-.2.63.63,0,0,1-.13-.49c.07-.32.14-.67.21-1.11l.55-3.24c.09-.54.16-1,.21-1.41a.62.62,0,0,1,.61-.52h0c.41,0,.82,0,1.4,0h4.86a.57.57,0,0,1,.44.2.53.53,0,0,1,.13.48c-.06.32-.13.67-.2,1.11l-.19,1.08a.37.37,0,0,0,.17.39.43.43,0,0,0,.44,0,13.65,13.65,0,0,0,4-3.77.6.6,0,0,1,.51-.28h.1l1.44.24a.57.57,0,0,1,.44.78.38.38,0,0,0,0,.33.39.39,0,0,0,.35.2h2c.61,0,1,0,1.33,0h.06a.6.6,0,0,1,.5.27l.57.9a.59.59,0,0,1,0,.66l-.61.8a26.83,26.83,0,0,1-3.1,3.37.37.37,0,0,0-.12.33.39.39,0,0,0,.19.29,14.92,14.92,0,0,0,2.73,1.2.58.58,0,0,1,.36.34.56.56,0,0,1,0,.49,15.41,15.41,0,0,0-.77,1.58.61.61,0,0,1-.54.37.41.41,0,0,0-.19.05l-.07.05-.18.11a.53.53,0,0,1,0,.28l-1,5.72c-.12.72-.2,1.22-.25,1.69a.62.62,0,0,1-.61.53h-1.48a.59.59,0,0,1-.59-.56.35.35,0,0,0-.09-.23.39.39,0,0,0-.3-.14h-3.28a.41.41,0,0,0-.4.34l0,.12a.6.6,0,0,1-.6.49Zm3.28-6.1a.42.42,0,0,0-.41.33l-.35,2.09a.38.38,0,0,0,.08.31.41.41,0,0,0,.3.14h3.28a.4.4,0,0,0,.4-.33l.36-2.1a.39.39,0,0,0-.09-.31.37.37,0,0,0-.3-.13Zm2.61-4.81a.4.4,0,0,0-.21.07,22.2,22.2,0,0,1-3.18,1.7.39.39,0,0,0,.16.75h6.06a.43.43,0,0,0,.27-.1l.17-.1a.63.63,0,0,1,0-.19.39.39,0,0,0-.21-.35,17.74,17.74,0,0,1-2.79-1.7A.41.41,0,0,0,406.37,188.3Zm-.57-6a.4.4,0,0,0-.29.12l-.33.32a.38.38,0,0,0-.06.46,7.09,7.09,0,0,0,1.4,1.74.45.45,0,0,0,.27.1.44.44,0,0,0,.27-.09,11.43,11.43,0,0,0,1.95-2,.37.37,0,0,0,.05-.41.39.39,0,0,0-.35-.22Zm-9.47-.76a.41.41,0,0,0-.4.33l-.33,1.94a.39.39,0,0,0,.09.31.4.4,0,0,0,.3.13h1.92a.4.4,0,0,0,.39-.33l.34-1.94a.38.38,0,0,0-.39-.44Z"/><path class="b" d="M160.17,136.48a99.5,99.5,0,0,0-6.52-8.44l4.13-3.39c1.24,1.42,3.42,4.18,6.54,8.2Zm6.05-5a91.19,91.19,0,0,0-6.6-8.36l4.13-3.39c1.24,1.42,3.42,4.18,6.54,8.2Z"/><path class="b" d="M160.17,136.85h-.06a.37.37,0,0,1-.26-.16,92.76,92.76,0,0,0-6.49-8.4.39.39,0,0,1-.08-.27.38.38,0,0,1,.13-.25l4.13-3.39a.36.36,0,0,1,.51,0c1.3,1.48,3.56,4.35,6.56,8.21a.38.38,0,0,1,0,.51l-4.16,3.63A.44.44,0,0,1,160.17,136.85Zm-6-8.76c3,3.64,4.87,6,6.07,7.83l3.58-3.12c-2.72-3.49-4.81-6.14-6.09-7.64Zm12.05,3.79h-.05a.41.41,0,0,1-.26-.17,93.38,93.38,0,0,0-6.57-8.32.33.33,0,0,1-.09-.27.38.38,0,0,1,.13-.25l4.13-3.39a.36.36,0,0,1,.51,0c1.29,1.47,3.56,4.35,6.56,8.22a.36.36,0,0,1-.05.5l-4.06,3.55A.38.38,0,0,1,166.22,131.88Zm-6.08-8.68A96.17,96.17,0,0,1,166.3,131l3.49-3c-2.72-3.49-4.81-6.15-6.09-7.63Z"/><path class="c" d="M63.71,34.86l-6.25,7.63A16.57,16.57,0,0,0,43,39.36a20.61,20.61,0,0,0-11.75,7.22A17.87,17.87,0,0,0,26.8,58.77a12.41,12.41,0,0,0,5.34,10.38q5.11,3.6,12.42,2a18.58,18.58,0,0,0,7.94-3.72,18.09,18.09,0,0,0,5.06-7.24L43.63,63.27l-.26-8.36,24.2-5.37.12,2a25.74,25.74,0,0,1-2.9,12.37,29.92,29.92,0,0,1-8.21,10.28,29.6,29.6,0,0,1-12.1,5.6A25.91,25.91,0,0,1,31,79.53a18,18,0,0,1-9.56-7,21.31,21.31,0,0,1-3.82-11.87,27.58,27.58,0,0,1,5.81-17.56A31.61,31.61,0,0,1,42.68,30.66a29.09,29.09,0,0,1,11.81-.35,21.11,21.11,0,0,1,9.22,4.55"/><path class="c" d="M37.76,81.19a23,23,0,0,1-6.94-1A18.76,18.76,0,0,1,20.9,73,22,22,0,0,1,17,60.73a28.36,28.36,0,0,1,5.93-18A32.45,32.45,0,0,1,42.53,30a29.86,29.86,0,0,1,12.08-.34,21.75,21.75,0,0,1,9.53,4.68.71.71,0,0,1,.25.46.69.69,0,0,1-.15.5L58,42.92A.69.69,0,0,1,57,43a16,16,0,0,0-13.9-3,20.07,20.07,0,0,0-11.37,7,17.28,17.28,0,0,0-4.29,11.74,11.69,11.69,0,0,0,5.05,9.85c3.23,2.27,7.23,2.91,11.88,1.87a17.78,17.78,0,0,0,7.66-3.57,16.85,16.85,0,0,0,4.33-5.77l-12.62,2.8a.66.66,0,0,1-.56-.12.68.68,0,0,1-.26-.52l-.27-8.36a.69.69,0,0,1,.53-.69l24.2-5.36a.68.68,0,0,1,.82.61l.13,2a26.49,26.49,0,0,1-3,12.71A30.6,30.6,0,0,1,57,74.67,30.34,30.34,0,0,1,44.63,80.4,31.79,31.79,0,0,1,37.76,81.19ZM49.61,30.54a31.18,31.18,0,0,0-6.79.78A31.1,31.1,0,0,0,24,43.55a27.05,27.05,0,0,0-5.67,17.14A20.7,20.7,0,0,0,22,72.19a17.39,17.39,0,0,0,9.22,6.7,25.3,25.3,0,0,0,13.1.18,28.84,28.84,0,0,0,11.83-5.46,29.42,29.42,0,0,0,8-10,25,25,0,0,0,2.83-12l-.07-1.15L44.07,55.45l.21,7,13.13-2.91a.67.67,0,0,1,.67.22.71.71,0,0,1,.11.7,18.8,18.8,0,0,1-5.26,7.5A19.06,19.06,0,0,1,44.7,71.8c-5,1.12-9.39.41-13-2.09A13.13,13.13,0,0,1,26.12,58.8a18.63,18.63,0,0,1,4.6-12.65A21.38,21.38,0,0,1,42.85,38.7a17.26,17.26,0,0,1,14.5,2.86L62.75,35a20,20,0,0,0-8.39-4A25.51,25.51,0,0,0,49.61,30.54Z"/><polygon class="c" points="72.12 31.92 94.82 26.88 95.06 34.41 80.22 37.71 80.45 45.02 95.28 41.73 95.52 49.12 80.68 52.42 81.01 63.06 95.85 59.77 96.09 67.33 73.39 72.36 72.12 31.92"/><path class="c" d="M73.39,73A.71.71,0,0,1,73,72.9a.67.67,0,0,1-.26-.51L71.44,31.94a.69.69,0,0,1,.54-.69l22.69-5a.68.68,0,0,1,.57.12.71.71,0,0,1,.26.52l.23,7.53a.67.67,0,0,1-.53.68L80.91,38.25l.19,5.93,14-3.11a.67.67,0,0,1,.82.64l.23,7.39a.68.68,0,0,1-.53.69L81.37,53l.29,9.26,14-3.12a.72.72,0,0,1,.57.13.67.67,0,0,1,.26.51l.23,7.57a.68.68,0,0,1-.53.68L73.54,73Zm-.57-40.58L74,71.53l21.35-4.74L95.2,60.6l-14,3.12a.66.66,0,0,1-.56-.13.68.68,0,0,1-.27-.51L80,52.44a.68.68,0,0,1,.53-.69l14.29-3.17-.19-6-14,3.11a.64.64,0,0,1-.56-.13.67.67,0,0,1-.26-.51l-.23-7.31a.68.68,0,0,1,.53-.69l14.29-3.17-.19-6.15Z"/><polygon class="c" points="100.5 31.3 120.16 26.94 120.36 33.43 113.88 34.87 114.76 62.98 107.89 64.5 107.01 36.39 100.7 37.79 100.5 31.3"/><path class="c" d="M107.89,65.18a.63.63,0,0,1-.41-.15.64.64,0,0,1-.26-.51l-.86-27.29-5.51,1.22a.65.65,0,0,1-.56-.12.72.72,0,0,1-.27-.52l-.2-6.49a.67.67,0,0,1,.53-.68L120,26.28a.67.67,0,0,1,.82.64l.21,6.49a.69.69,0,0,1-.53.68l-5.94,1.32L115.44,63a.69.69,0,0,1-.53.69L108,65.16ZM107,35.71a.67.67,0,0,1,.68.66l.85,27.29,5.53-1.22-.87-27.55a.67.67,0,0,1,.53-.68l5.94-1.32-.16-5.11-18.32,4.06.16,5.11,5.52-1.22Z"/><path class="c" d="M147.17,24.44a13.56,13.56,0,0,1,11.48,2.12,12.51,12.51,0,0,1,5.1,10.27,18.16,18.16,0,0,1-4.33,12.23,19.58,19.58,0,0,1-11.22,7.1q-7,1.56-11.77-2.12a12.63,12.63,0,0,1-5-10.15,17.54,17.54,0,0,1,1.9-8.45,20.8,20.8,0,0,1,5.75-7.07,19.44,19.44,0,0,1,8.06-3.93m.11,5.64a12.44,12.44,0,0,0-7.16,4.52,11.92,11.92,0,0,0-2.7,8.07c.1,3.34,1.42,5.71,3.94,7.11a9.21,9.21,0,0,0,6.67.82,12.28,12.28,0,0,0,7.07-4.55,11.88,11.88,0,0,0,2.73-7.95,8.17,8.17,0,0,0-3.21-6.64,8.54,8.54,0,0,0-7.34-1.38"/><path class="c" d="M144.26,57.3A13.1,13.1,0,0,1,136,54.57a13.31,13.31,0,0,1-5.24-10.66,18.26,18.26,0,0,1,2-8.77,21.37,21.37,0,0,1,5.93-7.3A20.17,20.17,0,0,1,147,23.78h0a14.23,14.23,0,0,1,12,2.24,13.17,13.17,0,0,1,5.37,10.79,18.86,18.86,0,0,1-4.48,12.68,20.27,20.27,0,0,1-11.59,7.33A18.65,18.65,0,0,1,144.26,57.3Zm6.55-32.6a16.07,16.07,0,0,0-3.5.4h0a19.07,19.07,0,0,0-7.78,3.79A20.34,20.34,0,0,0,134,35.74a17.08,17.08,0,0,0-1.84,8.13,11.89,11.89,0,0,0,4.72,9.63c3,2.31,6.77,3,11.21,2a19,19,0,0,0,10.83-6.86,17.59,17.59,0,0,0,4.18-11.79c-.14-4.27-1.71-7.45-4.82-9.74A12.26,12.26,0,0,0,150.81,24.7Zm-3.64-.26Zm-1.54,27.11a9.37,9.37,0,0,1-4.6-1.18c-2.73-1.51-4.18-4.1-4.29-7.68a12.68,12.68,0,0,1,2.85-8.51,13.11,13.11,0,0,1,7.54-4.76h0a9.19,9.19,0,0,1,7.9,1.5,8.87,8.87,0,0,1,3.48,7.16,12.54,12.54,0,0,1-2.88,8.39,13,13,0,0,1-7.45,4.79A12.09,12.09,0,0,1,145.63,51.55Zm1.8-20.81A11.73,11.73,0,0,0,140.65,35a11.32,11.32,0,0,0-2.56,7.62c.1,3.11,1.28,5.25,3.6,6.54a8.6,8.6,0,0,0,6.19.74,11.59,11.59,0,0,0,6.69-4.3,11.31,11.31,0,0,0,2.59-7.51A7.48,7.48,0,0,0,154.21,32a7.81,7.81,0,0,0-6.78-1.26Z"/><polygon class="c" points="164.68 24.21 169.87 23.06 177.13 39.92 183.33 20.07 188.52 18.92 179.76 46.87 174.89 47.95 164.68 24.21"/><path class="c" d="M174.89,48.63a.68.68,0,0,1-.62-.41L164.05,24.48a.73.73,0,0,1,0-.58.68.68,0,0,1,.46-.35l5.2-1.15a.67.67,0,0,1,.77.39L177,38l5.65-18.1a.7.7,0,0,1,.5-.46l5.19-1.15a.68.68,0,0,1,.65.2.69.69,0,0,1,.15.66l-8.76,28a.67.67,0,0,1-.5.46L175,48.61Zm-9.27-23.94,9.67,22.48,3.94-.88,8.29-26.45-3.66.81-6.08,19.48a.68.68,0,0,1-.62.47.69.69,0,0,1-.65-.41l-7-16.35Z"/><polygon class="c" points="191.5 22.37 203.7 19.66 203.82 23.71 195.85 25.48 195.97 29.41 203.95 27.64 204.07 31.62 196.09 33.39 196.27 39.11 204.25 37.34 204.38 41.4 192.18 44.11 191.5 22.37"/><path class="c" d="M192.18,44.79a.66.66,0,0,1-.42-.15.67.67,0,0,1-.26-.51l-.68-21.74a.67.67,0,0,1,.53-.68L203.55,19a.66.66,0,0,1,.56.13.64.64,0,0,1,.26.51l.13,4.05a.67.67,0,0,1-.53.68L196.54,26l.08,2.55L203.8,27a.66.66,0,0,1,.56.13.64.64,0,0,1,.26.51l.13,4a.68.68,0,0,1-.53.68l-7.43,1.65.13,4.34,7.18-1.59a.68.68,0,0,1,.57.12.69.69,0,0,1,.26.52l.13,4.06a.68.68,0,0,1-.54.68l-12.19,2.71Zm0-21.88.64,20.36,10.85-2.41-.08-2.69-7.18,1.6a.66.66,0,0,1-.56-.13.64.64,0,0,1-.26-.51l-.18-5.72a.67.67,0,0,1,.53-.68l7.43-1.65-.08-2.6-7.18,1.59a.68.68,0,0,1-.57-.12.71.71,0,0,1-.26-.52l-.12-3.93a.68.68,0,0,1,.53-.68l7.43-1.65L203,20.5Z"/><path class="c" d="M208.87,21.5l3.84-.85a13,13,0,0,1,4.51-.45,3.54,3.54,0,0,1,2.2,1.34,4.67,4.67,0,0,1,.91,2.83,5.8,5.8,0,0,1-.8,3.25,7.13,7.13,0,0,1-2.65,2.46l4.77,7.24-4,.87-4.52-6.89-.33.07.24,7.85-3.62.8Zm3.85,6.44,1.13-.25a5.4,5.4,0,0,0,2.37-1,2,2,0,0,0,.61-1.61,1.57,1.57,0,0,0-.36-1,1.39,1.39,0,0,0-.89-.45,6.86,6.86,0,0,0-2,.24l-1,.23Z"/><path class="c" d="M209.45,40.7a.67.67,0,0,1-.68-.66l-.58-18.52a.68.68,0,0,1,.53-.68l3.84-.85a13.21,13.21,0,0,1,4.78-.45A4.16,4.16,0,0,1,220,21.13a5.35,5.35,0,0,1,1,3.22,6.51,6.51,0,0,1-.9,3.62,7.43,7.43,0,0,1-2.29,2.32l4.39,6.65a.67.67,0,0,1,.06.63.66.66,0,0,1-.48.41l-4,.88a.68.68,0,0,1-.71-.29l-3.56-5.42.19,6.05a.68.68,0,0,1-.53.68l-3.63.8ZM209.56,22l.54,17.14,2.28-.5-.23-7.28a.68.68,0,0,1,.53-.69l.33-.07a.66.66,0,0,1,.71.29l4.27,6.5,2.55-.56-4.23-6.41a.67.67,0,0,1-.09-.53.69.69,0,0,1,.32-.44A6.45,6.45,0,0,0,219,27.27a5.11,5.11,0,0,0,.71-2.88,4.11,4.11,0,0,0-.77-2.43,2.87,2.87,0,0,0-1.8-1.09,12,12,0,0,0-4.24.44Zm3.16,6.57a.65.65,0,0,1-.42-.14A.67.67,0,0,1,212,28l-.12-3.8a.69.69,0,0,1,.53-.69l1-.22a7.38,7.38,0,0,1,2.24-.25,2,2,0,0,1,1.29.67,2.13,2.13,0,0,1,.53,1.41,2.63,2.63,0,0,1-.82,2.13A5.92,5.92,0,0,1,214,28.35l-1.14.25Zm.57-3.94.08,2.43.34-.08a4.58,4.58,0,0,0,2-.8,1.35,1.35,0,0,0,.39-1.09.86.86,0,0,0-.19-.56.7.7,0,0,0-.47-.23,5.8,5.8,0,0,0-1.75.24Z"/><path class="b" d="M87.1,88.79l-2.54.63-.12-.08V87.43l.11-.13,2-.42V85.65l-.34.08-2.53.62-.12-.08V84.33l.11-.13,2.55-.52.34-.08V82.43l-2,.49-.12-.08V80.93l.11-.14,2.55-.52,3.51-.79v-.81c-1.4.41-2.85.81-4.62,1.26-.23,0-.35,0-.41-.07l-.89-1.6a80.83,80.83,0,0,0,11.5-3.48h.18a9.77,9.77,0,0,1,1.76,1.28l-.06.19c-1.93.67-3.47,1.18-4.87,1.64v1l3.69-.83,2.55-.63.1.07v1.95l-.11.11-2,.42v1.17l.29-.06,2.55-.63.1.06v2l-.11.12-2.55.52-.28.06v1.23l2-.49.1.06V86l-.11.11-2.55.52-2.41.54a13.55,13.55,0,0,0,6.2,1.41L99,91a.34.34,0,0,1-.25.2.49.49,0,0,1-.21,0,11.73,11.73,0,0,1-5.43-2.29l.11,3.77-2.79.63.17-3.63a25.6,25.6,0,0,1-5.49,4.63.93.93,0,0,1-.21.1c-.09,0-.14,0-.21-.09l-1.47-1.6a24.13,24.13,0,0,0,6-4.43ZM89,85.12v1.25l1.73-.4V84.73Zm0-3.24v1.19l1.74-.39V81.49Zm4.19,2.29v1.25L95.06,85V83.74Zm0-3.24v1.19l1.92-.43V80.5Z"/><path class="b" d="M105.88,73.4l2.39-.38.12.12c-.11.85-.19,1.28-.3,1.83s-.27,1-.47,1.69a3.91,3.91,0,0,1,2.49-2,2.31,2.31,0,0,1,2.56.85c.75.9,1,2.32,1,4.32,0,3.72-1.4,6.58-5.59,9a1.32,1.32,0,0,1-.33.14.39.39,0,0,1-.34-.08l-1.81-1.41c4.17-2,5.16-3.93,5.18-7.19a7.43,7.43,0,0,0-.31-2.66.79.79,0,0,0-1.06-.48,3.77,3.77,0,0,0-1.88,2.24,5.87,5.87,0,0,0-.38,2.28,5.47,5.47,0,0,0,.44,2.13l-.09.2-2.24,1-.17,0a6.33,6.33,0,0,1-.69-3,23,23,0,0,1,.71-4.58,32.46,32.46,0,0,0,.61-3.91Z"/><path class="b" d="M130.92,71.59a21.94,21.94,0,0,0,.27,3.26,19.74,19.74,0,0,0,.68-2.9l.18-.09,1.67.27.06.13a22,22,0,0,1-1.74,5c.31.67.51.91.61.89s.32-.47.52-2.2l1.17.67c.2.11.25.18.23.38-.21,2.33-1,3.35-2.08,3.59a1.87,1.87,0,0,1-1.93-1,23.13,23.13,0,0,1-1.86,2.23c1.84-.39,3.72-.87,5.9-1.51L133.53,83c-.07.18-.12.21-.31.26-1.47.34-3.37.77-4.75,1.07a21.26,21.26,0,0,1-5,.59A4.86,4.86,0,0,1,120,83.46a11.46,11.46,0,0,1-.8,2.79c-.07.08-.12.13-.18.14s-.08,0-.14,0l-1.51-1.15a21.08,21.08,0,0,0,1-6.59l.14-.15,1.72,0,.16.09c0,.74-.07,1.36-.13,2a4.19,4.19,0,0,0,.48.63l0-4-.91.2-2,.51-.13-.08,0-2,.1-.13,2.06-.41.6-.14V73.7h0l-2,.52-.12-.08v-2l.11-.13,2.05-.41h0V69.57l.13-.15,2.14-.49.11.12,0,2,1.76-.43.1.07,0,2-.1.11-1.75.36,0,1.44.34-.07,1.75-.46.11.07v2l-.11.11-1.76.35-.12,0v1.43l1.6-.42.1.07v1.86c.23-.16.46-.36.69-.54l0-5.71,0-2.45.14-.14,2.75-.57.38-.09,0-2.43.13-.15,2-.45.11.1,0,2.44.85-.19.57-.15a5.29,5.29,0,0,0-1.38-.86v-.14l1.13-1.19.19-.08a4.8,4.8,0,0,1,1.61.82l0,.19-1,1.14,1.26-.32.1.07v1.91l-.13.15-2.32.47Zm-4.19,9.61a23.37,23.37,0,0,0,2.92-3.5,22.32,22.32,0,0,1-.93-5.61l-1.06.23,0,4.85c.34-.31.68-.6,1-.91l.43,1.56c0,.22,0,.29-.18.47a43.08,43.08,0,0,1-3.65,3.5l-.16,0-1.3-1.42.06-.17.53-.39L123,80.1l0,2.3a5.28,5.28,0,0,0,1.16.1,20.25,20.25,0,0,0,3.81-.51Z"/><path class="b" d="M138.55,73.77l-.44-2.27.1-.17c2.41-.86,4.17-1.58,7-2.84a8.37,8.37,0,0,1,1-.44,1.38,1.38,0,0,1,1.77,1.36,1.74,1.74,0,0,1-.48,1.17c-.91,1.07-1.95,2.22-3,3.56.85-.35,2,0,2.16.76a9.8,9.8,0,0,1,.21,1.41c0,.81.11.87,1.48.56a22.66,22.66,0,0,0,2.39-.68l.16,0,.15,2.41-.1.19c-.89.25-1.84.5-3,.76-3.08.69-3.48,0-3.58-1.25-.05-.67-.08-1.31-.19-2-.07-.35-.23-.48-.64-.38s-.64.32-1.23,1.12c-1,1.32-1.91,2.71-3.07,4.59l-.2.1-2.13-1v-.18c2.65-3.63,4.77-6.38,7.09-9.24-1.58.84-3.33,1.71-5.27,2.56Zm2-6.31.61-2.32.15-.12a23.4,23.4,0,0,0,5.41-.46l.11.1-.46,2.47-.16.13a26.48,26.48,0,0,1-5.57.32Z"/><path class="b" d="M166.4,65.33A24.91,24.91,0,0,1,162,67.11c0,1.21.1,2.31.2,3.38a17.28,17.28,0,0,1,5.45,1.91l0,.19L166.08,75l-.2.06a11.21,11.21,0,0,0-3.64-1.86c-.23,1.71-1.51,3.36-4.14,4-2.44.55-4.15-.05-4.13-2.26,0-1.88,2-3.52,4.38-4.06a9.42,9.42,0,0,1,1.2-.22c-.19-2.67-.31-5.09-.32-8.74l.14-.16,2.46-.55.14.09c0,1.19,0,2.29,0,3.31a21.68,21.68,0,0,0,3.88-1.66L166,63l.46,2.18ZM158,73.16c-.94.21-1.51.7-1.51,1.15s.57.72,1.53.5A1.7,1.7,0,0,0,159.44,73a4.09,4.09,0,0,0-1.48.12"/><path class="b" d="M172.08,66.42l-.66-2.2.09-.19c1.23-.56,2.56-1.29,3.66-1.84a11.43,11.43,0,0,1,2.41-1c2.27-.51,3.72.83,3.7,4.22,0,4.34-2.31,6.72-6,8.51-.16,0-.21,0-.3-.07l-1.67-1.68c3.55-1.55,5.08-3.3,5.1-5.71,0-2-.35-2.67-1.09-2.51a8.71,8.71,0,0,0-1.81.86c-.94.5-2.08,1.12-3.23,1.7Zm1.73-6.61.67-2.4.16-.09A23.2,23.2,0,0,0,180,57l.1.1-.43,2.56-.14.13a36.29,36.29,0,0,1-5.6.16Z"/><path class="b" d="M90.75,109.89a9.34,9.34,0,0,0,4.08-4.76,9.4,9.4,0,0,0-3.61-.21A31.82,31.82,0,0,1,89.51,109a4,4,0,0,1-2.73,2.08c-1.61.36-2.5-.85-2.49-2.24,0-2.6,1.7-4.71,5.18-5.94.55-1.53.84-2.43,1.33-4l-2.87,1.21-.15-.09L87.3,98l.09-.18C89.32,97,90.9,96.36,92,95.94c.22-.08.41-.14.6-.19,1-.22,1.54.21,1.54,1a3.14,3.14,0,0,1-.13.67c-.49,1.5-1.09,3-1.84,5a13.61,13.61,0,0,1,3.31,0,16.65,16.65,0,0,0,0-2.15l.1-.15,2.35-.19.09.14a16.77,16.77,0,0,1-.11,2.88,11.82,11.82,0,0,1,2.09.83l0,.18-1.25,2.44-.17.11a15.7,15.7,0,0,0-1.52-.73,12.47,12.47,0,0,1-3.93,5,.61.61,0,0,1-.47,0Zm-4.19-1.76c0,.37.1.53.31.48s.44-.26.65-.7c.27-.59.5-1.14,1-2.33a3,3,0,0,0-1.91,2.55"/><path class="b" d="M108.68,91.72l2.33.47,0,.18c-1.14,2.34-2.08,4.14-3,6.1a3.2,3.2,0,0,1,1.37-.7c1.72-.39,2.64.49,2.65,1.93,0,1.1,0,2.16,0,2.68s0,.85.48.75c1.09-.24,2.34-1.77,3.64-4.84l1.55,1.77c.17.21.19.29,0,.65-1.48,3.11-3.35,4.83-5.36,5.28s-3-.26-3-2c0-.78.1-2,.11-2.91s-.19-1.11-.76-1c-.88.19-1.57,1.13-2.16,2.31a53.77,53.77,0,0,0-2.17,5.23l-.18.11-2.34-.34-.06-.19c2.2-5.41,4.44-10.38,6.72-15.38Z"/><path class="b" d="M127.48,87.57c-.16.75-.36,1.49-.52,2.17.62-.27,1.23-.55,1.85-.84l.15,0,.32,1.49a13.09,13.09,0,0,1,5.41.18l.06.16L134,92.9l-.14.11a2.73,2.73,0,0,0-1.42,0c-1.12.26-2.09.92-2.09,1.72a7,7,0,0,0,.75,2.49,12.51,12.51,0,0,1,3.8,1.42v.18l-1.49,2.26-.15,0a11.77,11.77,0,0,0-2-1.23c-.07,1.45-1.62,2.75-3.6,3.19-2.28.52-3.68-.09-3.66-1.95a4,4,0,0,1,3.3-3.59,5.88,5.88,0,0,1,1.14-.17A5.6,5.6,0,0,1,128,95.3c0-1,.94-2,2.4-2.77a21.28,21.28,0,0,0-2.38.29l-.09-.11.45-1.11c-.76.33-1.53.66-2.3.94a42,42,0,0,1-4.2,8.79l-.18.07-2.06-.89v-.16a31.22,31.22,0,0,0,3.59-6.83c-.91.3-1.84.56-2.81.8l-.14-.08,0-2.18.12-.15c1.34-.34,2.58-.71,3.78-1.1.28-1.07.52-2.1.68-3.11l.16-.15,2.35-.12Zm-.3,12.07a1.15,1.15,0,0,0-1,.89c0,.43.38.63,1,.49,1-.23,1.58-.72,1.57-1.42a2.74,2.74,0,0,0-1.63,0"/><path class="b" d="M144.14,96.87c3.78-1.49,5.49-3.71,5.51-5.85,0-2.71-1.44-4.09-3.23-4.06a24.12,24.12,0,0,1-2.76,8.92,4.94,4.94,0,0,1-3.32,2.67,2.17,2.17,0,0,1-2.46-1,4.82,4.82,0,0,1-.83-3,10.19,10.19,0,0,1,8.06-9.61c4.79-1.08,7.32,1.61,7.29,5.57,0,3.24-2.29,6.21-6,7.94-.25.07-.37.1-.56,0Zm-4.67-2.93a2.26,2.26,0,0,0,.29,1.29c.19.31.43.49.71.42s.92-.61,1.4-1.68a21.52,21.52,0,0,0,1.78-6.46,7,7,0,0,0-4.18,6.43"/><path class="b" d="M158.2,85.86l-3,.72-.12-.11V84.38l.14-.14,3-.61,2.19-.5c0-1,.05-2.08.06-3.34l.12-.15,2.62-.59.12.1c0,1.24,0,2.35-.08,3.34l2.95-.66,3.05-.74.14.09c-.1,4-.19,7.08-.49,9.34a4.3,4.3,0,0,1-3.57,4.08l-1.18.26c-.29.07-.42,0-.5-.22l-1-2.23c1-.16,1.49-.28,2.16-.45.88-.22,1.28-.65,1.45-2.09s.29-3.57.33-5.9l-3.44.78a14.9,14.9,0,0,1-1.61,6.55,14.12,14.12,0,0,1-4.94,5.37.93.93,0,0,1-.23.13.35.35,0,0,1-.18,0l-1.88-1.31A12.41,12.41,0,0,0,159,90.66a12,12,0,0,0,1.3-5.28Z"/><path class="b" d="M172.86,83.46l-.56-2.22.07-.16c4.9-2.31,8.82-4,13.77-6l.16,0,.49,2.26-.12.19A10.76,10.76,0,0,0,181.94,80a8,8,0,0,0-2.58,5.22c0,1.37.65,1.93,1.68,2a14.4,14.4,0,0,0,4.19-.55l.13.1-.17,2.74-.14.14a13.13,13.13,0,0,1-5.53.42c-1.74-.35-2.81-1.61-2.79-4a8.71,8.71,0,0,1,2.39-5.56c-1.73.81-3.61,1.73-6.1,3ZM184,81l.92-.87.17,0a7.84,7.84,0,0,1,1.78,1.48l0,.19-1,.91-.17,0a8,8,0,0,0-1.73-1.54Zm1.66-1.5.9-.86.17,0A7.41,7.41,0,0,1,188.42,80l0,.18-.92.89-.17,0a7.55,7.55,0,0,0-1.71-1.47Z"/><path class="b" d="M193.78,83.12a2.46,2.46,0,0,1,.64,2,4.18,4.18,0,0,1-.9,2.33,3.42,3.42,0,0,1-2,1.3,1.89,1.89,0,0,1-1.86-.44,2.45,2.45,0,0,1-.63-2A4.1,4.1,0,0,1,190,84a3.47,3.47,0,0,1,2-1.3,1.91,1.91,0,0,1,1.86.44m2.1-41.21a3.81,3.81,0,0,1,.76,3q-.12,1.95-.73,5.93c-.42,2.8-.85,5.66-1.27,8.6-.48,3.67-.86,6.95-1.16,9.86l-.42,6.92-1.52.35.41-6.92q.09-4.5,0-9.6c-.07-3-.16-5.73-.25-8.26s-.11-4.46,0-5.76a6.1,6.1,0,0,1,1.15-3.46,2.77,2.77,0,0,1,1.57-1,1.53,1.53,0,0,1,1.49.31"/><line class="d" x1="79.8" y1="82.75" x2="94.74" y2="79.39"/><rect class="b" x="79.61" y="80.83" width="15.31" height="0.47" transform="translate(-15.66 21.13) rotate(-12.68)"/><line class="d" x1="81.07" y1="84.09" x2="96.01" y2="80.73"/><rect class="b" x="80.88" y="82.17" width="15.31" height="0.47" transform="translate(-15.93 21.44) rotate(-12.68)"/><line class="d" x1="80.58" y1="85.55" x2="95.51" y2="82.19"/><rect class="b" x="80.39" y="83.63" width="15.31" height="0.47" transform="translate(-16.26 21.37) rotate(-12.68)"/><line class="d" x1="173.65" y1="68.39" x2="188.58" y2="65.02"/><rect class="b" x="173.46" y="66.47" width="15.31" height="0.47" transform="translate(-10.22 41.37) rotate(-12.68)"/><line class="d" x1="174.92" y1="69.72" x2="189.86" y2="66.36"/><rect class="b" x="174.73" y="67.8" width="15.31" height="0.47" transform="translate(-10.49 41.68) rotate(-12.68)"/><line class="d" x1="174.42" y1="71.19" x2="189.36" y2="67.82"/><rect class="b" x="174.24" y="69.27" width="15.31" height="0.47" transform="translate(-10.82 41.61) rotate(-12.68)"/><line class="d" x1="178.38" y1="87.78" x2="193.32" y2="84.41"/><rect class="b" x="178.2" y="85.86" width="15.31" height="0.47" transform="translate(-14.36 42.88) rotate(-12.68)"/><line class="d" x1="179.66" y1="89.11" x2="194.59" y2="85.75"/><rect class="b" x="179.47" y="87.31" width="15.31" height="0.25" transform="translate(-14.59 43.04) rotate(-12.63)"/><line class="d" x1="179.16" y1="90.58" x2="194.1" y2="87.21"/><rect class="b" x="178.97" y="88.66" width="15.31" height="0.47" transform="translate(-14.96 43.12) rotate(-12.68)"/><rect class="e" x="462" y="89" width="693" height="227" rx="35"/><path d="M508.8,189.17c2.73,3,5.69,6.19,8.57,9.57A84.66,84.66,0,0,0,520,186.86l11.67,2.24c-.22.71-.87,1.15-2,1.22a100.93,100.93,0,0,1-5.11,17.42,76.83,76.83,0,0,1,7.27,11.53l-8.35,7.12a73.17,73.17,0,0,0-4.4-8.2,45.16,45.16,0,0,1-13.82,13.6,50.39,50.39,0,0,0-6.34-7.92,35.67,35.67,0,0,0,14-14.61c-3.67-4.9-7.77-9.87-11.52-14.12Zm58.75-9.08v10h-7.2v30.39c0,9.22-2.3,12.6-17.64,12.6a42.48,42.48,0,0,0-3.24-11.3c3.75.21,7.56.21,8.86.21s1.66-.36,1.66-1.58V190.1H532.85v-4.39H499.58v-9.65h13V164.83l12.1.65c-.07.79-.65,1.22-2.09,1.51v9.07h13v4H550V164.76l12.52.57c-.14.79-.64,1.37-2.16,1.59v13.17Zm-29.09,34.28c-1-4.18-4.1-10.66-7.27-15.48l8.35-4.11c3.32,4.61,6.77,10.66,7.92,15Z"/><path d="M584.22,190.61c0,12-1.23,30.82-7.92,42.34a48,48,0,0,0-9.08-5.91c6-10.37,6.49-25.85,6.49-36.43V172.68h25.34v-7.92l13.11.72c-.08.79-.65,1.29-2.16,1.58v5.62h25.56v9.93H607.69c5.26,2.6,11.74,6.27,15.19,9.15l-7.48,7.7c-3.53-3.31-11.31-8.06-17.14-11.08l5.83-5.77H584.22Zm-1.51,32.26c2.73-5.48,4-13.4,4.6-21.61l9.44,2.09C596.1,211.78,595,221.14,592,227Zm44.21,4.46a63.69,63.69,0,0,0-2.59-11.09h-.08c-.86,12.53-3.24,16.27-10.15,16.27h-5.83c-8.14,0-10.08-3.09-10.08-12.24V196.73l12.53.65c-.08.79-.65,1.29-2.16,1.58V220.2c0,2.74.21,3,1.58,3h3c1.51,0,1.8-1.66,2-11.17,2.09,1.73,6.48,3.46,9.14,4.18a109.15,109.15,0,0,0-4.89-12.31l9.43-3.53c3.82,7.2,7.49,16.49,8.42,22.83Z"/><path d="M681.68,172.68h25.56v9.93H655.9v8c0,12-1.22,30.82-7.92,42.34a47.62,47.62,0,0,0-9.07-5.91c6.05-10.37,6.48-25.85,6.48-36.43V172.68h25.35v-7.92l13.1.72c-.07.79-.65,1.29-2.16,1.58Zm5.18,11.37c-.07.87-.72,1.37-2.23,1.59v3.53h21.6v9.21h-21.6v6.41h17.79v28.3H691.69v-2.45H669.15v2.45H658.93v-28.3H674V183.41Zm4.83,37.45v-7.56H669.15v7.56Z"/><path d="M771.85,164.69a48.18,48.18,0,0,1,8,6.91l-3.31,2.66h3.24v9.22H765v5h13.18v35.06c0,6.48-1.44,9.65-10.94,9.65a37.58,37.58,0,0,0-2.24-8.42v7.7h-9.43V219.7h-3.46v13.39H743.2V188.45h12.38v-5H742.12v-5l-5,6.26c-1.95-2.59-6-6-9.94-8.92a66.36,66.36,0,0,1-4.1,5.4l11,.57c-.07.72-.65,1.23-2.08,1.44V187h7.41v8.13H732V198h9.64v8.36H712.45V198h10v-2.88h-7.35V187h1.16a31.59,31.59,0,0,0-6-6.56,44,44,0,0,0,12.45-15.76l11.16,2c-.14.65-.79,1.15-1.87,1.15l-.07.15a62.51,62.51,0,0,1,10.23,7.7v-1.44h13.46v-9.57l11.52.64c-.07.72-.65,1.15-2.09,1.44v7.49h6.27a60.57,60.57,0,0,0-5.47-4.89Zm-57.17,68V208.39h25.56v22.9h-9.36v-1.94h-7.2v3.38ZM722.46,187v-5a57,57,0,0,1-5,5Zm8.42,29.52h-7.2v4.68h7.2Zm24.7-19.37h-3.46v3h3.46Zm-3.46,14.26h3.46v-3h-3.46Zm16.71-14.26H765v3h3.82ZM765,208.39v3h3.82v-3Zm0,11.31v4.39c1.23.07,2.6.07,3,.07s.79-.21.79-.86v-3.6Z"/><path d="M788.42,229.06c-1.88-5.76-2.81-18.51-2.81-28.52,0-11,1.58-21.31,3.53-32.11l13.32,2.45c-.15.79-1.15,1.37-2,1.51-4.61,15.55-4.61,26.28-4.61,36.22a28.27,28.27,0,0,0,.08,2.88c.79-2,2.73-7.49,3.74-9.87l5.4,7.35a123,123,0,0,0-5.62,12.53,11.91,11.91,0,0,0-.79,4.32,18.81,18.81,0,0,0,.22,2.73ZM808,183.62c1,.07,2,.07,3,.07,2.66,0,8.49-.07,11.73-.21-.28-5.33-.5-10-.57-15.34l13.46.43a1.93,1.93,0,0,1-1.8,1.59v12.45a101.89,101.89,0,0,0,11.74-2.3l.79,10.66a75.63,75.63,0,0,1-12.24,1.73c.22,5.76.5,11.44.86,16.2a51.3,51.3,0,0,1,12.82,7.85l-5.61,10.36a35.68,35.68,0,0,0-6.84-6.19c-1.73,8.79-9.65,9.58-14.48,9.58-9.07,0-14.33-5.26-14.33-12.1,0-7.7,6.84-12.24,14.48-12.24,1,0,2,0,3.09.07-.29-3.45-.5-8.35-.79-12.74-2,.07-4.25.14-5.62.14h-9.57Zm17.07,32a12.13,12.13,0,0,0-4-.72c-3.1,0-5.55,1-5.55,3.39,0,2.16,2.38,3.17,5.26,3.17a4,4,0,0,0,4.32-4.11A16.23,16.23,0,0,0,825.07,215.59Z"/><path d="M906.08,226.75A164.17,164.17,0,0,1,884.7,228c-6.41,0-12.32-.29-15.48-.94-9.58-2.16-13.61-8.64-13.61-15.26a21.9,21.9,0,0,1,6.55-15l9.43,4c-3,2.81-4.75,6-4.75,8.79,0,7.7,8.64,7.84,16.49,7.84a125.32,125.32,0,0,0,21.89-2Zm-36.5-38a63.53,63.53,0,0,1,7.48-5.32v-.08c-2.8.51-11.95.72-17.06.58,0-2.59-.07-8.28-.29-10.66,1.37.08,3.39.08,5.62.08,7,0,17-.22,21.82-.44a128.62,128.62,0,0,0,14.61-1.65l.72,11.3c-9.14,1.37-17.86,6.34-23.26,10.8Z"/><path d="M966.74,184.34c-8.28,2-19,3.17-27.29,3.68-.87,6-1.59,9.72-2.24,11.3a33.23,33.23,0,0,1,16.71-5c9.58,0,17.28,4.68,17.28,16.27,0,15-13.39,20.67-38.67,21.17-.65-2.66-2-7.77-3.24-9.93,20.24-.51,30.68-3.6,30.68-10.95,0-4.61-2.59-6.77-8.07-6.77-5.33,0-14,2.74-18.43,9.8l-10.66-4.54c2.09-2.23,4.9-10.51,5.83-21.17H913.81V177.57c3.46.22,10.59.22,15.7.22.21-3.53.29-7.92.21-11.81l13.54,1.23c-.21,1.15-1.08,1.58-2.09,1.8-.14,2.8-.36,5.9-.57,8.49a141.46,141.46,0,0,0,24.48-4Z"/><path d="M997.91,181.82A2,2,0,0,1,996,183c-1,9.73-1.52,13.9-3,15.92h.08c5.9-3.89,15.48-6.55,22-6.55,10.37,0,18.58,5.83,18.58,16.92,0,14-10.16,21.09-39.39,22.17a58.44,58.44,0,0,0-4-10c23.47-.94,31.54-4.18,31.54-12,0-4.25-3.24-7.34-8.72-7.34S996,204.5,990.64,212.79l-10.08-4.33c1.58-1.08,4.24-15.55,4.39-28.29Zm-2.74-15.77c8.21.72,19.88,2.45,27.65,5.33l-3.53,10.73c-7.12-2.88-19.8-5.11-27.36-5.9Z"/><path d="M1061,203.28v-8.64h48.24a41.05,41.05,0,0,1-8.28-8.86l7.71-4.17A86.69,86.69,0,0,0,1127.58,199a86.69,86.69,0,0,0-18.93,17.35l-7.71-4.17a41.05,41.05,0,0,1,8.28-8.86Z"/></svg>