<svg xmlns="http://www.w3.org/2000/svg" xmlns:xlink="http://www.w3.org/1999/xlink" viewBox="0 0 1200 400"><defs><style>.a{fill:none;}.b{isolation:isolate;}.c{fill:#f3af16;}.d{fill:#231815;}.e{fill:#fff;}.f{fill:#eb5b31;}.g{clip-path:url(#a);}.h{fill:url(#b);}.i{clip-path:url(#c);}.j{fill:url(#d);}.k{mix-blend-mode:multiply;}.l{clip-path:url(#e);}.m{clip-path:url(#f);}.n{fill:url(#g);}.o{clip-path:url(#h);}.p{fill:url(#i);}.q{clip-path:url(#j);}.r{clip-path:url(#k);}.s{fill:url(#l);}.t{clip-path:url(#m);}.u{fill:url(#n);}.v{clip-path:url(#o);}.w{clip-path:url(#p);}.x{fill:url(#q);}.y{clip-path:url(#r);}.z{fill:url(#s);}.aa{clip-path:url(#t);}.ab{clip-path:url(#u);}.ac{fill:url(#v);}</style><clipPath id="a"><rect class="a" x="909.94" y="78.21" width="248.54" height="67.73" rx="10.14"/></clipPath><linearGradient id="b" x1="182.78" y1="799.88" x2="184.08" y2="799.88" gradientTransform="matrix(0, 52.1, 52.1, 0, -40640.46, -9444.6)" gradientUnits="userSpaceOnUse"><stop offset="0" stop-color="#fff"/><stop offset="0.19" stop-color="#fcfcfc"/><stop offset="0.33" stop-color="#f3f3f3"/><stop offset="0.45" stop-color="#e5e3e3"/><stop offset="0.56" stop-color="#d0cdcc"/><stop offset="0.66" stop-color="#b4b1b0"/><stop offset="0.76" stop-color="#938d8c"/><stop offset="0.86" stop-color="#6b6462"/><stop offset="0.95" stop-color="#3e3532"/><stop offset="1" stop-color="#231815"/></linearGradient><clipPath id="c"><rect class="a" x="905.9" y="127" width="61.61" height="154.2"/></clipPath><linearGradient id="d" x1="179.83" y1="794.48" x2="181.13" y2="794.48" gradientTransform="matrix(0, -118.61, -118.61, 0, 95174.33, 21611.11)" gradientUnits="userSpaceOnUse"><stop offset="0" stop-color="#231815"/><stop offset="0.13" stop-color="#261b18"/><stop offset="0.24" stop-color="#2f2623"/><stop offset="0.34" stop-color="#3e3735"/><stop offset="0.44" stop-color="#534f4f"/><stop offset="0.52" stop-color="#666"/><stop offset="0.57" stop-color="#595756"/><stop offset="0.68" stop-color="#413b3a"/><stop offset="0.79" stop-color="#312825"/><stop offset="0.89" stop-color="#261c19"/><stop offset="1" stop-color="#231815"/></linearGradient><clipPath id="e"><rect class="a" x="905.9" y="127" width="8.08" height="154.2"/></clipPath><clipPath id="f"><rect class="a" x="905.9" y="127" width="8.08" height="154.2"/></clipPath><linearGradient id="g" x1="152.93" y1="815.56" x2="154.23" y2="815.56" gradientTransform="matrix(-6.21, 0, 0, 6.21, 1864.4, -4864.47)" gradientUnits="userSpaceOnUse"><stop offset="0" stop-color="#fff"/><stop offset="0.09" stop-color="#f9f9f9"/><stop offset="0.22" stop-color="#e7e7e7"/><stop offset="0.36" stop-color="#cac9c9"/><stop offset="0.53" stop-color="#a19f9f"/><stop offset="0.7" stop-color="#6d6a6a"/><stop offset="0.89" stop-color="#2e2b2b"/><stop offset="1" stop-color="#040000"/></linearGradient><clipPath id="h"><rect class="a" x="971.19" y="127" width="61.61" height="154.2"/></clipPath><linearGradient id="i" x1="179.83" y1="794.36" x2="181.13" y2="794.36" gradientTransform="matrix(0, -118.61, -118.61, 0, 95224.55, 21611.11)" xlink:href="#d"/><clipPath id="j"><rect class="a" x="971.19" y="127" width="8.08" height="154.2"/></clipPath><clipPath id="k"><rect class="a" x="971.19" y="127" width="8.08" height="154.2"/></clipPath><linearGradient id="l" x1="150.5" y1="815.56" x2="151.8" y2="815.56" gradientTransform="matrix(-6.21, 0, 0, 6.21, 1914.62, -4864.47)" xlink:href="#g"/><clipPath id="m"><rect class="a" x="1036.47" y="127" width="61.61" height="154.2"/></clipPath><linearGradient id="n" x1="179.83" y1="794.23" x2="181.13" y2="794.23" gradientTransform="matrix(0, -118.61, -118.61, 0, 95274.38, 21611.03)" xlink:href="#d"/><clipPath id="o"><rect class="a" x="1036.48" y="127" width="8.07" height="154.2"/></clipPath><clipPath id="p"><rect class="a" x="1036.48" y="127" width="8.07" height="154.2"/></clipPath><linearGradient id="q" x1="148.04" y1="815.58" x2="149.34" y2="815.58" gradientTransform="matrix(-6.21, 0, 0, 6.21, 1963.59, -4859.03)" xlink:href="#g"/><clipPath id="r"><rect class="a" x="1101.76" y="127" width="61.61" height="154.2"/></clipPath><linearGradient id="s" x1="179.83" y1="794.1" x2="181.13" y2="794.1" gradientTransform="matrix(0, -118.61, -118.61, 0, 95324.99, 21611.11)" xlink:href="#d"/><clipPath id="t"><rect class="a" x="1101.76" y="127" width="8.08" height="154.2"/></clipPath><clipPath id="u"><rect class="a" x="1101.76" y="127" width="8.08" height="154.2"/></clipPath><linearGradient id="v" x1="145.64" y1="815.57" x2="146.94" y2="815.57" gradientTransform="matrix(-6.21, 0, 0, 6.21, 2014.52, -4862.14)" xlink:href="#g"/></defs><g class="b"><rect class="c" width="1200" height="400"/><path class="d" d="M543.37,233.12l-.32,0-7.48,17.43.53.06c7.37.83,16,3.8,25.65,8.84l.38.21,7.45-17.28-.29-.17A69.35,69.35,0,0,0,543.37,233.12Z"/><path class="d" d="M713.61,244.81a1.13,1.13,0,0,0,1.28-1l.44-5.09a1,1,0,0,0-1.05-1.15H696.45a1,1,0,0,1-.8-.35,1.06,1.06,0,0,1-.28-.84,1.32,1.32,0,0,1,1.29-1.19h18a1.13,1.13,0,0,0,1.12-1l.37-4.21a1,1,0,0,0-1.18-1.14,24.22,24.22,0,0,1-2.71.12H639.56a32.74,32.74,0,0,1-3.92-.18,1.1,1.1,0,0,0-.85.25,1.13,1.13,0,0,0-.42.78l-1.21,13.92a1,1,0,0,0,1.05,1.15h.13a34.51,34.51,0,0,1,3.85-.2h72.65A18.25,18.25,0,0,1,713.61,244.81Z"/><path class="d" d="M697.67,94.57H726A1.29,1.29,0,0,1,727.35,96a1.64,1.64,0,0,1-1.6,1.48H719.3l-1.11,5.57.34.11c8,2.44,17.88,3.63,30.08,3.63a65.32,65.32,0,0,0,12.16-1l.3-.06.62-5H751.31a.64.64,0,0,1-.48-.2.67.67,0,0,1-.16-.51.83.83,0,0,1,.81-.75h10.39l1.44-11.71-.51.08a85.83,85.83,0,0,1-12.51.72c-11.83,0-21-.88-28.2-2.68l-.42-.11-.9,4.52H698a2.5,2.5,0,0,0-2.44,2.25,2.12,2.12,0,0,0,.53,1.61A2.1,2.1,0,0,0,697.67,94.57Z"/><path class="d" d="M691.36,124.41h24.71a1.76,1.76,0,0,1,1.31.56,1.73,1.73,0,0,1,.44,1.36,2.13,2.13,0,0,1-2.08,1.91h-7.27a1.16,1.16,0,0,0-.85.38,1.13,1.13,0,0,0-.28.89l.78,5.89a1.07,1.07,0,0,0,.5.76,1.1,1.1,0,0,0,.92.09c12.12-4.35,23-6.56,32.4-6.56a26,26,0,0,1,7.49.83,5.23,5.23,0,0,1,3.67,5.74c-.8,9.14-7,15.87-18.52,20-7.6,2.72-16.63,4.18-26.82,4.34a1.13,1.13,0,0,0-.94.53,1.1,1.1,0,0,0-.06,1.07c.39.79.76,1.58,1.11,2.36l.37-.18-.42.26H697.4a2,2,0,0,0-2,1.81,1.66,1.66,0,0,0,.42,1.27,1.62,1.62,0,0,0,1.22.53h14.19a1.74,1.74,0,0,1,1.3.56,1.7,1.7,0,0,1,.44,1.36,2.15,2.15,0,0,1-1.35,1.77,1.12,1.12,0,0,0-.7,1.3,24.52,24.52,0,0,1,.74,5.76,1.06,1.06,0,0,0,.36.81,1.11,1.11,0,0,0,.7.25h.16c17.22-2.51,29.76-6,38.35-10.55,13.44-7.23,20.9-18.31,22.17-32.93a33.32,33.32,0,0,0,.09-4.87,1,1,0,0,0-1-1h-7.55a1.07,1.07,0,0,1-.81-.35,1.13,1.13,0,0,1-.28-.84,1.3,1.3,0,0,1,1.29-1.18h6.62a1.13,1.13,0,0,0,.88-.44,1.11,1.11,0,0,0,.21-1,17.63,17.63,0,0,0-7-10.46c-4.85-3.29-12.24-5-22-5-10.73,0-22.87,1.87-37.12,5.72a1.13,1.13,0,0,0-.83,1.24l.3,2.27.4-.06-.46.13H691.68a2,2,0,0,0-2,1.81,1.63,1.63,0,0,0,1.64,1.8Z"/><path class="d" d="M669.41,197.64a1.15,1.15,0,0,0,1.12-1,44.46,44.46,0,0,1,2.51-10l.15-.4a1.09,1.09,0,0,0-.13-1,1.05,1.05,0,0,0-.87-.45h-8a1.08,1.08,0,0,1-1.09-1.19,1.3,1.3,0,0,1,1.29-1.19H674a1.14,1.14,0,0,0,1-.65,34.76,34.76,0,0,1,1.83-3.39,1.1,1.1,0,0,0,0-1.16,1.07,1.07,0,0,0-1-.47,108.49,108.49,0,0,1-15.38,1.06c-9.83,0-15.85-1.36-18.4-4.14a5.06,5.06,0,0,1-1.31-4c.41-4.62,5.94-9.36,16.48-14.11,2.08,0,4.14,0,6.18-.05s4-.05,6-.05c8.15,0,15.19.15,20.43.44a1.1,1.1,0,0,0,.75-.29,1.16,1.16,0,0,0,.38-.79l.39-9.12a1.08,1.08,0,0,0-.3-.78,1.06,1.06,0,0,0-.76-.32H678.9a1,1,0,0,1-.8-.35,1.06,1.06,0,0,1-.28-.84,1.29,1.29,0,0,1,1.29-1.18h11.3a1.15,1.15,0,0,0,1.13-1.09l.11-2.42a1.06,1.06,0,0,0-1.06-1.1l-14.69.44-28.31.86v.41l0-.51c16.27-9.19,24.88-13.9,26-14.47a4.48,4.48,0,0,1,1.71-.42,2.94,2.94,0,0,0,1.22-.21,1.13,1.13,0,0,0,.59-1.41c-.14-.37-.5-1.25-1.42-3.37a33.22,33.22,0,0,1-3-9.52,5,5,0,0,0-.59-1.75,1.08,1.08,0,0,0-1.34-.4l-1.37.64a6.52,6.52,0,0,1-2.73.94c-10.23.82-17.55,1.24-21.78,1.24-8,0-15-.15-22.05-.47a1.15,1.15,0,0,0-1.13,1l-.18,1.16H603.34a2,2,0,0,0-2,1.81,1.62,1.62,0,0,0,1.65,1.8h28.37a1.72,1.72,0,0,1,1.75,1.92,2.14,2.14,0,0,1-2.08,1.91h-9.42a1.13,1.13,0,0,0-1.12,1l-.87,7.25a1,1,0,0,0,1,1.18l5.26-.13,13.7-.35v-.4h0v.5c-8.77,5.52-15.15,9.44-19.88,11.89l-15.88.39a1.15,1.15,0,0,0-1.11,1.08l-.91,17.73a1,1,0,0,0,.33.83,1.13,1.13,0,0,0,.86.27l27.45-3.35v.1c-6.71,5.51-10.37,11.27-10.88,17.11a16,16,0,0,0,1.09,7.7l-.06.07H610.49a2,2,0,0,0-2,1.81,1.68,1.68,0,0,0,.42,1.28,1.65,1.65,0,0,0,1.23.53h12.77a1.2,1.2,0,0,0,.33.05h12.05a1.72,1.72,0,0,1,1.75,1.92,2.14,2.14,0,0,1-2.08,1.91h-3.34a1.13,1.13,0,0,0-1.09.86,1,1,0,0,0,.57,1.22c8.28,3.87,21.15,5.87,38.27,5.95Z"/><path class="d" d="M494.3,123.81a1,1,0,0,0,.41.09h25.42a1.72,1.72,0,0,1,1.75,1.91,2.13,2.13,0,0,1-2.08,1.91h-7.23a1.14,1.14,0,0,0-1.13,1.07,1,1,0,0,0,1,1.11c5,.25,11.14.36,19.21.36l.05.07a148.41,148.41,0,0,1-6.63,15.75H513.35a2,2,0,0,0-2,1.81,1.61,1.61,0,0,0,1.64,1.8h19a1.72,1.72,0,0,1,1.75,1.92,2.13,2.13,0,0,1-2.07,1.91H521.51a1.15,1.15,0,0,0-.94.51l-.65.95a1.1,1.1,0,0,0-.18.89,1,1,0,0,0,.55.7,70,70,0,0,1,11.92,7.78,1.11,1.11,0,0,0,1.34,0c8.69-6.7,17.26-10.09,25.47-10.09a17.62,17.62,0,0,1,6.73,1.24c2.53,1.16,3.72,2.85,3.53,5-.57,6.44-10.32,9.56-29.83,9.56-3,0-6.75-.07-11.1-.23a1.13,1.13,0,0,0-.94.52,1.09,1.09,0,0,0-.07,1.1,23.31,23.31,0,0,1,1.17,2.7l0,.07H508.77a2,2,0,0,0-2,1.81,1.63,1.63,0,0,0,1.33,1.77h28.69a1.74,1.74,0,0,1,1.31.56,1.72,1.72,0,0,1,.44,1.35,2.12,2.12,0,0,1-2.07,1.91h-4.88a1.12,1.12,0,0,0-.84.38,1.14,1.14,0,0,0-.29.88,34.41,34.41,0,0,1,.25,5.5,1.08,1.08,0,0,0,.3.78,1,1,0,0,0,.76.32h0c14.51-.08,26.3-1.57,35.05-4.44,1.22-.4,2.41-.84,3.54-1.32a1.13,1.13,0,0,0,.69-1.22,1,1,0,0,0-1-.88H565.2a1.07,1.07,0,0,1-1.09-1.19,1.31,1.31,0,0,1,1.29-1.18h12.76a1.09,1.09,0,0,0,.67-.23,26,26,0,0,0,10.67-19.36c.62-7.13-1.82-13-7.25-17.32-5-3.83-11.24-5.77-18.69-5.77a139,139,0,0,0-14.86,1.65v-.08c.77-1.49,1.85-4.63,3.15-8.3,16.53-1.25,27.65-2.25,33.07-3a1.15,1.15,0,0,0,1-1.08l.15-3.82a1.06,1.06,0,0,0-1-1.1H573.2a1.08,1.08,0,0,1-1.09-1.19,1.31,1.31,0,0,1,1.29-1.18h11.71a1.15,1.15,0,0,0,1.13-1.09l.29-7.09a1.06,1.06,0,0,0-.34-.82,1,1,0,0,0-.86-.27c-9,1.16-18.56,2-28.45,2.56.51-2.39.85-3.91,1-4.7a4.47,4.47,0,0,1,1.32-1.94,5.73,5.73,0,0,0,1.11-1.21,1,1,0,0,0,.16-.61c0-1-.82-1.62-2.35-1.91l-17.76-2.9a1.16,1.16,0,0,0-.89.25,1.14,1.14,0,0,0-.42.82c0,.92-.08,1.7-.11,2.37,0,.94-.07,1.57-.1,1.88a56.08,56.08,0,0,1-1.74,8.74c-2.15,0-4.26,0-6.33,0-6.54,0-12.32-.13-17.72-.4a1.14,1.14,0,0,0-.76.3,1.15,1.15,0,0,0-.37.79l-.34,7H495.29a2,2,0,0,0-2,1.81A1.61,1.61,0,0,0,494.3,123.81Z"/><path class="d" d="M403.21,104.62a1.34,1.34,0,0,0,.35,0h32.93a1.74,1.74,0,0,1,1.3.56,1.79,1.79,0,0,1,.45,1.36,2.14,2.14,0,0,1-2.08,1.91h-4.6a1.16,1.16,0,0,0-1.1.84c-.46,1.71-1,3.41-1.54,5a1.1,1.1,0,0,0,.08.89,1,1,0,0,0,.72.51,117.67,117.67,0,0,0,21.8,1.82l0,.1c-8.27,3.79-15,8-19.91,12.36H418.3a2,2,0,0,0-2,1.81,1.67,1.67,0,0,0,.42,1.28,1.65,1.65,0,0,0,1.23.53h19.88a1.74,1.74,0,0,1,1.3.56,1.77,1.77,0,0,1,.45,1.36,2.14,2.14,0,0,1-2.08,1.91h-11.8a1.16,1.16,0,0,0-1,.54,25.17,25.17,0,0,0-3.87,11.23c0,.33,0,.66-.06,1l-.07.29h-18a2,2,0,0,0-2,1.81,1.69,1.69,0,0,0,.42,1.28,1.62,1.62,0,0,0,1.22.52h18.32a1,1,0,0,0,.55.15h3.53a1.74,1.74,0,0,1,1.3.56,1.8,1.8,0,0,1,.45,1.36,2.14,2.14,0,0,1-2.08,1.91h-1.73a1.15,1.15,0,0,0-.89.44,1.1,1.1,0,0,0-.2,1,21,21,0,0,0,7.44,11.15,1.06,1.06,0,0,0,.65.22h8.13a1.74,1.74,0,0,1,1.3.56,1.78,1.78,0,0,1,.45,1.36,2.14,2.14,0,0,1-2.08,1.91H425.62a2,2,0,0,0-2,1.8,1.63,1.63,0,0,0,1.65,1.81h28.37a2.08,2.08,0,0,0,.41,0c1.37,0,2.77.06,4.22,0l29.69-.5a1.14,1.14,0,0,0,1.11-1,47.92,47.92,0,0,1,1.65-8.17,1.08,1.08,0,0,0-.17-.94,1.05,1.05,0,0,0-.85-.43h-9.06a1.07,1.07,0,0,1-1.08-1.19,1.29,1.29,0,0,1,1.29-1.18h10.31a1.15,1.15,0,0,0,1.06-.74,68,68,0,0,1,3.75-8.11,1.08,1.08,0,0,0-.07-1.17,1.05,1.05,0,0,0-1.11-.39c-9.1,2.24-20,3.37-32.35,3.37-6.83,0-11.21-.33-13.77-1-5.67-1.45-8.24-4.41-7.83-9.05.49-5.58,5.56-11.34,15.51-17.61a102.12,102.12,0,0,1,22.43-10.55,31.38,31.38,0,0,1,9.06-1.76c.6,0,1.63-.24,1.76-1.81a12.81,12.81,0,0,0-.15-2.22,1,1,0,0,0-1-.94h-14a1.08,1.08,0,0,1-1.09-1.19,1.31,1.31,0,0,1,1.29-1.18H487.8a1.15,1.15,0,0,0,1.13-1.25,50.55,50.55,0,0,1-.1-10.07,1.73,1.73,0,0,0-.34-1.38,1.56,1.56,0,0,0-1.2-.42,6.54,6.54,0,0,0-1.71.42,4.79,4.79,0,0,1-1.57.41c-15.23.75-22.61,1-23.86,1a180.51,180.51,0,0,1-26.3-2,1.12,1.12,0,0,0-.84.23,1.15,1.15,0,0,0-.44.77c-.09.86-.21,1.76-.41,2.79H404.09a2,2,0,0,0-2,1.81A1.62,1.62,0,0,0,403.21,104.62Z"/><path class="d" d="M440.91,224.11a1.11,1.11,0,0,0,.14-.64,3.44,3.44,0,0,0-.8-1.72l-.08-.1a54.9,54.9,0,0,1-7.74-10.29,3.93,3.93,0,0,0-2.65-2.14h-.11a1,1,0,0,0-.39.08c-.3.11-.86.37-1.63.74a7.09,7.09,0,0,1-2.51.84l-19.61,2.06v-.08c1.41-2.07,2.38-3.52,2.85-4.34a10.77,10.77,0,0,1,2.69-2.19c1.24-.85,1.88-1.65,1.95-2.44,0-.37-.09-1.07-1.31-1.63a1.4,1.4,0,0,0-.29-.09,20,20,0,0,1-2.4-.5l-16.77-3.93a1.13,1.13,0,0,0-1.23.55c-.58,1-1.21,2.12-2,3.39H370.15a2,2,0,0,0-2,1.81,1.63,1.63,0,0,0,1.65,1.8h25.39A1.72,1.72,0,0,1,397,207.2a2.13,2.13,0,0,1-2.07,1.91h-10a1.15,1.15,0,0,0-.94.49,134,134,0,0,1-9.86,12.72A89.57,89.57,0,0,1,358,236.9h-24.1a2,2,0,0,0-2,1.8,1.62,1.62,0,0,0,.41,1.28,1.65,1.65,0,0,0,1.23.53h28.37a1.74,1.74,0,0,1,1.31.56,1.72,1.72,0,0,1,.44,1.35,2.12,2.12,0,0,1-2.08,1.91h-5.8a1.15,1.15,0,0,0-1,.63,1.1,1.1,0,0,0,.11,1.17l8,10a1.1,1.1,0,0,0,1.42.22c9.5-6,19-14.74,28.33-25.93l21.86-2.29a112.91,112.91,0,0,1-10.16,15.71h-.08a54.47,54.47,0,0,0-11.45-9.57,1.11,1.11,0,0,0-1.35.21l-11.05,11.75a1.14,1.14,0,0,0-.31.82,1.09,1.09,0,0,0,.39.77,45.25,45.25,0,0,1,9.66,10.49c-8.92,7.18-20.4,13.4-34.16,18.49h-7.74a2,2,0,0,0-2,1.81,1.68,1.68,0,0,0,.42,1.28,1.65,1.65,0,0,0,1.23.52h22.86a1.72,1.72,0,0,1,1.75,1.92,2.13,2.13,0,0,1-2.07,1.91h-4.55a1.15,1.15,0,0,0-1.05.71,1.07,1.07,0,0,0,.26,1.2l6.56,6a1.08,1.08,0,0,0,.71.27,1.06,1.06,0,0,0,.52-.13c14.87-7.72,27.4-16.57,37.26-26.29a125.39,125.39,0,0,0,9.05-10.11,1.1,1.1,0,0,0,.16-1.15,1,1,0,0,0-1-.61h-5.62a1.08,1.08,0,0,1-1.09-1.19,1.31,1.31,0,0,1,1.29-1.19h8.87a1.12,1.12,0,0,0,.91-.46,190.57,190.57,0,0,0,14.43-22.9,22.2,22.2,0,0,1,2.09-2.49A8.49,8.49,0,0,0,440.91,224.11Z"/><path class="d" d="M528.48,225.29a1,1,0,0,0-.93-.55h-7a1.07,1.07,0,0,1-1.08-1.19,1.29,1.29,0,0,1,1.29-1.18h9.77a1.11,1.11,0,0,0,.81-.36c.5-.51,1-1.14,1.52-1.73a3.66,3.66,0,0,0,1.1-2.15.94.94,0,0,0,0-.47,7.33,7.33,0,0,0-2.15-2.47l-8.19-6.82c-2.1-1.75-3.13-2.1-3.56-2.15h-.25a5.41,5.41,0,0,0-2,.91,5.69,5.69,0,0,1-2.34,1.15l-16.79,1.58a6.82,6.82,0,0,1,2.64-2.82c1.26-.86,1.87-1.57,1.93-2.23.07-.85-.59-1.57-2-2.22l-15.72-5.93a1.14,1.14,0,0,0-1.39.58c-1,2-2.09,4.13-3.34,6.29H460a2,2,0,0,0-2,1.81,1.63,1.63,0,0,0,1.65,1.8h24.24a1.76,1.76,0,0,1,1.31.56,1.73,1.73,0,0,1,.44,1.36,2.13,2.13,0,0,1-2.08,1.91h-6.86a1.12,1.12,0,0,0-.94.51,150.5,150.5,0,0,1-9,12.18c-2.6,3.25-5.24,6.29-7.88,9.07H445.64a2,2,0,0,0-2,1.8,1.67,1.67,0,0,0,.42,1.28,1.65,1.65,0,0,0,1.23.53H462a1.74,1.74,0,0,1,1.75,1.91,2.13,2.13,0,0,1-2.08,1.91H451.58a1.13,1.13,0,0,0-.73.28,74.89,74.89,0,0,1-6.62,5.09,1.16,1.16,0,0,0-.49.8,1.05,1.05,0,0,0,.28.87l10.9,11.25a1.11,1.11,0,0,0,1.42.1,147.51,147.51,0,0,0,29.78-29.91L506,226.75c-4.23,8.42-11.9,18.06-23.46,29.47-5.64,5.53-11.66,10.9-17.92,16H439.74a2,2,0,0,0-2,1.81,1.68,1.68,0,0,0,.42,1.28,1.64,1.64,0,0,0,1.23.52h28.37a1.76,1.76,0,0,1,1.31.56,1.8,1.8,0,0,1,.44,1.36,2.14,2.14,0,0,1-2.08,1.91H455.4a1.09,1.09,0,0,0-.67.23l-.3.21a1.14,1.14,0,0,0-.46.84,1.06,1.06,0,0,0,.34.86l12.85,11.48a1,1,0,0,0,.7.26,1.14,1.14,0,0,0,.69-.23,253.09,253.09,0,0,0,23.68-20.82,1.1,1.1,0,0,0,.26-1.19,1,1,0,0,0-1-.67h-6a1.09,1.09,0,0,1-.81-.34,1.13,1.13,0,0,1-.28-.85,1.31,1.31,0,0,1,1.29-1.18h10.13a1.11,1.11,0,0,0,.81-.36,245.52,245.52,0,0,0,31.75-41.49A1.09,1.09,0,0,0,528.48,225.29Z"/><path class="d" d="M613.37,228.68a1.05,1.05,0,0,0-.8-.36h-.08a1.15,1.15,0,0,0-.84.49,99.52,99.52,0,0,1-9.21,11.33,1.1,1.1,0,0,0-.23,1.18,1,1,0,0,0,1,.65h6.05a1.05,1.05,0,0,1,1.08,1.19,1.3,1.3,0,0,1-1.28,1.18H598.7a1.11,1.11,0,0,0-.77.31A132.77,132.77,0,0,1,579.66,259a136.61,136.61,0,0,1-39.8,18.42,1.18,1.18,0,0,0-.74.64,1.08,1.08,0,0,0,0,1c.25.47.51,1,.77,1.47l0,.07H511.4a2,2,0,0,0-2,1.81,1.68,1.68,0,0,0,.42,1.28,1.65,1.65,0,0,0,1.23.53h30.57a1.09,1.09,0,0,0,.5.13h7a1.76,1.76,0,0,1,1.31.56,1.72,1.72,0,0,1,.44,1.35,2.12,2.12,0,0,1-2.08,1.91H545a1.13,1.13,0,0,0-.91.47,1.08,1.08,0,0,0-.16,1c.91,2.68,1.53,4.52,1.91,5.71.56,1.76,1.33,2.87,2.19,3.11a1,1,0,0,0,.3,0,1.16,1.16,0,0,0,.51-.12,9.08,9.08,0,0,0,2-1.64,6.68,6.68,0,0,1,2.51-2.18c3-1.44,5.48-2.64,7.62-3.66l.12-.06c2.55-1.21,4.57-2.17,5.9-2.86,7.45-3.77,14.51-7.77,21-11.89a1.13,1.13,0,0,0,.49-1.22,1,1,0,0,0-1-.79h-4.66a1.05,1.05,0,0,1-.81-.35,1.09,1.09,0,0,1-.28-.84,1.31,1.31,0,0,1,1.29-1.18h11.26a1.07,1.07,0,0,0,.64-.21c12.41-8.62,22.63-17.94,30.39-27.71a1.09,1.09,0,0,0,0-1.39Z"/><path class="d" d="M581.22,218.26,581,218c-6-5.8-14.24-10.32-24.42-13.42l-.32-.1-3.44,6.38H541.49a2.5,2.5,0,0,0-2.44,2.24,2.07,2.07,0,0,0,2.09,2.29h16.21a1.29,1.29,0,0,1,1.3,1.43,1.64,1.64,0,0,1-1.6,1.48H548.8l-2.08,3.87.45.14c10,3.08,17.58,7.22,22.53,12.3l.34.35Z"/><path class="d" d="M844.35,195.44a1.65,1.65,0,0,0-1.23-.53h-84.5a1.13,1.13,0,0,0-1.13,1.1c0,1.28-.06,2.54-.09,3.74l-.07.05a70,70,0,0,1-12.46-6.08,1.12,1.12,0,0,0-1-.07,1.16,1.16,0,0,0-.67.81,83.35,83.35,0,0,1-2.68,9.55H710.67a2,2,0,0,0-2,1.81,1.65,1.65,0,0,0,.42,1.28,1.63,1.63,0,0,0,1.22.52h33a1.76,1.76,0,0,1,1.31.56,1.8,1.8,0,0,1,.44,1.36,2.13,2.13,0,0,1-2.08,1.91h-4.42a1.16,1.16,0,0,0-1,.7c-1.14,2.75-2.4,5.55-3.81,8.34H718.93a2,2,0,0,0-2,1.81,1.68,1.68,0,0,0,.42,1.28,1.64,1.64,0,0,0,1.23.52H731.8a1,1,0,0,0,.35.06h11.39a1.76,1.76,0,0,1,1.31.56,1.81,1.81,0,0,1,.44,1.36,2.14,2.14,0,0,1-2.08,1.91H730.5a1.12,1.12,0,0,0-1,.59c-1.54,2.8-3.18,5.63-4.89,8.42a1.14,1.14,0,0,0-.11.93,91.06,91.06,0,0,1,4.34,20.65,1,1,0,0,0,.77.92,1.15,1.15,0,0,0,1.17-.41c.33-.42.65-.86,1-1.32l-.33-.23.43.26-.74,7.85H717.22a2,2,0,0,0-2,1.81,1.66,1.66,0,0,0,.42,1.27,1.63,1.63,0,0,0,1.23.53h13.9a1.26,1.26,0,0,0,.28,0h6.17a1.74,1.74,0,0,1,1.75,1.91,2.13,2.13,0,0,1-2.08,1.91h-5.35a1.15,1.15,0,0,0-1.13,1l-1.12,12.18H693.69a2,2,0,0,0-2,1.81,1.65,1.65,0,0,0,.79,1.57,1,1,0,0,0,.67.14l.2,0h37.07a1.73,1.73,0,0,1,1.31.57,1.77,1.77,0,0,1,.45,1.35,2.14,2.14,0,0,1-2.08,1.91h-.37a1.14,1.14,0,0,0-1.12,1l0,.45a1.06,1.06,0,0,0,.3.85,1.08,1.08,0,0,0,.75.3h.1c2.27-.21,4.76-.31,7.6-.31,3,0,5.65.11,8.08.32h.11a1.08,1.08,0,0,0,.72-.27,1.15,1.15,0,0,0,.41-.76l1.06-12.15.1,0A80.83,80.83,0,0,1,752.77,296a1,1,0,0,0,1,.74H754c8.9-1.59,16-3.79,21.77-6.72,7.83,3.39,19.58,5.14,34.92,5.22a1.13,1.13,0,0,0,1.11-.92,71.48,71.48,0,0,1,2.18-8.49,1.06,1.06,0,0,0-.14-1,1,1,0,0,0-.85-.43h-6a1.09,1.09,0,0,1-.81-.35,1.06,1.06,0,0,1-.28-.84,1.3,1.3,0,0,1,1.29-1.19h7.36a1.15,1.15,0,0,0,1.06-.72c.87-2.19,1.86-4.38,2.94-6.5a1.09,1.09,0,0,0-.09-1.15,1,1,0,0,0-1.07-.38,77,77,0,0,1-15.65,2,65,65,0,0,1-11.61-.89l-.09.4,0-.47c.42-1,.81-2,1.18-3.17a1.05,1.05,0,0,0-.14-1,1,1,0,0,0-.86-.44H784a1.08,1.08,0,0,1-1.09-1.19,1.3,1.3,0,0,1,1.29-1.19h7.24a1.13,1.13,0,0,0,1.09-.86c.25-1,.49-2,.77-3.12H816.1a1.16,1.16,0,0,0,.8-.34,1.18,1.18,0,0,0,.33-.81c0-1.87.06-3.88.26-6.14l2.65-30.36a1.12,1.12,0,0,0-.27-.81,1.08,1.08,0,0,0-.78-.34H815.6a1.08,1.08,0,0,1-1.09-1.19,1.31,1.31,0,0,1,1.29-1.18h3.65a1.14,1.14,0,0,0,1.13-1c.14-1.17.3-2.24.5-3.29a1,1,0,0,0-.22-.87,1.07,1.07,0,0,0-.82-.38l-22.15-.06.32-3.17h24.65a1.13,1.13,0,0,0,.79-.33,1.1,1.1,0,0,0,.34-.79c0-2.46.15-5.16.41-8.24a1,1,0,0,0-.27-.81,1.06,1.06,0,0,0-.78-.34h-9.62a1.11,1.11,0,0,1-.81-.34,1.12,1.12,0,0,1-.27-.85,1.3,1.3,0,0,1,1.29-1.18h9.83a1.13,1.13,0,0,0,1.12-1,10.3,10.3,0,0,1,.19-1.08H842.8a2,2,0,0,0,2-1.81A1.66,1.66,0,0,0,844.35,195.44Zm-42.79,50.24-.37,3.61-6.15-.06.31-3.56.06,0Zm-4.87-14.74,6.15.06-.36,3.5-6.15-.06.3-3.45Zm-28.37,32.48h6.93l0,.06a18.58,18.58,0,0,1-2.16,4.82,18,18,0,0,1-4.87-4.86ZM757.6,217a1.13,1.13,0,0,0-.33.79c0,.92,0,2.13,0,3.32a1,1,0,0,0,.29.78,1.06,1.06,0,0,0,.76.32h17.62a1.08,1.08,0,0,1,.81.34,1.09,1.09,0,0,1,.28.85,1.31,1.31,0,0,1-1.29,1.18H758a1.15,1.15,0,0,0-1.13,1l-2.66,30.47c-.17,2-.5,4.11-.83,6.05a1.06,1.06,0,0,0,.23.86,1,1,0,0,0,.81.38h3l0,.09a47.8,47.8,0,0,1-6.7,5.05,1.19,1.19,0,0,0-.51.71,1,1,0,0,0,.16.84,47.39,47.39,0,0,0,4.72,5.89l0,.09a54.29,54.29,0,0,1-6.81.39l4.78-54.62,1.39-3,.14-.3c.77-1.65,1.56-3.33,2.39-5.06l.06,0,23.3.06c0,.57-.07,1.11-.09,1.68a9.9,9.9,0,0,1-.13,1.49H758.4A1.15,1.15,0,0,0,757.6,217Zm15.67,14,.06-.05L779,231l-.36,3.5-5.63-.06ZM772,245.67l.06,0,5.63.06-.37,3.61-5.63-.06Z"/><path class="d" d="M791.81,188.37a.78.78,0,0,1-.6-.28.72.72,0,0,1-.15-.63c.16-.75.34-1.68.54-2.84l3.23-18.91c.2-1.15.32-2,.38-2.62a.8.8,0,0,1,.79-.7h1.53a.81.81,0,0,1,.6.28.79.79,0,0,1,.15.63c-.14.61-.27,1.33-.43,2.26l-3.23,18.91c-.22,1.34-.38,2.39-.47,3.21a.79.79,0,0,1-.79.69Zm-22.57-.2a.75.75,0,0,1-.5-.18.73.73,0,0,1-.27-.58l0-1.64a.79.79,0,0,1,.73-.76c.78,0,1.82-.17,3.36-.35a.51.51,0,0,0,.45-.42l1.27-7.44a.45.45,0,0,0-.11-.4.48.48,0,0,0-.39-.18h-1.26c-.48,0-.92,0-1.34,0h0a.78.78,0,0,1-.58-.25.73.73,0,0,1-.18-.62l.23-1.33a.79.79,0,0,1,.78-.65h0c.51,0,1.07.05,1.7.05h1.26A.52.52,0,0,0,775,173l.22-1.29a.51.51,0,0,0-.11-.41.52.52,0,0,0-.39-.17h-.2a.76.76,0,0,1-.77-.72.47.47,0,0,0-.25-.41.48.48,0,0,0-.26-.07.54.54,0,0,0-.32.11.94.94,0,0,1-.54.18l-.23,0a.73.73,0,0,1-.52-.51,13.53,13.53,0,0,0-.41-1.4.75.75,0,0,1,.32-.9,16.21,16.21,0,0,0,3.37-2.8,10.85,10.85,0,0,0,1.53-1.92.81.81,0,0,1,.68-.37h2.8a.77.77,0,0,1,.71.46,9.16,9.16,0,0,0,2.85,3.55.73.73,0,0,1,.12,1c-.54.71-.92,1.23-1.28,1.79a.81.81,0,0,1-.67.35l-.19,0-.13,0-.18,0-.2.07-.07.15-.07.18-.11.63a.78.78,0,0,1-.78.64h-1.07a.51.51,0,0,0-.51.43l-.23,1.29a.52.52,0,0,0,.5.58h2.22a.77.77,0,0,1,.58.26.72.72,0,0,1,.17.61l-.21,1.27a.8.8,0,0,1-.78.65h0l-1.08,0H778a.52.52,0,0,0-.52.43l-1.16,6.79a.51.51,0,0,0,.14.44.54.54,0,0,0,.36.14h.1l1.1-.21h.16a.73.73,0,0,1,.52.21.71.71,0,0,1,.23.66l0,.3a.51.51,0,0,0,0,.32.75.75,0,0,1,0,.67.81.81,0,0,1-.53.44c-2.44.59-2.57.61-4.17.93l-2.92.5-1.92.34Zm8.82-23a.55.55,0,0,0-.46.21,18.54,18.54,0,0,1-2.18,2.52.48.48,0,0,0-.12.55.52.52,0,0,0,.47.31h3.84l.23-.06.15-.06.07-.13a.51.51,0,0,0,0-.57,11.2,11.2,0,0,1-1.55-2.49.5.5,0,0,0-.41-.28Zm3.51,22.77a.82.82,0,0,1-.53-.21,12.68,12.68,0,0,0-1.32-1.12.74.74,0,0,1-.29-.57.75.75,0,0,1,.26-.59l.09-.1c1.86-2.74,2.74-5.47,3.8-11.67l1-6.06a.53.53,0,0,0,0-.25.75.75,0,0,1,.12-.72.4.4,0,0,0,.1-.23l.19-1.08c.15-.87.24-1.51.3-2.09a.78.78,0,0,1,.78-.7h1.48a.77.77,0,0,1,.59.27.71.71,0,0,1,.16.62c-.09.46-.18,1-.29,1.6l-1.5,8.78c-1.23,7.19-2,10.18-4.28,13.75a.81.81,0,0,1-.57.36Zm6-3a.76.76,0,0,1-.6-.28.74.74,0,0,1-.15-.63c.14-.6.26-1.25.4-2.05L790,166c.12-.69.2-1.23.26-1.7a.8.8,0,0,1,.78-.68h1.08a.75.75,0,0,1,.58.27.72.72,0,0,1,.17.61c-.07.4-.15.88-.26,1.5l-2.81,16.48c-.13.73-.23,1.29-.29,1.74a.79.79,0,0,1-.78.66Zm-17-2a.75.75,0,0,1-.43-.13.77.77,0,0,1-.33-.6,23.31,23.31,0,0,0-.21-2.91.77.77,0,0,1,.56-.83l.71-.22.23,0a.79.79,0,0,1,.42.12.75.75,0,0,1,.34.54c.12,1.06.18,2,.2,3.05a.76.76,0,0,1-.53.74l-.7.23A.75.75,0,0,1,770.57,182.94Z"/><path class="d" d="M811.89,188.48a.77.77,0,0,1-.59-.27.76.76,0,0,1-.15-.63c.08-.39.17-.83.26-1.35l1.35-7.91a.5.5,0,0,0-.17-.46.66.66,0,0,0-.24-.11.74.74,0,0,1-.61-.65,11,11,0,0,0-.32-1.58.78.78,0,0,1,.51-.92,26.31,26.31,0,0,0,4.91-2.18.51.51,0,0,0,.25-.35.47.47,0,0,0-.11-.41,11.07,11.07,0,0,1-1.34-1.92.53.53,0,0,0-.34-.24h-.11a.52.52,0,0,0-.29.09l-.54.36a.88.88,0,0,1-.44.12l-.21,0a.75.75,0,0,1-.48-.41c-.09-.18-.18-.37-.31-.6a.49.49,0,0,0-.45-.27.54.54,0,0,0-.52.43l-.05.3c-.12.67-.21,1.21-.27,1.67a.79.79,0,0,1-.79.66h0l-1.06,0h-.36a.53.53,0,0,0-.52.43l-.48,2.84a.48.48,0,0,0,.11.41.52.52,0,0,0,.39.17h.54a.77.77,0,0,1,.58.26.72.72,0,0,1,.17.61l-.22,1.31a.79.79,0,0,1-.78.64l-.93,0a.54.54,0,0,0-.51.43l-.54,3.17a.49.49,0,0,0,.15.44.5.5,0,0,0,.35.14l.12,0c.38-.08.72-.16,1.14-.27l.2,0a.76.76,0,0,1,.75.87l-.23,1.35a.78.78,0,0,1-.56.61c-2.92.83-6,1.54-10,2.33l-.15,0a.84.84,0,0,1-.48-.16.77.77,0,0,1-.29-.56l-.06-1.75a.8.8,0,0,1,.73-.8h.23a.53.53,0,0,0,.48-.43l1.17-6.88c.13-.74.22-1.28.26-1.74a.8.8,0,0,1,.79-.7h.89a.76.76,0,0,1,.59.28.73.73,0,0,1,.15.62c-.07.33-.14.72-.22,1.21l-1.11,6.5a.5.5,0,0,0,.5.58,8.51,8.51,0,0,0,.87-.15l.19,0a.53.53,0,0,0,.42-.42L806,172.38a.49.49,0,0,0-.11-.4.53.53,0,0,0-.39-.18h-1.71l-1,0h0a.75.75,0,0,1-.75-.9c.09-.42.18-.87.27-1.43l.72-4.22c.12-.7.21-1.28.27-1.82a.8.8,0,0,1,.79-.68h0c.54,0,1.08,0,1.82,0h6.31a.77.77,0,0,1,.59.26.72.72,0,0,1,.16.63c-.08.41-.17.87-.26,1.44l-.24,1.4a.49.49,0,0,0,.22.51.54.54,0,0,0,.28.08.47.47,0,0,0,.28-.09,17.43,17.43,0,0,0,5.17-4.89.8.8,0,0,1,.67-.36h.13l1.87.31a.73.73,0,0,1,.53.37.71.71,0,0,1,0,.65.51.51,0,0,0,0,.42.5.5,0,0,0,.45.27h2.61c.78,0,1.29,0,1.73-.06h.07a.77.77,0,0,1,.65.35l.74,1.18a.74.74,0,0,1,0,.85l-.79,1a34.68,34.68,0,0,1-4,4.38.5.5,0,0,0-.16.43.48.48,0,0,0,.25.38,19.86,19.86,0,0,0,3.55,1.56.75.75,0,0,1,.42,1.07,21.81,21.81,0,0,0-1,2.06.8.8,0,0,1-.71.48.44.44,0,0,0-.24.07l-.09.06-.23.14a.73.73,0,0,1,0,.36l-1.27,7.44c-.16.92-.26,1.58-.33,2.18a.78.78,0,0,1-.78.7h-1.93a.75.75,0,0,1-.76-.73.56.56,0,0,0-.12-.3.53.53,0,0,0-.39-.18H815a.55.55,0,0,0-.53.44l0,.15a.79.79,0,0,1-.78.64Zm4.26-7.93a.54.54,0,0,0-.52.43l-.46,2.72a.47.47,0,0,0,.11.41.52.52,0,0,0,.39.18h4.25a.53.53,0,0,0,.52-.43l.47-2.73a.52.52,0,0,0-.5-.58Zm3.4-6.23a.57.57,0,0,0-.28.08,29.13,29.13,0,0,1-4.12,2.22.48.48,0,0,0-.3.56.49.49,0,0,0,.5.4h7.88a.52.52,0,0,0,.34-.12l.22-.13a.73.73,0,0,1,0-.25.49.49,0,0,0-.27-.45,23.47,23.47,0,0,1-3.62-2.21A.48.48,0,0,0,819.55,174.32Zm-.74-7.76a.56.56,0,0,0-.37.15l-.44.42a.5.5,0,0,0-.08.6,9,9,0,0,0,1.82,2.25.52.52,0,0,0,.36.14.54.54,0,0,0,.34-.12,14.54,14.54,0,0,0,2.54-2.63.47.47,0,0,0,.06-.53.5.5,0,0,0-.45-.28Zm-12.3-1a.53.53,0,0,0-.52.43l-.43,2.52a.52.52,0,0,0,.11.4.53.53,0,0,0,.39.18h2.49a.52.52,0,0,0,.52-.43l.43-2.52a.51.51,0,0,0-.11-.41.52.52,0,0,0-.39-.17Z"/><path class="d" d="M499.8,107a128.11,128.11,0,0,0-8.46-11l5.36-4.41c1.61,1.85,4.44,5.43,8.5,10.65Zm7.87-6.45a117.45,117.45,0,0,0-8.58-10.85l5.36-4.41c1.61,1.85,4.44,5.43,8.5,10.65Z"/><path class="d" d="M499.8,107.49h-.07a.42.42,0,0,1-.33-.21A125.65,125.65,0,0,0,491,96.36a.49.49,0,0,1-.11-.35.49.49,0,0,1,.17-.33l5.36-4.4a.49.49,0,0,1,.67.06c1.68,1.91,4.62,5.65,8.52,10.67a.47.47,0,0,1-.07.65l-5.4,4.71A.45.45,0,0,1,499.8,107.49ZM492,96.12c3.92,4.72,6.33,7.82,7.89,10.17l4.64-4.05c-3.52-4.54-6.24-8-7.9-9.92ZM507.67,101h-.07a.45.45,0,0,1-.34-.21A118.13,118.13,0,0,0,498.72,90a.52.52,0,0,1-.11-.36.46.46,0,0,1,.17-.32l5.36-4.41a.49.49,0,0,1,.67.06c1.67,1.91,4.61,5.64,8.52,10.67a.47.47,0,0,1-.06.65L508,100.92A.47.47,0,0,1,507.67,101Zm-7.9-11.27a122.1,122.1,0,0,1,8,10.07l4.52-4c-3.53-4.54-6.24-8-7.9-9.92Z"/><path class="d" d="M467.53,64.35l2.93-.06.13.13v1.87l-.12.12-2.93,0h-3.92c0,.3,0,.61-.07.91h3.55l2.93-.06.12.12v1.89l-.13.12-2.93,0h-2.38c1.45,1.13,3.48,1.74,6.31,2l-1.38,2.27a.16.16,0,0,1-.17.1l-.27,0a11.55,11.55,0,0,1-6.62-3.38c-1.17,1.91-3.35,3.14-6.72,3.53-.18,0-.37,0-.44-.1l-1.26-1.92c3.19-.24,5-.93,6-2.51H457.9l-2.93.06-.12-.13V67.37l.12-.13,2.93.05h3a6.84,6.84,0,0,0,.08-.9h-3.48l-2.93.06-.12-.12V64.45l.12-.12,2.93,0h3.6v-.74h-1.66l-2.93.06-.12-.12V61.84l.12-.13,2.94,0h1.65v-.68h-2.82l-2.93.06-.13-.12V59.19l.12-.12,2.93,0H459A8.74,8.74,0,0,0,458,58l.06-.18,1.8-.78.17,0a11.21,11.21,0,0,1,1.56,2.1h2a17.85,17.85,0,0,0,.91-2l.16-.09,2.24.6.11.15c-.33.52-.62,1-.9,1.37h.66l2.93-.06.12.13V61l-.12.13-2.93,0h-3.05v.67h1.94l2.93-.06.12.13v1.73l-.12.12-2.94,0h-1.94v.74Z"/><path class="d" d="M474.32,68.06v1.5h-2.21l.08-4.89V61.27l-.06-2.63.12-.12,1.91,0h1.38l1.9-.06.13.13-.05,2.63v3.21l.1,4.54h-2.3v-1Zm1-7.38h-1v5.26h1Zm5,4.88-2.31.06-.13-.13v-1.9l.12-.13,2.31,0h1.28v-2h-.78l-2.31.06-.12-.12V59.54l.13-.12,2.31,0h.78V57l.09-.11h2.21l.1.1v2.44h1.37l2.32-.06.12.12v1.91l-.13.12-2.31,0H484v2h2l2.32-.06.12.12v1.91l-.13.12-2.31,0H484.4A17,17,0,0,0,488.82,70l-1.44,1.82c-.12.14-.2.21-.28.21s-.14-.05-.23-.14A18,18,0,0,1,484,68.38l.17,5.41h-2.64l.14-5.15a19.19,19.19,0,0,1-4.31,3.89.52.52,0,0,1-.23.09.38.38,0,0,1-.27-.13l-1.59-1.56a16.33,16.33,0,0,0,6-5.38Z"/><path class="d" d="M493.07,58h2.49l.14.13c-.08,2.19-.17,3.69-.25,5.5-.07,1.54-.17,3.52-.17,4.89s.61,1.84,1.67,1.84c2,0,4.32-1.6,5.81-4.34l1.54,2a.42.42,0,0,1,.06.57A8.85,8.85,0,0,1,497.15,73c-2.67,0-4.49-1.24-4.5-4.23,0-2.45.12-4.09.17-5.7.05-1.38.13-2.93.13-5Z"/><path class="d" d="M508.73,59.35l2.49.08.13.12c-.16,2-.21,3.71-.2,4.74a12.54,12.54,0,0,0,.41,3.49c.2.69.43,1.2.82,1.2s1.07-1,1.47-2.58l1.77,2.22a.36.36,0,0,1,.06.44c-.7,1.84-1.85,3.16-3.28,3.17-1.15,0-2.16-.81-2.86-2.24a13.13,13.13,0,0,1-1-5.49c0-1.43,0-3.12.11-5Zm8.38,3L518.8,61l.19,0a13.32,13.32,0,0,1,4.7,5.69l-.06.16-2.24,1.4-.17,0a12,12,0,0,0-4.15-5.64Z"/><path class="d" d="M527.23,58.16l2.41.33.1.16a18.44,18.44,0,0,1-.68,4,22.6,22.6,0,0,0-.64,5,4.69,4.69,0,0,0,.11,1.09c.09.36.2.39.53.05a6.22,6.22,0,0,0,.88-1.11l.53.28a13,13,0,0,0-.91,3.89A1.12,1.12,0,0,1,528.4,73a1.89,1.89,0,0,1-1.4-.77,7.31,7.31,0,0,1-1-4.18,30.85,30.85,0,0,1,.62-6.2,18.77,18.77,0,0,0,.5-3.6ZM539.64,72a12.28,12.28,0,0,0-1.78-1.73c-.32,1.66-1.53,2.36-3.41,2.36s-3.53-.79-3.53-2.75S532.68,67,534.28,67a5.46,5.46,0,0,1,1.11.07c0-1.11-.09-2.3-.13-3.6-1.22.09-2.5.13-3.7.15l-.13-.14-.06-2.16.13-.1c1.29,0,2.5,0,3.7-.12,0-.88,0-1.85,0-2.84l.14-.16h2.33l.14.14c0,.9,0,1.79,0,2.64.73-.09,1.47-.2,2.16-.31l.17.09.33,2.13-.11.14c-.72.13-1.59.26-2.52.35,0,1.59.09,3.09.18,4.41a10.1,10.1,0,0,1,3.26,2.18l0,.2-1.37,1.83Zm-5.41-2.92c-.7,0-1.07.29-1.07.66s.26.6,1.11.6,1.15-.34,1.09-1.1A2.65,2.65,0,0,0,534.23,69.05Z"/><path class="d" d="M544.47,68.3a15,15,0,0,1,3.68,3.47v.15l-1.81,1.64h-.16a15.64,15.64,0,0,0-3.59-3.66v-.16l1.71-1.42Z"/><path class="d" d="M554.77,60.55l6.56,0,2.49-.06.16.11,0,2.14v5.19l.06,2.27-.13.15-2.43,0h-6.73l-2.33.06-.12-.14V67.84l.16-.1,2.22.05,6.34,0V63h-6.13l-2.41.06L552.3,63V60.61l.15-.11Z"/><path class="d" d="M570.26,71.21l.07-6.06v-3L570.27,60l.14-.12,2.6,0h5.75l2.53-.06.14.12,0,2.3v5l.06,2.42-.12.14-2.69,0h-5.51V71.2Zm8.29-8.86h-5.43v5l5.44,0Z"/><path class="d" d="M592.62,57.92l.14-.13h2.61l.14.14v3.56h2.08l2.72-.06.14.12v2.33l-.12.15L597.54,64h-2.07a10.25,10.25,0,0,1-1.29,5A9.86,9.86,0,0,1,590,72.58a1.22,1.22,0,0,1-.25.07.51.51,0,0,1-.3-.14l-2.19-1.6a8.74,8.74,0,0,0,4.14-3A7.89,7.89,0,0,0,592.56,64h-3.34l-2.52.06-.12-.14V61.59l.14-.13,2.49,0h3.43Z"/><path class="d" d="M611.39,57.56c-.16.7-.35,1.39-.51,2,.62-.13,1.23-.27,1.85-.43l.16.07.34,1.55a14.79,14.79,0,0,1,5.46,1.37l0,.17-.72,2-.14.08a2.84,2.84,0,0,0-1.43-.3c-1.13,0-2.1.44-2.1,1.24a8.42,8.42,0,0,0,.78,2.63A16.78,16.78,0,0,1,619,70.18v.18l-1.48,1.91h-.16a16.66,16.66,0,0,0-2.07-1.67c0,1.43-1.6,2.37-3.59,2.38-2.3,0-3.71-.91-3.72-2.75,0-1.66,1.41-2.83,3.3-2.83a6.51,6.51,0,0,1,1.15.08,6.21,6.21,0,0,1-.4-2.15c0-1,.93-1.77,2.4-2.21a22.9,22.9,0,0,0-2.4-.24l-.09-.13.44-1c-.76.16-1.54.32-2.32.42A30.7,30.7,0,0,1,605.91,70l-.18,0-2.09-1.34V68.5a23.32,23.32,0,0,0,3.56-6c-.92.09-1.86.14-2.83.16l-.14-.1-.06-2.17.12-.13c1.35,0,2.6-.13,3.8-.25a24.73,24.73,0,0,0,.66-2.94l.16-.1,2.37.4Zm-.19,11.9c-.6,0-1,.37-1,.67s.39.7,1,.7c1,0,1.58-.35,1.56-1.06A3,3,0,0,0,611.2,69.46Z"/><path class="d" d="M627.77,57.43l2.35,1,0,.2c-1.12,2.06-2,3.64-3,5.37a2.61,2.61,0,0,1,1.37-.39,2.44,2.44,0,0,1,2.69,2.5c0,1.09,0,2.14,0,2.65s.06.84.5.84c1.09,0,2.34-1.24,3.63-4l1.57,2.09c.18.25.2.34,0,.66-1.46,2.75-3.33,4-5.36,4s-3-.93-3-2.68c0-.77.08-1.92.08-2.86s-.2-1.14-.78-1.14c-.88,0-1.57.78-2.15,1.82a40.19,40.19,0,0,0-2.14,4.7l-.18.07L621,71.45l0-.2c2.16-4.88,4.37-9.31,6.62-13.77Z"/><path class="d" d="M639,71.93c1-3.07,1.83-5.76,2.72-8.46-.81.13-1.76.25-2.65.36l-.14-.11-.39-2.13.1-.13c1.4-.1,2.7-.27,3.92-.45.42-1.22.83-2.47,1.28-3.83l.18-.09,2.38.58.06.19c-.37,1-.7,2-1,2.81.35,0,.69,0,1,0,1.47,0,2.85.9,2.83,3.48a21.21,21.21,0,0,1-.79,6c-.63,2-1.8,2.42-2.73,2.42a8.48,8.48,0,0,1-2.18-.31c-.12,0-.17-.07-.19-.32l-.22-2.51a6.26,6.26,0,0,0,1.77.39c.56,0,.81-.11,1.07-.94a19.71,19.71,0,0,0,.63-4.61c0-1.06-.13-1.27-.91-1.27-.31,0-.72,0-1.16.08-1.18,3.35-2,6.09-3,9.52l-.19.05-2.33-.58Zm10.5-10.63,1.87-1.19h.18a17.68,17.68,0,0,1,3.4,5.55l-.07.18-2.2,1.28-.16,0a16.82,16.82,0,0,0-3-5.61Z"/><path class="d" d="M658.49,58.1l2.44.33.11.14a16.18,16.18,0,0,1-.81,3.83,16.45,16.45,0,0,0-.64,4.1,8.09,8.09,0,0,0,.11,1.78c0,.23.23.25.5,0a11.34,11.34,0,0,0,.89-1.15l.52.27a12.27,12.27,0,0,0-.83,3.73,1.15,1.15,0,0,1-1.21,1.3c-.71,0-1.13-.36-1.54-1.07a9.32,9.32,0,0,1-.89-4.62,24.48,24.48,0,0,1,.76-5.37,14.67,14.67,0,0,0,.45-3.14Zm12.8,13a28.1,28.1,0,0,1-4.15.3c-3.55,0-4.49-1.78-4.92-3.74l.09-.15,1.89-.87.16,0c.34,1.66,1,2.19,3.39,2.16a20.33,20.33,0,0,0,3.3-.38l.16.11.17,2.37Zm-7.72-11.26,1.69,0a28.65,28.65,0,0,0,5-.43l.12.1.11,2.23-.1.14a26.3,26.3,0,0,1-5.1.45c-.57,0-1.12,0-1.68,0l-.13-.16V60Z"/><path class="d" d="M681,71.57l0,.16a26.5,26.5,0,0,1-5.77,1.6c-.26,0-.42,0-.55-.16l-1.11-1.63a30.11,30.11,0,0,0,5.17-1.15h-.3l-2.37.06-.12-.16.1-2.45V63l0-.55c-.34.27-.67.54-1,.78a.37.37,0,0,1-.19.08.3.3,0,0,1-.25-.16l-1.28-1.66a14.2,14.2,0,0,0,5-5.08l.18,0,2.1.66.07.16a6.9,6.9,0,0,1-.39.6h2.23l1.64-.09,1.08.91a.43.43,0,0,1,.16.32.89.89,0,0,1-.21.46L684,60.78h1.48l2.21-.06.12.16,0,2.1v4.84l.06,2.44-.13.17-2.34,0h-.06a33.07,33.07,0,0,1,4.81,1.15l0,.16-1.32,1.56-.16,0A41.43,41.43,0,0,0,683,71.8l-.05-.13,1.25-1.29h-4.52Zm.05-10.79c.33-.42.59-.77.82-1.09H678.8c-.3.38-.63.73-.95,1.08l.46,0Zm4.08,2.64v-.81l-6.62,0v.81Zm0,2.49v-.83l-6.62,0v.83Zm0,2.53v-.87l-6.62,0v.86Z"/><path class="d" d="M693.7,57.73l2.35.26.12.15a24.59,24.59,0,0,1-.54,4,19.32,19.32,0,0,0-.53,4,9.07,9.07,0,0,0,.21,2.06c.06.21.18.23.39,0a12.27,12.27,0,0,0,1.18-1.36l.48.26a9,9,0,0,0-.75,3.21c.07,1.12-.39,1.65-1.3,1.65A2,2,0,0,1,693.68,71a9.34,9.34,0,0,1-1.07-4.78,32,32,0,0,1,.6-5.23,19.36,19.36,0,0,0,.35-3.11Zm4.5,13.64a6.13,6.13,0,0,0,3.15-2.55,6.29,6.29,0,0,0,.6-3.27c0-.54,0-1.34,0-2.15-1.17.06-2.39.08-3.68.1l-.1-.16-.06-2.15.14-.09c1.18,0,2.42,0,3.58-.12,0-1-.11-2.08-.18-3.21l.14-.11,2.42-.06.12.13c.06,1,.11,2.05.15,3.05.9-.07,1.71-.18,2.45-.27l.13.11.11,2.19-.11.12c-.77.11-1.6.22-2.5.29,0,.9.06,1.8.06,2.38,0,2.51-.33,3.85-1,4.81a6.66,6.66,0,0,1-3,2.51l-.14,0a.44.44,0,0,1-.23-.09Z"/><path class="d" d="M717.32,57.31c-.15.71-.35,1.39-.5,2,.61-.12,1.23-.27,1.85-.43l.16.07.34,1.56a14.54,14.54,0,0,1,5.45,1.36l.06.18L724,64l-.14.07a2.86,2.86,0,0,0-1.43-.3c-1.13,0-2.1.45-2.1,1.24a8.42,8.42,0,0,0,.78,2.63,16.78,16.78,0,0,1,3.86,2.25v.18L723.45,72l-.16,0a17.56,17.56,0,0,0-2.07-1.68c-.05,1.43-1.6,2.37-3.6,2.38-2.29,0-3.71-.91-3.71-2.75,0-1.66,1.41-2.82,3.29-2.83a5.47,5.47,0,0,1,1.15.09,6.23,6.23,0,0,1-.39-2.16c0-1,.93-1.76,2.39-2.21a22.36,22.36,0,0,0-2.4-.24l-.09-.12.44-1c-.76.16-1.53.32-2.31.43a31.07,31.07,0,0,1-4.15,7.78l-.17,0-2.09-1.34v-.15a23.06,23.06,0,0,0,3.55-6c-.92.09-1.85.15-2.82.17l-.14-.11-.06-2.17.12-.13c1.34,0,2.6-.12,3.8-.25a24.58,24.58,0,0,0,.66-2.93l.16-.11,2.37.4Zm-.18,11.9c-.6,0-.95.37-.95.67s.39.71,1,.71c1,0,1.59-.36,1.57-1.07A3.1,3.1,0,0,0,717.14,69.21Z"/><path class="d" d="M728,58.84l2.49.08.12.12c-.15,2-.2,3.71-.2,4.74a12.54,12.54,0,0,0,.41,3.49c.2.69.43,1.2.82,1.2s1.07-1,1.48-2.58l1.77,2.22a.37.37,0,0,1,.05.44c-.7,1.84-1.85,3.16-3.28,3.17-1.14,0-2.15-.81-2.86-2.24a13.32,13.32,0,0,1-1-5.49c0-1.43,0-3.12.11-5.05Zm8.37,3,1.69-1.36.2,0A13.37,13.37,0,0,1,743,66.18l-.05.16-2.24,1.4-.18,0a11.93,11.93,0,0,0-4.14-5.64Z"/><path class="d" d="M749.13,69.89a1.7,1.7,0,0,1-3.4,0,1.7,1.7,0,1,1,3.4,0Zm-.32-2.79H746l0-9.44h2.77Z"/><path class="d" d="M754.31,69.88a1.71,1.71,0,0,1-3.41,0,1.71,1.71,0,1,1,3.41,0ZM754,67.09h-2.77l0-9.45H754Z"/><path class="d" d="M444,57.94l-.56,3.55h1.94l.56-3.55h2.59L448,61.48H450v2.38h-2.33l-.42,2.7h1.94V69h-2.32l-.57,3.68h-2.6l.58-3.67h-1.94l-.58,3.68h-2.59l.57-3.67h-2V66.59h2.34l.42-2.7h-2V61.5h2.34l.56-3.55Zm-1.34,8.64h1.94l.4-2.7h-1.94Z"/><path class="e" d="M100,153.25l-8.69,10.6Q82.51,157,71.19,159.5a28.65,28.65,0,0,0-16.32,10q-6.45,7.83-6.17,16.94.28,9.41,7.41,14.41t17.25,2.76a25.61,25.61,0,0,0,11-5.17,25.05,25.05,0,0,0,7-10.05l-19.34,4.29-.37-11.62,33.6-7.45.18,2.72a35.77,35.77,0,0,1-4,17.17,41.38,41.38,0,0,1-11.4,14.27,40.9,40.9,0,0,1-16.81,7.78q-10.4,2.31-18.69-.28a25,25,0,0,1-13.29-9.66A29.55,29.55,0,0,1,36,189.15q-.4-12.89,8.06-24.38a44,44,0,0,1,26.71-17.36,40.63,40.63,0,0,1,16.4-.48A29.39,29.39,0,0,1,100,153.25"/><path class="e" d="M63.92,217.6a32.42,32.42,0,0,1-9.64-1.4,25.93,25.93,0,0,1-13.77-10,30.5,30.5,0,0,1-5.47-17c-.28-8.77,2.5-17.17,8.24-25A45,45,0,0,1,70.54,146.5,41.42,41.42,0,0,1,87.32,146a30.41,30.41,0,0,1,13.23,6.51.92.92,0,0,1,.35.64.91.91,0,0,1-.21.69L92,164.45a.93.93,0,0,1-1.31.14,22.19,22.19,0,0,0-19.3-4.17,27.84,27.84,0,0,0-15.8,9.71,24,24,0,0,0-6,16.31c.19,6,2.48,10.48,7,13.67s10.05,4,16.5,2.61a24.77,24.77,0,0,0,10.64-5,23.47,23.47,0,0,0,6-8l-17.53,3.89a.92.92,0,0,1-.78-.18.9.9,0,0,1-.36-.71l-.37-11.62a1,1,0,0,1,.74-1l33.6-7.45a.92.92,0,0,1,.77.17.89.89,0,0,1,.37.69l.18,2.72A36.93,36.93,0,0,1,102.3,194a42.67,42.67,0,0,1-11.65,14.59,42,42,0,0,1-17.2,8A44.43,44.43,0,0,1,63.92,217.6Zm16.45-70.34A44.63,44.63,0,0,0,44.8,165.33c-5.49,7.45-8.14,15.45-7.88,23.79a28.71,28.71,0,0,0,5.12,16,24.13,24.13,0,0,0,12.8,9.3c5.34,1.67,11.46,1.76,18.21.26a40.19,40.19,0,0,0,16.43-7.59,40.8,40.8,0,0,0,11.13-14,34.91,34.91,0,0,0,3.94-16.72l-.1-1.6-31.77,7.05.3,9.71,18.24-4.05a.94.94,0,0,1,1.07,1.27A26.14,26.14,0,0,1,85,199.2a26.71,26.71,0,0,1-11.43,5.36c-7,1.55-13.05.57-18-2.91s-7.61-8.6-7.81-15.15c-.2-6.28,2-12.19,6.39-17.57A29.58,29.58,0,0,1,71,158.59a24,24,0,0,1,20.14,4l7.5-9.16A27.9,27.9,0,0,0,87,147.86,35.69,35.69,0,0,0,80.37,147.26Z"/><polygon class="e" points="111.64 149.16 143.17 142.17 143.5 152.63 122.89 157.21 123.2 167.36 143.81 162.79 144.14 173.06 123.53 177.64 123.99 192.42 144.6 187.84 144.93 198.35 113.4 205.34 111.64 149.16"/><path class="e" d="M113.4,206.28a1,1,0,0,1-.94-.91l-1.76-56.18a1,1,0,0,1,.74-.95l31.53-7a1,1,0,0,1,.78.17,1,1,0,0,1,.36.72l.33,10.46a1,1,0,0,1-.74,1L123.85,158l.26,8.24,19.5-4.33a1,1,0,0,1,1.15.89l.32,10.27a1,1,0,0,1-.74.95l-19.85,4.41.4,12.86,19.51-4.33a1,1,0,0,1,.78.18.94.94,0,0,1,.36.71l.33,10.51a.94.94,0,0,1-.74.94l-31.52,7A.75.75,0,0,1,113.4,206.28Zm-.79-56.37,1.7,54.27L144,197.6,143.7,189l-19.51,4.32a.91.91,0,0,1-.78-.17.94.94,0,0,1-.36-.72l-.46-14.77a.92.92,0,0,1,.73-.95l19.85-4.41-.26-8.36-19.5,4.33a1,1,0,0,1-.78-.17,1,1,0,0,1-.37-.72l-.32-10.16a.94.94,0,0,1,.74-.94l19.85-4.41-.27-8.55Z"/><polygon class="e" points="151.06 148.31 178.36 142.25 178.64 151.26 169.64 153.26 170.86 192.3 161.33 194.42 160.1 155.38 151.34 157.32 151.06 148.31"/><path class="e" d="M161.33,195.36a1,1,0,0,1-.58-.2.9.9,0,0,1-.36-.71l-1.19-37.91-7.66,1.7a1,1,0,0,1-.78-.17,1,1,0,0,1-.36-.72l-.29-9a.94.94,0,0,1,.74-.94l27.31-6.06a.92.92,0,0,1,.78.18.94.94,0,0,1,.36.71l.28,9a.92.92,0,0,1-.74.94L170.6,154l1.2,38.26a.94.94,0,0,1-.73.95l-9.54,2.12Zm-1.23-40.92a.94.94,0,0,1,.58.19,1,1,0,0,1,.36.72l1.19,37.9,7.67-1.7-1.2-38.26a.94.94,0,0,1,.74-.95l8.24-1.82-.23-7.11L152,149.06l.22,7.1,7.66-1.7A.71.71,0,0,1,160.1,154.44Z"/><path class="e" d="M215.87,138.78q9.15-2,15.95,2.95T238.9,156a25.19,25.19,0,0,1-6,17,27.18,27.18,0,0,1-15.58,9.86q-9.7,2.16-16.34-3t-6.92-14.1a24.42,24.42,0,0,1,2.65-11.73,28.92,28.92,0,0,1,8-9.83,27.17,27.17,0,0,1,11.19-5.45m.16,7.83a17.21,17.21,0,0,0-9.94,6.29,16.59,16.59,0,0,0-3.76,11.2q.21,7,5.48,9.87a12.77,12.77,0,0,0,9.26,1.14,17,17,0,0,0,9.82-6.32,16.49,16.49,0,0,0,3.8-11,11.39,11.39,0,0,0-4.46-9.22,11.87,11.87,0,0,0-10.2-1.92"/><path class="e" d="M211.84,184.42a18.26,18.26,0,0,1-11.45-3.79c-4.63-3.57-7.08-8.55-7.28-14.81a25.4,25.4,0,0,1,2.75-12.18,30,30,0,0,1,8.23-10.14,28.17,28.17,0,0,1,11.58-5.64h0c6.35-1.41,12-.36,16.7,3.11s7.27,8.53,7.47,15a26.2,26.2,0,0,1-6.22,17.61,28.2,28.2,0,0,1-16.1,10.19A26.24,26.24,0,0,1,211.84,184.42Zm9.09-45.28a22.41,22.41,0,0,0-4.85.55h0a26.3,26.3,0,0,0-10.8,5.27,28.06,28.06,0,0,0-7.73,9.51A23.55,23.55,0,0,0,195,165.76c.18,5.75,2.33,10.13,6.55,13.38s9.41,4.15,15.57,2.78a26.33,26.33,0,0,0,15-9.53A24.37,24.37,0,0,0,238,156c-.19-5.93-2.38-10.36-6.7-13.53A17.07,17.07,0,0,0,220.93,139.14Zm-5.06-.36h0Zm-2.13,37.65a13,13,0,0,1-6.39-1.63c-3.8-2.11-5.81-5.69-6-10.67a17.58,17.58,0,0,1,4-11.82,18.19,18.19,0,0,1,10.48-6.62h0a12.83,12.83,0,0,1,11,2.09,12.33,12.33,0,0,1,4.83,9.94,17.52,17.52,0,0,1-4,11.66A18,18,0,0,1,217.27,176,16.2,16.2,0,0,1,213.74,176.43Zm2.49-28.9a16.34,16.34,0,0,0-9.41,6,15.76,15.76,0,0,0-3.55,10.58c.13,4.33,1.77,7.3,5,9.08a11.88,11.88,0,0,0,8.6,1,16.13,16.13,0,0,0,9.28-6,15.65,15.65,0,0,0,3.6-10.43,10.39,10.39,0,0,0-4.09-8.5,10.88,10.88,0,0,0-9.43-1.75Z"/><polygon class="e" points="240.19 138.46 247.41 136.86 257.49 160.28 266.1 132.71 273.31 131.11 261.15 169.93 254.38 171.44 240.19 138.46"/><path class="e" d="M254.38,172.38a1,1,0,0,1-.87-.57l-14.18-33a1,1,0,0,1,0-.8.94.94,0,0,1,.64-.49l7.22-1.6a.93.93,0,0,1,1.06.55l9.08,21.09,7.85-25.15a1,1,0,0,1,.7-.64l7.2-1.59a.95.95,0,0,1,1.11,1.2L262,170.22a.92.92,0,0,1-.69.63l-6.77,1.5Zm-12.87-33.25,13.42,31.22,5.48-1.22,11.51-36.75-5.08,1.13-8.46,27.06a.93.93,0,0,1-.84.66,1,1,0,0,1-.92-.57L246.85,138Z"/><polygon class="e" points="277.44 135.9 294.38 132.14 294.56 137.77 283.48 140.22 283.65 145.69 294.73 143.23 294.91 148.75 283.83 151.21 284.08 159.15 295.16 156.69 295.33 162.34 278.39 166.1 277.44 135.9"/><path class="e" d="M278.39,167a1,1,0,0,1-.58-.2.94.94,0,0,1-.36-.71l-.95-30.2a.94.94,0,0,1,.74-1l16.94-3.76a1,1,0,0,1,1.15.89l.17,5.63a.94.94,0,0,1-.73.95L284.45,141l.11,3.54,10-2.21a.92.92,0,0,1,.78.18.9.9,0,0,1,.36.71l.18,5.52a1,1,0,0,1-.74.95L284.79,152l.19,6,10-2.22a1,1,0,0,1,1.15.89l.17,5.65a.94.94,0,0,1-.73.95l-17,3.76Zm0-30.39.88,28.29,15.08-3.35-.12-3.73-10,2.21a.92.92,0,0,1-.78-.18.9.9,0,0,1-.36-.71l-.25-7.94a.93.93,0,0,1,.73-1L293.94,148l-.11-3.61-10,2.21a.91.91,0,0,1-.78-.17,1,1,0,0,1-.37-.71l-.17-5.46a.94.94,0,0,1,.74-.95L293.6,137l-.12-3.71Z"/><path class="e" d="M301.57,134.7l5.33-1.18a18,18,0,0,1,6.26-.63,4.94,4.94,0,0,1,3.07,1.87,6.53,6.53,0,0,1,1.26,3.92,8,8,0,0,1-1.11,4.52,10.07,10.07,0,0,1-3.69,3.42l6.62,10-5.5,1.22-6.29-9.57-.46.1.35,10.89-5,1.12Zm5.35,8.94,1.57-.35a7.52,7.52,0,0,0,3.29-1.35,2.75,2.75,0,0,0,.84-2.23,2.09,2.09,0,0,0-.49-1.37,2,2,0,0,0-1.23-.63,9.28,9.28,0,0,0-2.77.34l-1.38.31Z"/><path class="e" d="M302.37,161.36a1,1,0,0,1-.94-.91l-.8-25.72a.94.94,0,0,1,.73-.95l5.33-1.18c3.08-.68,5.25-.89,6.64-.63a5.81,5.81,0,0,1,3.64,2.21,7.38,7.38,0,0,1,1.46,4.47,9,9,0,0,1-1.25,5,10.42,10.42,0,0,1-3.17,3.22l6.09,9.24a1,1,0,0,1,.09.87,1,1,0,0,1-.67.56L314,158.8a.92.92,0,0,1-1-.4l-4.95-7.52.27,8.4a.94.94,0,0,1-.74.94l-5,1.12Zm.16-25.91.75,23.81,3.16-.71-.32-10.11a1,1,0,0,1,.74-.95l.46-.1a1,1,0,0,1,1,.4l5.93,9,3.54-.78-5.87-8.91a.9.9,0,0,1-.13-.73,1,1,0,0,1,.44-.6,9.16,9.16,0,0,0,3.35-3.08,7.08,7.08,0,0,0,1-4,5.61,5.61,0,0,0-1.06-3.37,4,4,0,0,0-2.5-1.52c-.77-.14-2.42-.15-5.89.62Zm4.39,9.13a.93.93,0,0,1-.58-.2.9.9,0,0,1-.36-.71l-.17-5.28a.94.94,0,0,1,.74-.95l1.37-.31a9.73,9.73,0,0,1,3.11-.35,2.89,2.89,0,0,1,1.8.93,3,3,0,0,1,.73,2,3.64,3.64,0,0,1-1.15,2.95,8,8,0,0,1-3.71,1.58l-1.58.35Zm.79-5.47.11,3.36.47-.1a6.36,6.36,0,0,0,2.85-1.12,1.84,1.84,0,0,0,.54-1.52,1.11,1.11,0,0,0-.26-.76,1,1,0,0,0-.65-.33,8.53,8.53,0,0,0-2.44.33Z"/><path class="d" d="M132.44,228.16l-3.52.87-.17-.12,0-2.65.15-.18,2.8-.58,0-1.7-.47.1-3.52.87-.17-.11,0-2.7.15-.19,3.54-.72.47-.1v-1.63L129,220l-.17-.12,0-2.65.15-.18,3.54-.72,4.87-1.1V214.1c-1.95.57-4,1.12-6.42,1.75-.32.07-.49,0-.57-.1l-1.23-2.22a111,111,0,0,0,16-4.84h.25a14,14,0,0,1,2.44,1.78l-.08.26c-2.68.93-4.82,1.64-6.77,2.28v1.42l5.12-1.15,3.54-.87.15.09,0,2.7-.15.16-2.81.58v1.63l.4-.09,3.54-.87.14.09,0,2.75-.14.16-3.55.72-.39.09v1.7l2.8-.68.15.09,0,2.7-.15.16-3.54.72-3.35.76a18.88,18.88,0,0,0,8.61,1.95L149,231.24a.52.52,0,0,1-.35.28.73.73,0,0,1-.29,0,16.16,16.16,0,0,1-7.54-3.17l.15,5.23-3.88.88.23-5a35.16,35.16,0,0,1-7.61,6.43,1.15,1.15,0,0,1-.29.15c-.13,0-.2,0-.3-.14l-2-2.21a33.67,33.67,0,0,0,8.39-6.16Zm2.57-5.1v1.73l2.4-.55,0-1.72Zm0-4.5v1.65l2.41-.54V218Zm5.82,3.18v1.73l2.66-.6v-1.72Zm0-4.5,0,1.65,2.66-.6v-1.65Z"/><path class="d" d="M158.52,206.78l3.32-.52.17.16c-.15,1.18-.26,1.78-.41,2.54s-.38,1.36-.66,2.34a5.45,5.45,0,0,1,3.46-2.7,3.24,3.24,0,0,1,3.56,1.18c1,1.26,1.42,3.22,1.4,6,0,5.17-1.94,9.15-7.76,12.45a2.46,2.46,0,0,1-.47.21.54.54,0,0,1-.46-.12l-2.52-2c5.79-2.75,7.17-5.45,7.2-10a10.25,10.25,0,0,0-.44-3.7,1.1,1.1,0,0,0-1.47-.67c-.93.21-2.12,1.76-2.6,3.11a8.21,8.21,0,0,0-.54,3.17,7.68,7.68,0,0,0,.62,3l-.13.28-3.1,1.44-.25,0a8.74,8.74,0,0,1-.95-4.13,32.57,32.57,0,0,1,1-6.37,43.4,43.4,0,0,0,.85-5.43Z"/><path class="d" d="M193.3,204.27a30.88,30.88,0,0,0,.39,4.53,29.54,29.54,0,0,0,.94-4l.24-.13,2.33.37.07.19a29.63,29.63,0,0,1-2.41,7c.44.92.71,1.26.85,1.23s.45-.65.72-3.06l1.63.93c.27.17.34.25.32.53-.3,3.24-1.36,4.65-2.89,5-.79.18-1.79-.12-2.69-1.39a31.51,31.51,0,0,1-2.58,3.11c2.56-.56,5.17-1.22,8.2-2.1l-1.48,3.68c-.1.25-.17.29-.44.35-2.05.48-4.68,1.07-6.6,1.48a28.64,28.64,0,0,1-6.9.83,6.81,6.81,0,0,1-4.9-2,16,16,0,0,1-1.11,3.87c-.1.12-.17.19-.25.2s-.12,0-.19,0l-2.1-1.6c1-2.49,1.22-5.47,1.37-9.15l.2-.22,2.38,0,.22.12c0,1-.09,1.89-.17,2.74a8,8,0,0,0,.66.87l0-5.5-1.25.28-2.83.71-.17-.11,0-2.72.14-.19,2.86-.56.83-.19,0-2h-.05l-2.83.71-.17-.11,0-2.72.15-.19,2.85-.56,0,0,0-2.85.18-.21,3-.67.15.17,0,2.8,2.43-.6.15.09,0,2.78-.15.16-2.43.49,0,2,.47-.11,2.43-.62.15.09,0,2.77-.15.16-2.44.48-.17,0v2l2.21-.57.15.09,0,2.58c.32-.23.64-.5,1-.75l.06-7.92,0-3.42.19-.19,3.81-.78.55-.12,0-3.38.18-.22,2.75-.62.15.15,0,3.37,1.18-.26.79-.21a7.69,7.69,0,0,0-1.91-1.19v-.2l1.56-1.65.27-.11a6.94,6.94,0,0,1,2.23,1.15l-.05.26-1.39,1.58,1.75-.44.14.09,0,2.66-.17.21-3.22.65Zm-5.82,13.34a31.42,31.42,0,0,0,4.06-4.86,30.89,30.89,0,0,1-1.29-7.8l-1.47.34-.05,6.73c.47-.44.94-.84,1.38-1.26l.6,2.16c.07.31,0,.4-.25.65a57.29,57.29,0,0,1-5.07,4.86l-.22,0-1.81-2,.08-.24.74-.54-1.89.35,0,3.2a8.18,8.18,0,0,0,1.62.13,28.12,28.12,0,0,0,5.29-.71Z"/><path class="d" d="M203.9,207.3l-.61-3.16.15-.23c3.35-1.2,5.79-2.2,9.65-3.95a13.87,13.87,0,0,1,1.38-.61,1.92,1.92,0,0,1,2.47,1.89,2.46,2.46,0,0,1-.68,1.63c-1.26,1.48-2.7,3.08-4.21,4.94,1.18-.49,2.78-.05,3,1.05a11.87,11.87,0,0,1,.28,2c.07,1.13.17,1.21,2.06.78a32.68,32.68,0,0,0,3.32-.95l.22.08.22,3.35-.15.25c-1.23.36-2.56.7-4.13,1.06-4.28,1-4.84,0-5-1.73-.07-.93-.11-1.82-.27-2.86-.1-.47-.32-.65-.88-.52s-.89.45-1.71,1.55c-1.39,1.84-2.66,3.77-4.27,6.38l-.27.14-3-1.43v-.25c3.67-5,6.62-8.86,9.84-12.83-2.19,1.17-4.63,2.37-7.32,3.55Zm2.82-8.77.86-3.22.2-.17a32.42,32.42,0,0,0,7.51-.64l.15.14-.64,3.44-.22.17a37.43,37.43,0,0,1-7.74.45Z"/><path class="d" d="M242.58,195.57A33.75,33.75,0,0,1,236.5,198c.06,1.68.15,3.21.28,4.7a24.55,24.55,0,0,1,7.57,2.64l0,.27L242.14,209l-.27.09a15.36,15.36,0,0,0-5.07-2.58c-.31,2.37-2.09,4.67-5.74,5.49-3.39.76-5.76-.08-5.74-3.16,0-2.6,2.74-4.88,6.08-5.63a16.59,16.59,0,0,1,1.67-.31c-.26-3.71-.44-7.06-.45-12.13l.2-.22,3.42-.77.2.13c0,1.65,0,3.18,0,4.6a30.68,30.68,0,0,0,5.39-2.31l.25.07.64,3Zm-11.72,10.88c-1.3.29-2.09,1-2.1,1.6,0,.82.8,1,2.13.69a2.37,2.37,0,0,0,2-2.46,5.67,5.67,0,0,0-2.06.17"/><path class="d" d="M250.47,197.09l-.91-3.07.13-.25c1.7-.78,3.54-1.8,5.07-2.57a17.63,17.63,0,0,1,3.35-1.45c3.15-.71,5.18,1.16,5.14,5.86-.05,6-3.21,9.34-8.39,11.83-.22.05-.29,0-.42-.11L252.13,205c4.93-2.16,7.06-4.59,7.08-7.94,0-2.83-.48-3.71-1.52-3.48a11.29,11.29,0,0,0-2.51,1.19c-1.31.7-2.89,1.55-4.49,2.36Zm2.4-9.18.94-3.33.22-.13a32.6,32.6,0,0,0,7.37-.46l.14.14-.59,3.56-.2.17a49.53,49.53,0,0,1-7.78.23Z"/><path class="d" d="M137.51,257.47a12.94,12.94,0,0,0,5.67-6.62,13,13,0,0,0-5-.29,42.76,42.76,0,0,1-2.38,5.71,5.48,5.48,0,0,1-3.79,2.88c-2.24.51-3.47-1.17-3.45-3.1,0-3.62,2.36-6.55,7.19-8.25.77-2.13,1.17-3.38,1.84-5.54-1.1.47-2.44,1.05-4,1.69l-.21-.12-.66-3,.12-.25c2.68-1.09,4.88-2,6.37-2.54a6.14,6.14,0,0,1,.83-.27c1.36-.3,2.13.29,2.13,1.38a3.52,3.52,0,0,1-.18.93c-.67,2.08-1.52,4.23-2.56,7a19.7,19.7,0,0,1,4.6.05,19.26,19.26,0,0,0,0-3l.15-.2,3.26-.27.12.2a23.39,23.39,0,0,1-.15,4,17.44,17.44,0,0,1,2.91,1.15l0,.26-1.73,3.38-.24.16a21.8,21.8,0,0,0-2.11-1,17.27,17.27,0,0,1-5.46,7,.82.82,0,0,1-.65,0ZM131.69,255c0,.52.14.73.44.66s.61-.36.9-1c.38-.82.7-1.59,1.32-3.24a4.18,4.18,0,0,0-2.66,3.55"/><path class="d" d="M162.42,232.22l3.23.66.07.25c-1.58,3.25-2.89,5.75-4.2,8.47a4.5,4.5,0,0,1,1.9-1c2.39-.53,3.67.69,3.68,2.69,0,1.53,0,3-.08,3.73s.07,1.17.68,1c1.51-.34,3.25-2.46,5.06-6.73l2.15,2.46c.24.3.26.41,0,.91-2.06,4.32-4.65,6.71-7.45,7.34s-4.19-.37-4.17-2.82c0-1.09.15-2.73.16-4s-.26-1.55-1.06-1.37c-1.22.27-2.18,1.58-3,3.22a72.08,72.08,0,0,0-3,7.26l-.24.15-3.26-.48-.07-.25c3-7.52,6.17-14.43,9.33-21.37Z"/><path class="d" d="M188.54,226.46c-.23,1-.5,2.07-.73,3,.85-.36,1.71-.75,2.56-1.17l.22,0,.45,2.08a18.16,18.16,0,0,1,7.51.23l.07.24-1,3-.19.14a3.75,3.75,0,0,0-2,0c-1.56.35-2.91,1.27-2.92,2.38a9.9,9.9,0,0,0,1,3.45,17.8,17.8,0,0,1,5.28,2v.25l-2.07,3.13-.21.08a16.6,16.6,0,0,0-2.84-1.71c-.08,2-2.24,3.82-5,4.43-3.17.72-5.11-.13-5.09-2.71,0-2.33,2-4.4,4.59-5a8.32,8.32,0,0,1,1.58-.23,7.69,7.69,0,0,1-.51-2.9c.06-1.35,1.31-2.77,3.33-3.85a30.18,30.18,0,0,0-3.31.4l-.12-.14.62-1.55c-1.05.46-2.12.92-3.19,1.31a57.93,57.93,0,0,1-5.84,12.2l-.24.1-2.86-1.23v-.23a43.65,43.65,0,0,0,5-9.48c-1.26.41-2.55.77-3.9,1.1l-.19-.11-.05-3,.17-.21c1.85-.46,3.59-1,5.25-1.52.39-1.48.72-2.91.95-4.32l.22-.2,3.26-.17Zm-.42,16.77a1.59,1.59,0,0,0-1.33,1.23c0,.6.53.88,1.41.68,1.39-.32,2.2-1,2.18-2a4,4,0,0,0-2.26.07"/><path class="d" d="M211.67,239.38c5.24-2.07,7.62-5.15,7.65-8.12,0-3.77-2-5.69-4.48-5.65A33.4,33.4,0,0,1,211,238c-1.33,2.26-2.7,3.28-4.6,3.71a3,3,0,0,1-3.42-1.43,6.62,6.62,0,0,1-1.16-4.22A14.16,14.16,0,0,1,213,222.71c6.65-1.5,10.18,2.23,10.13,7.73,0,4.51-3.17,8.63-8.35,11-.34.1-.51.14-.78-.08Zm-6.49-4.08a3.18,3.18,0,0,0,.4,1.79c.26.44.6.68,1,.6.56-.13,1.27-.86,1.94-2.34a30,30,0,0,0,2.48-9,9.66,9.66,0,0,0-5.81,8.92"/><path class="d" d="M231.2,224.08l-4.15,1-.17-.16,0-2.9.19-.19,4.12-.86,3-.68c.06-1.35.07-2.89.09-4.65l.17-.21,3.63-.82.17.14c0,1.73,0,3.28-.11,4.65l4.09-.92,4.24-1,.2.13c-.14,5.52-.27,9.83-.68,13-.42,3.31-2.16,5-5,5.67l-1.63.37c-.42.09-.59,0-.71-.31l-1.41-3.1c1.32-.22,2.07-.39,3-.62,1.22-.3,1.78-.9,2-2.91s.41-5,.46-8.19L238,222.54c-.35,4.68-1,6.86-2.23,9.11a19.76,19.76,0,0,1-6.87,7.46,1.68,1.68,0,0,1-.32.17.43.43,0,0,1-.24-.07l-2.61-1.81a17.29,17.29,0,0,0,6.54-6.64c1-1.81,1.51-3.61,1.81-7.34Z"/><path class="d" d="M251.56,220.76l-.78-3.09.09-.22c6.82-3.22,12.26-5.58,19.14-8.39l.22.07.68,3.14-.18.26c-2.7.81-5.07,1.84-6.56,3.41-2.28,2.37-3.57,4.91-3.59,7.24,0,1.9.91,2.69,2.34,2.81a20.16,20.16,0,0,0,5.82-.77l.17.14-.22,3.81-.2.19a18.4,18.4,0,0,1-7.69.59c-2.4-.49-3.9-2.23-3.87-5.6a12.16,12.16,0,0,1,3.32-7.73c-2.4,1.14-5,2.42-8.48,4.19ZM267,217.33l1.27-1.2.24-.08a11.05,11.05,0,0,1,2.47,2.07l0,.25-1.34,1.27-.25.06a10.87,10.87,0,0,0-2.39-2.14Zm2.3-2.07,1.25-1.2.24-.08a10.38,10.38,0,0,1,2.39,2l0,.25-1.28,1.23-.24.06a10.31,10.31,0,0,0-2.37-2Z"/><path class="d" d="M280.62,220.28a3.41,3.41,0,0,1,.88,2.76,5.71,5.71,0,0,1-1.25,3.25,4.79,4.79,0,0,1-2.72,1.8,2.64,2.64,0,0,1-2.58-.61,3.37,3.37,0,0,1-.88-2.76,5.69,5.69,0,0,1,1.24-3.25,4.77,4.77,0,0,1,2.72-1.79,2.66,2.66,0,0,1,2.59.6M283.53,163c.82.81,1.18,2.21,1.06,4.2q-.16,2.72-1,8.23c-.59,3.89-1.17,7.87-1.77,11.95q-1,7.64-1.6,13.7l-.58,9.61-2.12.48.57-9.61q.12-6.25,0-13.34c-.11-4.12-.22-7.95-.36-11.47s-.15-6.19,0-8a8.41,8.41,0,0,1,1.6-4.81,3.73,3.73,0,0,1,2.17-1.37,2.13,2.13,0,0,1,2.07.42"/><line class="f" x1="122.31" y1="219.77" x2="143.05" y2="215.1"/><rect class="d" x="122.05" y="217.1" width="21.26" height="0.66" transform="translate(-44.48 34.41) rotate(-12.68)"/><line class="f" x1="124.07" y1="221.63" x2="144.82" y2="216.96"/><rect class="d" x="123.81" y="218.96" width="21.26" height="0.66" transform="translate(-44.84 34.85) rotate(-12.68)"/><line class="f" x1="123.39" y1="223.66" x2="144.13" y2="218.99"/><rect class="d" x="123.13" y="220.99" width="21.27" height="0.66" transform="translate(-45.31 34.75) rotate(-12.68)"/><line class="f" x1="252.65" y1="199.82" x2="273.39" y2="195.15"/><rect class="d" x="252.39" y="197.15" width="21.26" height="0.66" transform="translate(-36.92 62.53) rotate(-12.68)"/><line class="f" x1="254.42" y1="201.67" x2="275.16" y2="197"/><rect class="d" x="254.16" y="199.01" width="21.27" height="0.66" transform="translate(-37.29 62.96) rotate(-12.68)"/><line class="f" x1="253.73" y1="203.71" x2="274.48" y2="199.04"/><rect class="d" x="253.47" y="201.04" width="21.27" height="0.66" transform="translate(-37.75 62.86) rotate(-12.68)"/><line class="f" x1="259.23" y1="226.75" x2="279.97" y2="222.08"/><rect class="d" x="258.97" y="224.08" width="21.26" height="0.66" transform="translate(-42.67 64.63) rotate(-12.68)"/><line class="f" x1="261" y1="228.6" x2="281.74" y2="223.93"/><rect class="d" x="260.74" y="226.09" width="21.26" height="0.35" transform="translate(-42.92 64.83) rotate(-12.63)"/><line class="f" x1="260.31" y1="230.64" x2="281.06" y2="225.97"/><rect class="d" x="260.05" y="227.97" width="21.26" height="0.66" transform="translate(-43.5 64.96) rotate(-12.68)"/><path class="d" d="M918.89,288.77v2.42a26.78,26.78,0,0,0-5.57,14.75h-4.1a26.44,26.44,0,0,1,5.62-13.65h-8v-3.52Z"/><path class="d" d="M928.23,298.54l4.89,7.4h-4.49l-2.86-4.8-.93,1v3.83H921.1V288.33h3.74v7.77a13.32,13.32,0,0,1-.33,3.15h.11a16.48,16.48,0,0,1,1.94-3.13l2.05-2.73h4.51Z"/><path class="d" d="M938,295.09a3.89,3.89,0,0,1,3.61-1.92,3.23,3.23,0,0,1,3.39,2.36,4,4,0,0,1,4-2.36c2.27,0,4,1.34,4,4.27v8.5h-3.75v-7.71c0-1.69-.55-2.28-1.74-2.28s-1.93.66-1.93,2.28v7.71h-3.75v-7.71c0-1.69-.52-2.28-1.74-2.28s-1.91.66-1.91,2.28v7.71h-3.74V293.39H938v1.7Z"/><path class="d" d="M959.86,295.42a31.9,31.9,0,0,0,5.38.13c0-.71,0-1.41-.07-2.12a39.25,39.25,0,0,1-4.85,0l-.15-.2.07-2.44.17-.13a44,44,0,0,0,4.74,0c0-.91,0-1.83,0-2.84l.15-.18h3l.15.18c0,.86-.05,1.74-.07,2.55a33.59,33.59,0,0,0,3.35-.62l.18.18.28,2.29-.15.18a33.89,33.89,0,0,1-3.66.75c0,.7,0,1.38,0,2.09a32.21,32.21,0,0,0,4.07-.91l.2.14.35,2.49-.11.19a36.85,36.85,0,0,1-4.42.95c0,1,.08,2,.15,2.93a25.19,25.19,0,0,1,6.14,3.72V305l-1.93,2.33h-.25a24.56,24.56,0,0,0-4-3.06c-.14,2.38-2,3.31-5.13,3.31-2.1,0-4.56-.95-4.56-3.53,0-3,3.19-3.72,6.54-3.56-.05-.66-.09-1.35-.11-2a35.57,35.57,0,0,1-6-.11l-.13-.17.42-2.58Zm3.94,7.5c-1.14,0-1.89.49-1.89.88s.46.93,1.89.93c1.24,0,1.68-.55,1.59-1.54a3.53,3.53,0,0,0-1.59-.27"/><path class="d" d="M977.51,295.81l-.73-2.9.09-.18c6.14-1.5,11-2.51,17.26-3.63l.2.11.64,2.93-.16.19c-2.44.18-4.58.62-5.92,1.72a7.53,7.53,0,0,0-3.19,5.73,2.8,2.8,0,0,0,2.13,3,18.54,18.54,0,0,0,5.27.48l.15.16-.18,3.34-.17.14a17.64,17.64,0,0,1-7-1c-2.18-.92-3.55-2.77-3.55-5.77a8.37,8.37,0,0,1,3-6.21c-2.16.53-4.52,1.15-7.64,2Zm13.94.05,1.14-.82.22,0a13.81,13.81,0,0,1,2.25,2.33l0,.22-1.21.86h-.22a14,14,0,0,0-2.18-2.38Zm2.06-1.39,1.13-.82.22,0A13.81,13.81,0,0,1,997,295.9l0,.22-1.15.84h-.22a13,13,0,0,0-2.16-2.29Z"/><path class="d" d="M1005.65,293.36a6.46,6.46,0,0,0,0,10.81l-.33.4a6.82,6.82,0,0,1,0-11.61Z"/><path class="d" d="M1012.68,294v1.31a14.54,14.54,0,0,0-3,8h-2.22a14.33,14.33,0,0,1,3-7.39h-4.33V294Z"/><path class="d" d="M1017.26,299.29l2.65,4h-2.43l-1.55-2.59-.5.52v2.07h-2v-9.53h2V298a7.16,7.16,0,0,1-.18,1.71h.06a8.54,8.54,0,0,1,1.05-1.69l1.11-1.48h2.44Z"/><path class="d" d="M1022.07,297.42a2.09,2.09,0,0,1,1.95-1,1.76,1.76,0,0,1,1.84,1.27,2.19,2.19,0,0,1,2.17-1.27,2.06,2.06,0,0,1,2.17,2.31v4.6h-2v-4.17c0-.92-.3-1.24-.94-1.24s-1,.36-1,1.24v4.17h-2v-4.17c0-.92-.28-1.24-.94-1.24s-1,.36-1,1.24v4.17h-2V296.5H1022v.92Z"/><path class="d" d="M1033.6,293.9l.08-.08,1.53,0,.08.07.17,6.82c1-.43,1.86-.86,2.79-1.33l.18,1.3c0,.14,0,.19-.16.26a54.87,54.87,0,0,1-5.22,2.5h-.12l-.78-1.3.06-.12c.56-.2,1.08-.39,1.58-.6Zm8.81-.17c0,4.28-.26,6-1,7.36a13.37,13.37,0,0,1,2,2.18l0,.12-1.17,1-.12,0a15.25,15.25,0,0,0-1.61-2,7.06,7.06,0,0,1-3.67,2.13.32.32,0,0,1-.33-.08l-1.13-1.11c2-.53,3.55-1.33,4.41-2.72.72-1.16,1-2.54.91-7l.08-.08,1.57.12Zm-5.19.66.12,0a8.75,8.75,0,0,1,2.21,2l0,.12-1.07,1.05-.12,0a8.82,8.82,0,0,0-2.09-2.09l0-.13Z"/><polygon class="d" points="1051.96 296.74 1053.59 296.7 1053.66 296.76 1053.66 298.26 1053.59 298.32 1051.96 298.29 1049.97 298.29 1049.97 302.37 1052.89 302.37 1054.76 302.33 1054.83 302.39 1054.83 303.89 1054.75 303.97 1052.89 303.94 1045.91 303.94 1044.06 303.97 1043.97 303.9 1043.97 302.39 1044.04 302.33 1045.91 302.37 1048.12 302.37 1048.12 293.38 1048.2 293.28 1049.88 293.28 1049.97 293.36 1049.97 296.74 1051.96 296.74"/><path class="d" d="M1056.87,294l1.62.22.08.11a13.28,13.28,0,0,1-.47,2.69,15.37,15.37,0,0,0-.44,3.37,3.16,3.16,0,0,0,.07.73c.06.24.13.27.36,0a4.14,4.14,0,0,0,.59-.75l.36.19a8.7,8.7,0,0,0-.62,2.62.75.75,0,0,1-.78.8,1.29,1.29,0,0,1-1-.52,5,5,0,0,1-.68-2.83,21.12,21.12,0,0,1,.43-4.18,12.92,12.92,0,0,0,.35-2.43Zm8.36,9.34a8.08,8.08,0,0,0-1.2-1.17c-.22,1.12-1,1.59-2.31,1.59s-2.38-.54-2.38-1.86a2,2,0,0,1,2.28-1.9,4.35,4.35,0,0,1,.75.05c0-.75-.06-1.55-.08-2.43-.83.06-1.7.08-2.51.09l-.08-.09,0-1.45.09-.08c.87,0,1.69,0,2.5-.07,0-.59,0-1.25,0-1.92l.09-.1h1.57l.1.09c0,.61,0,1.21,0,1.78.49-.06,1-.13,1.45-.21l.12.06.22,1.45-.08.09c-.48.09-1.07.17-1.7.23,0,1.07.06,2.09.12,3a6.54,6.54,0,0,1,2.19,1.48v.13l-.93,1.24Zm-3.65-2c-.47,0-.73.19-.73.44s.18.41.76.41.77-.23.74-.74a2,2,0,0,0-.77-.11"/><path class="d" d="M1069.87,297.63c-.75.11-1.5.18-2.29.22l-.08-.08-.08-1.44.09-.08c.82,0,1.61-.1,2.36-.2V294l.1-.08h1.55l.08.07,0,1.82c.5-.11.94-.22,1.4-.36l.1.06.15,1.45-.08.09c-.54.12-1.07.25-1.6.35v1.15a7.74,7.74,0,0,1,2.5-.52c2,0,3,1.23,3,2.57a2.69,2.69,0,0,1-3,2.81,3,3,0,0,1-1.71-.41.19.19,0,0,1-.06-.21l.37-1.45a3.11,3.11,0,0,0,1.3.34c.69,0,1.22-.4,1.22-1.09s-.47-1-1.29-1a5,5,0,0,0-2.28.64v2.67c0,.66-.37,1.11-1.27,1.11s-3-1-3-2.22c0-.73,1.19-2,2.54-2.62Zm0,3.2c-.52.31-.87.64-.87.81s.54.51.73.51.14-.06.14-.23Zm4.33-4.64.85-1.25.13,0a6.69,6.69,0,0,1,2.76,1.64l0,.13-.9,1.26-.13,0a6.5,6.5,0,0,0-2.69-1.7Z"/><path class="d" d="M1082.26,300.45a8.24,8.24,0,0,0,1.42,1.1,5,5,0,0,0,1.33-1.21h-2.68l-1.93,0-.07-.09v-1.33l.07-.06,1.93,0h3.54l.73,0,.63.58c.08.07.12.11.12.17a.5.5,0,0,1-.07.19,7.2,7.2,0,0,1-2,2.44,14.44,14.44,0,0,0,4,.53l-.88,1.45c-.07.12-.19.14-.37.13a11.76,11.76,0,0,1-4.39-1.09,13.17,13.17,0,0,1-4.26,1.18c-.15,0-.28,0-.37-.14l-.79-1.22a15.4,15.4,0,0,0,3.9-.77,11.57,11.57,0,0,1-1.19-1.09v-.13l1.24-.66Zm5.61-5.43,0,.11a14.12,14.12,0,0,1-1,1.6h.07l2,0,.09.08,0,.91V298l.06,1.39h-1.73v-1.26h-7.31v1.26h-1.7l.06-1.39v-.35l0-.91.09-.08,1.92,0a5.73,5.73,0,0,0-.58-1.08l0-.1.91-.39-1.34.08c-.16,0-.24,0-.27-.1l-.71-1.28a60.61,60.61,0,0,0,8.87-.81l.12,0a8.08,8.08,0,0,1,1.29,1.18l0,.12-2.08.25Zm-4.22-.08c-.8.07-1.6.14-2.39.19a4.63,4.63,0,0,1,.7,1.06l0,.12-.93.42h2.33l-.07,0a5.25,5.25,0,0,0-.62-1.31l0-.1Zm1.54,1.79a12,12,0,0,0,1-2.06c-.68.09-1.37.16-2.06.23a3.79,3.79,0,0,1,.72,1.19l0,.11-1.31.53Z"/><path class="d" d="M1092.69,304.49H1091l.06-3.69v-1.57a8.49,8.49,0,0,1-.66,1,.21.21,0,0,1-.16.09c-.06,0-.1,0-.13-.12l-.63-1.52a17.89,17.89,0,0,0,2.54-5.57l.1-.06,1.48.43,0,.11a25.53,25.53,0,0,1-.93,2.74Zm4.58-11.28.09-.1h1.53l.11.09v2.66h.2l1.57,0,.07.06v1.42l-.07.06-1.57,0h-.2V300l0,2.59c0,1.41-.58,1.8-2.62,1.8-.24,0-.26,0-.31-.14l-.67-1.54c.56,0,1.3,0,1.51,0s.32-.1.32-.39v-5h-2.45l-1.63,0-.08-.07v-1.4l.07-.07,1.64,0h2.45Zm-2.45,4.84h.14a11.33,11.33,0,0,1,1.61,2.1l0,.12-1.3.89-.12,0a13,13,0,0,0-1.49-2.17v-.12Z"/><path class="d" d="M1101.88,297.81l-.39-1.57,0-.1c3.32-.81,6-1.36,9.34-2l.11.06.35,1.59-.09.11a5.7,5.7,0,0,0-3.2.93,4.07,4.07,0,0,0-1.73,3.1,1.52,1.52,0,0,0,1.15,1.61,10.25,10.25,0,0,0,2.85.26l.09.08-.1,1.81-.09.08a9.72,9.72,0,0,1-3.77-.55,3.11,3.11,0,0,1-1.92-3.13,4.52,4.52,0,0,1,1.6-3.36c-1.17.29-2.45.62-4.14,1.1Zm7.55,0,.62-.44h.12a7.61,7.61,0,0,1,1.21,1.26v.12l-.65.47h-.12a8,8,0,0,0-1.18-1.29Zm1.12-.75.61-.44h.12a7.26,7.26,0,0,1,1.18,1.23V298l-.62.45h-.12a7.61,7.61,0,0,0-1.17-1.24Z"/><path class="d" d="M1114.34,297.94a11.54,11.54,0,0,0,3.7-.52c-.19-.34-.39-.66-.61-1a15,15,0,0,1-3.06.44l-.1-.09-.28-1.31,0-.09a13.52,13.52,0,0,0,2.46-.34c-.24-.34-.51-.7-.81-1.09v-.12l1.54-.53.12.05c.3.39.57.8.86,1.21a13.41,13.41,0,0,0,1.89-.88l.12,0,.73,1.24v.12a18.9,18.9,0,0,1-1.85.84c.17.29.31.5.56.91a14.21,14.21,0,0,0,1.83-1h.11l.84,1.24,0,.12c-.61.38-1.36.77-1.91,1.05.3.53.58,1,.82,1.48a1.74,1.74,0,0,1,.22.85,1,1,0,0,1-1,1,1.06,1.06,0,0,1-.57-.21,5.65,5.65,0,0,0-1.93-.8l0-.36c.4,0,.77-.09,1.27-.16.08,0,.12-.06.07-.16l-.54-1a12,12,0,0,1-4.21.58l-.08-.06-.3-1.36Zm-.22,4.23,1-1.06h.11c.83.93,2.22,1.17,3.76,1.17a13.13,13.13,0,0,0,1.36-.07l.1.1,0,1.65-.09.09c-.59,0-1,0-1.46,0-2.5,0-3.86-.64-4.8-1.81Z"/><path class="d" d="M1126,297.6a17.47,17.47,0,0,0,2.91.07c0-.38,0-.77,0-1.15a20.82,20.82,0,0,1-2.62,0l-.09-.11,0-1.32.09-.07a24.43,24.43,0,0,0,2.57,0c0-.49,0-1,0-1.54l.08-.1h1.61l.09.1c0,.47,0,.94,0,1.38.66-.09,1.26-.2,1.81-.33l.1.1.15,1.24-.08.09a18.27,18.27,0,0,1-2,.41c0,.38,0,.75,0,1.13a18.33,18.33,0,0,0,2.21-.49l.11.07.19,1.35-.06.11a21.44,21.44,0,0,1-2.4.51c0,.56,0,1.08.09,1.58a13.81,13.81,0,0,1,3.32,2v.12l-1,1.26h-.13a13.1,13.1,0,0,0-2.17-1.66c-.07,1.29-1.11,1.79-2.78,1.79-1.13,0-2.46-.51-2.46-1.91,0-1.62,1.73-2,3.54-1.93,0-.35,0-.72-.06-1.08a19.1,19.1,0,0,1-3.22-.06l-.07-.1.22-1.39Zm2.13,4.06c-.62,0-1,.26-1,.48s.25.5,1,.5.91-.3.86-.84a2,2,0,0,0-.86-.14"/><path class="d" d="M1137.92,294.83l.1-.08h1.54l.1.08v2.11c.85-.17,1.74-.33,2.59-.48,0-.94,0-1.89,0-2.67l.09-.08h1.6l.08.08c0,.73,0,1.56,0,2.4.63-.11,1.3-.19,1.94-.28l.11.08.19,1.45-.1.1c-.75.08-1.49.16-2.17.26-.06,1.91-.24,2.35-.5,2.64a1.62,1.62,0,0,1-1.39.64A4.57,4.57,0,0,1,1141,301c-.13,0-.16-.08-.18-.17l-.25-1.47a5,5,0,0,0,1.12.16c.22,0,.33-.06.39-.17a3.61,3.61,0,0,0,.15-1.24c-.86.13-1.73.31-2.59.48V301c0,.75.16.89,1.54.89a26.28,26.28,0,0,0,3.76-.3l.09.09.11,1.63-.08.11a29.12,29.12,0,0,1-3.82.2c-2.55,0-3.31-.62-3.31-2.22V299l-1.91.52-.13,0-.38-1.43,0-.11,2.36-.57Z"/><path class="d" d="M1151.71,293.66l1.59.67,0,.13c-.76,1.39-1.39,2.46-2,3.62a1.73,1.73,0,0,1,.93-.26,1.65,1.65,0,0,1,1.81,1.69c0,.74,0,1.45,0,1.79s0,.58.34.58c.74,0,1.58-.84,2.45-2.7l1.06,1.42a.32.32,0,0,1,0,.44c-1,1.86-2.26,2.73-3.63,2.73s-2-.63-2-1.81c0-.53.06-1.3.06-1.93s-.13-.78-.52-.78c-.6,0-1.06.53-1.46,1.23a27.43,27.43,0,0,0-1.45,3.17l-.12.05-1.6-.58,0-.14c1.46-3.29,3-6.28,4.49-9.28Z"/><path class="d" d="M1158.71,293a6.83,6.83,0,0,1,0,11.61l-.33-.41a6.45,6.45,0,0,0,0-10.8Z"/><g class="g"><rect class="h" x="909.94" y="78.21" width="248.54" height="67.73"/></g><g class="i"><rect class="j" x="905.9" y="127" width="61.61" height="154.2"/></g><g class="k"><g class="l"><g class="m"><rect class="n" x="905.9" y="127" width="8.08" height="154.2"/></g></g></g><g class="o"><rect class="p" x="971.19" y="127" width="61.61" height="154.2"/></g><g class="k"><g class="q"><g class="r"><rect class="s" x="971.19" y="127" width="8.08" height="154.2"/></g></g></g><g class="t"><rect class="u" x="1036.47" y="127" width="61.61" height="154.2"/></g><g class="k"><g class="v"><g class="w"><rect class="x" x="1036.48" y="127" width="8.07" height="154.2"/></g></g></g><g class="y"><rect class="z" x="1101.76" y="127" width="61.61" height="154.2"/></g><g class="k"><g class="aa"><g class="ab"><rect class="ac" x="1101.76" y="127" width="8.08" height="154.2"/></g></g></g><polygon class="e" points="950.75 234.33 959.94 234.33 959.94 242.27 947.66 242.27 945.74 247.28 959.94 247.28 959.94 255.21 945.41 255.21 945.41 269.25 929.96 269.25 929.96 255.21 915.51 255.21 915.51 247.28 929.71 247.28 927.79 242.27 915.51 242.27 915.51 234.33 924.7 234.33 912.92 204.1 928.79 204.1 938.23 237.01 946.66 204.1 962.53 204.1 950.75 234.33"/><path class="e" d="M999.23,268.69a.66.66,0,0,1-.74-.75V194q-2.87,2.12-5.73,4.26c-1.9,1.43-3.81,2.84-5.72,4.2a.71.71,0,0,1-.81.1.77.77,0,0,1-.37-.72v-13.5A.74.74,0,0,1,986,188a.91.91,0,0,1,.22-.31L999,178.45h13a.66.66,0,0,1,.75.75v88.74a.66.66,0,0,1-.75.75Z"/><path class="e" d="M1041.36,203.9q0-12.56,7.9-19.35a26.46,26.46,0,0,1,18-6.9,25.92,25.92,0,0,1,9.55,1.77,29.35,29.35,0,0,1,8.43,5.13,22.69,22.69,0,0,1,5.94,8.31,28.34,28.34,0,0,1,2,11v39.15q0,12.51-8,19.35a27,27,0,0,1-36,0q-7.9-6.78-7.9-19.35Zm37.65.75q0-6-3.21-9.43a12.45,12.45,0,0,0-17.08,0q-3.17,3.41-3.17,9.43V242.3q0,6.1,3.17,9.46a12.53,12.53,0,0,0,17.08,0q3.21-3.36,3.21-9.46Z"/><path class="e" d="M1106.65,203.9q0-12.56,7.9-19.35a26.43,26.43,0,0,1,18-6.9,26,26,0,0,1,9.56,1.77,29.63,29.63,0,0,1,8.43,5.13,22.92,22.92,0,0,1,5.94,8.31,28.34,28.34,0,0,1,2,11v39.15q0,12.51-8,19.35a27,27,0,0,1-36,0q-7.9-6.78-7.9-19.35Zm37.64.75q0-6-3.2-9.43a11.23,11.23,0,0,0-8.56-3.39,11.11,11.11,0,0,0-8.52,3.39q-3.18,3.41-3.18,9.43V242.3q0,6.1,3.18,9.46a11.16,11.16,0,0,0,8.52,3.36,11.28,11.28,0,0,0,8.56-3.36q3.21-3.36,3.2-9.46Z"/><path class="e" d="M932.35,146.91h.51l3.16-.09.29.24-.08,4.21v8.14l.14,8.73h-3.69v-1.9h-7v2.14h-3.46l.15-10.79v-6.32l-.09-4.24.21-.21,3.16.09h.3V144.8h-1l-3.31.09-.21-.18v-3l.18-.18,3.34.09h8.37l3.34-.09.18.15v3.07l-.18.15-3.34-.09h-.92Zm-.69,10c-1.93,0-2.2-.92-2.2-3v-4.14h-.69v1.25c0,4.05-.39,5.45-1.67,6.65-.12.12-.18.18-.27.18s-.2-.12-.35-.33l-.84-1.1v2.29h7V156.9Zm-6-1.37c.75-.8.87-1.94.87-4.41v-1.31h-.87Zm0,7.48h7v-1.16h-7Zm3.82-18.21h-.69v2.11h.69Zm2.29,8.23c0,.5.06.56.63.56h.3v-3.78h-.93Zm10.11,1.73v8.52c0,1.17.18,1.22,1.64,1.22,1.79,0,2.18-.32,2.36-3.78l3.63,1.25c.3.12.3.21.3.51-.12,2.68-.57,4-1.37,4.71s-1.7,1.28-5.28,1.28c-4.5,0-5.48-.51-5.48-3.82l.06-5.39v-4.53l-.09-3.46.21-.21,3.22.09h3.37v-5.93H941.2l-3.45.06-.21-.24v-3.31l.24-.18,3.54.09h3.31l3.82-.09.24.24-.09,3.66v4.86l.09,4.33-.27.21-3.49-.09Z"/><path class="e" d="M1014.68,167.93c-.12.3-.21.3-.53.3-2.48.09-5,.15-7.28.15-2.62,0-5-.06-6.92-.21-2.53-.18-5.06-.74-6.85-2.92-1.11.95-2.3,2-3.49,3.1l-.27-.12-2.12-3.49.09-.26c1.37-.87,2.48-1.53,3.67-2.18v-6.56h-.54l-2.47.09-.21-.18v-3.4l.18-.18,2.5.09H991l3.85-.09.21.21-.09,4.47V162c.92,2,3.39,2.45,6.46,2.59,3.7.15,9.84-.11,15-.5Zm-22.06-20.24h-.39a22.05,22.05,0,0,0-4.11-4.08l0-.24,2.59-2.12.36.06a21.88,21.88,0,0,1,4.26,3.7l0,.32Zm18.69,1.46c-.21.66-.41,1.31-.68,1.94h.09l4-.09.18.15v2.74l-.18.15-4-.09h-3.34v1.16h2.53l3.67-.09.18.15v2.75l-.18.15-3.67-.09h-2.53v1.19h4.35l3.82-.09.17.15v2.86l-.17.15-3.82-.09h-4.26l.06,1.88h-4.42l.06-1.88h-3.54l-3.82.09-.21-.18v-2.8l.18-.18,3.85.09h3.66V158h-2.17l-3.67.09-.21-.18V155.2l.18-.18,3.7.09h2.17V154h-2.92l-4,.09-.21-.18v-2.68l.18-.18,3.78.09c-.18-.66-.38-1.31-.59-1.94l-4,.09-.21-.18v-2.71l.18-.18,4.15.09h3.54V145.1h-2.41l-3.64.09L997,145v-2.75l.18-.18,3.67.09h2.41v-1.46l.21-.24h3.67l.24.21v1.49h2.38l3.67-.09.18.15V145l-.18.15-3.67-.09h-2.38v1.16h4l4.15-.09.18.15v2.77l-.18.15-4.15-.09Zm-7.81,0c.21.63.39,1.28.54,1.94h2.74c.21-.63.39-1.28.57-1.94Z"/><path class="e" d="M1057.6,152.67l-3.31.09-.21-.18v-3.25l.18-.18,3.34.09h1.19v-8.71l.15-.17h3.49l.18.17v8.71h1.25l2.83-.09.15.15v3.31l-.15.15-2.83-.09h-1.25v2.5l1.22-.89h.3a20.88,20.88,0,0,1,3.13,3.37l0,.3-2.45,2-.3,0a22.4,22.4,0,0,0-1.87-2.68v1.43l.21,10.23h-4.21l.3-11a29,29,0,0,1-2.83,5.69.52.52,0,0,1-.39.27c-.15,0-.3-.12-.42-.33l-1.88-2.89a36.21,36.21,0,0,0,4.51-8Zm-1-9.93.29.09a24.29,24.29,0,0,1,1.61,4.5l-.17.27-2.51,1-.21-.18a38.73,38.73,0,0,0-1.52-4.53l.12-.29Zm10.49.81.12.35a30.24,30.24,0,0,1-1.58,4.24c-.09.21-.18.3-.3.3a.78.78,0,0,1-.33-.09l-2.26-.87a35.55,35.55,0,0,0,1.34-4.92l.33-.09Zm8.2-2.93.21-.2h3.81l.21.2v14.94l2-.57.3.06.63,3.55-.18.24-2.72.66.12,9.39h-4.53l.12-8.29-3.55.89-3.94,1-.26-.09-.72-3.64.18-.24,4-.83,4.27-1.05Zm-3.07,14.46-.3.09a21.37,21.37,0,0,0-4.32-2.77l0-.3,2.05-2.59.3-.09a24.21,24.21,0,0,1,4.29,2.38l.06.3Zm.51-6.67-.3,0a16.21,16.21,0,0,0-4.12-3.23v-.29l2.33-2.33.3,0a17.85,17.85,0,0,1,4.14,2.83v.3Z"/><path class="e" d="M1136.06,155.23h4.77l4.23-.09.18.15v3.34l-.18.15-4.23-.09h-4.77v5.46h3.54l-2.17-.9a29.17,29.17,0,0,0,2.08-4.29l.27-.15,3.7,1.34.09.33a29.58,29.58,0,0,1-2.42,3.67h2.3l3.94-.09.17.15v3.37l-.17.14-3.94-.08h-18.66l-3.91.08-.21-.17v-3.31l.18-.18,3.94.09h1.9a21.76,21.76,0,0,0-1.72-3.7l.08-.27,3.13-1.16.33.12a20.64,20.64,0,0,1,2,3.61l-.09.29-2.77,1.11h4.17v-5.46h-4.56l-4.2.09-.21-.18v-3.28l.18-.18,4.23.09h4.56v-2.08h-1l-3.31.08-.21-.17v-1.37c-1.25.86-2.56,1.69-4,2.47a1.28,1.28,0,0,1-.56.18.72.72,0,0,1-.51-.27l-2.68-2.68c5.6-2.72,9.6-6.06,12.46-11.06l.33-.09,4.23,1.13.09.3c-.15.24-.3.47-.48.71a30.21,30.21,0,0,0,12.53,8l-2.6,3c-.32.39-.59.57-.86.57a1.1,1.1,0,0,1-.48-.15c-1.37-.74-2.71-1.52-4-2.35v1.67l-.18.14-3.34-.08h-1.22Zm2.26-5.54a30,30,0,0,1-4.38-4.12,29.07,29.07,0,0,1-4,4.12l1,0h6.41Z"/><path class="d" d="M927.63,109.7l-2.69.07-.15-.16v-2.49L925,107l1.91,0V98.69l-1.65,0-.14-.17V96.19l.19-.13,1.6,0V93.58l.17-.19h2.6l.19.17v2.58h2.73V93.58l.14-.19h2.72l.19.17v2.55l1.44,0,.16.17v2.34l-.16.17-1.44,0v8.36l1.39,0,.17.17v2.44l-.17.16-2.65-.07h-.14A14.06,14.06,0,0,1,936.3,112l0,.21-2.3,1.7-.21-.05a16.27,16.27,0,0,0-2.15-2.79l0-.24,1.84-1.15h-4.73l2.31,1.08.07.24a21.94,21.94,0,0,1-3.53,4.3.57.57,0,0,1-.34.16.67.67,0,0,1-.33-.14l-2.27-1.63a16.07,16.07,0,0,0,3.49-4Zm2.22-9.81h2.73V98.67h-2.73Zm0,3.56h2.73v-1.27h-2.73Zm0,3.63h2.73v-1.34h-2.73Zm11,.47c-.27,3.51-1,5.9-2.72,8-.13.15-.22.22-.34.22s-.19-.07-.33-.17l-2.25-1.69c2.27-2.46,2.63-4.52,2.63-10V97.26L937.74,94l.16-.17,2.75.08h3.15l2.75-.08.17.17-.08,3.25v8.19l.12,6.83c0,2.65-1.24,3.23-3.87,3.23-.47,0-.52-.05-.62-.29l-1.24-3a14.84,14.84,0,0,0,1.89-.07c.45-.07.5-.09.5-.64v-4Zm2.6-2.7V102h-2.48v2l0,.93Zm0-8.21h-2.48v2.63h2.48Z"/><path class="d" d="M956.56,93.65l2.53-.07.17.17-.07,2.72v3.61l.07,2.63-.19.21-2.54-.07H953v12.87h-3.17l.12-8.12V96.93l-.08-3.18.15-.17,2.55.07Zm-.41,2.49H953v1h3.2Zm-3.2,4.23h3.2V99.31H953Zm5,12.89v1.36h-3.13l.12-3.56v-4.89l-.07-2.18.17-.16,2.72.07h4.61l2.6-.07.17.16-.08,2.18v4.66l.12,3.55H962v-1.12Zm4-7h-4v1.17h4Zm0,3.39h-4v1.2h4Zm1.56-6.78-2.54.07-.19-.21.08-2.63V96.47l-.08-2.72.17-.17,2.53.07h4.37l2.56-.07.14.17-.07,3.18v9l.12,6.83c0,2.13-1.34,2.77-3.73,2.77-.47,0-.57-.12-.66-.35l-1-2.8a16.75,16.75,0,0,0,1.77-.09c.28,0,.33-.15.33-.72v-8.74Zm3.77-6.71H964v1h3.34ZM964,100.37h3.34V99.31H964Z"/><path class="d" d="M977,106.24l.17,9.36h-3.44l.16-9.36V97.38l-.07-3.58.17-.17,3.08.07h2.34l1.46-.07L982,94.85c.12.12.17.36.1.76a47.49,47.49,0,0,1-1.68,6,9.16,9.16,0,0,1,1.82,5.52c0,2.56-1.53,3.94-3.66,3.94-.35,0-.45-.07-.57-.36l-.86-2.7c1.63,0,2-.23,2-1.5,0-.93-.21-2.2-1.62-4.49a.6.6,0,0,1-.08-.29,1.37,1.37,0,0,1,0-.28,40.31,40.31,0,0,0,1.17-4.83H977Zm12.3,6.57c0,.43-.1.57-.5.71a67.91,67.91,0,0,1-7.76,2.13l-.22-.12-1-2.75.12-.21c.91-.14,1.8-.29,2.68-.45V97.33l-.07-3.08.16-.14,3.11.07h5l3.05-.07.19.19L994,97.21v4.18l.07,3.42-.21.16-2.8-.07h-.83a15.32,15.32,0,0,0,.86,2.58,20.78,20.78,0,0,0,2.1-2.24h.24l2.17,2,0,.24a26.87,26.87,0,0,1-3.13,2.37,12.61,12.61,0,0,0,3.56,2.93l-2.08,2.3c-.19.21-.31.31-.43.31a.76.76,0,0,1-.43-.22,13.48,13.48,0,0,1-3.77-4.34Zm1.5-16h-5v1.46h5Zm-5,5.54h5v-1.55h-5Zm3.11,7.79a22.64,22.64,0,0,1-1.75-5.19h-1.36v6.55a33.21,33.21,0,0,0,3.32-.93Z"/><path class="d" d="M1006.53,102.63h-1.72l-3.13.07-.17-.11v-2.7l.15-.17,3.15.07h6.42l3.09-.07.19.14v2.7l-.12.14-3.16-.07H1010v2.61h2.48l3.08-.07.19.14v2.79l-.12.15-3.15-.08H1010v3.59c.69,0,1.48,0,2.34,0,1.77,0,3.94,0,7-.28l-1.34,3.2c-.09.21-.17.21-.43.24-2,.09-4.2.09-6.07.07a23.78,23.78,0,0,1-4.65-.55,8.68,8.68,0,0,1-4.21-2.34,11.48,11.48,0,0,1-2.72,3.25.62.62,0,0,1-.4.19.59.59,0,0,1-.41-.17l-2.34-1.84c3.15-2.43,4.39-5.3,4.61-9.17l.21-.14,3,.55.2.19a18.55,18.55,0,0,1-.89,4.37,7,7,0,0,0,2.75,1.81Zm-.36-9.6.17-.16h3.2l.17.16v2.39h5.3l3.32-.07.19.17-.07,1.81V98l.12,3.35h-3.47V98.29h-14.16v3.08h-3.46l.12-3.11v-.71l-.07-2,.21-.17,3.89.07h4.54Z"/><path class="d" d="M1028.45,111.78a2.3,2.3,0,0,1-4.6,0,2.3,2.3,0,1,1,4.6,0m-.42-4.25h-3.76V94.75H1028Z"/><path class="d" d="M1038,111.78a2.31,2.31,0,0,1-4.61,0,2.31,2.31,0,1,1,4.61,0m-.43-4.25h-3.75V94.75h3.75Z"/><path class="d" d="M1052.3,98.36v-5.3l.14-.19h2.79l.14.16v5.31l1.94,0,.12.12v2.24l2.94.07h1.76v-2H1061l-2.89.07-.16-.12V96.14l.14-.17L1061,96h1.17v-3l.17-.19h3l.17.16v3h1.41l2.84-.07.19.14v2.56l-.12.14-2.91-.07h-1.41v2h2.43l2.92-.07.14.12v2.6l-.17.17-2.89-.07h-7.54l-3.13.07-.17-.14v-2l-1.7,0v3.44l2.08-.67,0,1.53,3.13.08h4.92v-1.41l.19-.24h2.75l.21.21v1.41l1.72,0,.14.12v2.61l-.16.16-1.7,0v1.29l.1,3c0,2.15-1,2.94-4.28,2.94-.48,0-.53,0-.62-.28l-1.15-2.89c1.13,0,1.75,0,2.15-.1s.65-.17.65-.74v-3.25h-4.92l-3.13.07-.17-.14V107a.32.32,0,0,1-.16.09c-.48.2-1.08.41-1.73.65l.12,8h-3.31l.09-6.93c-1,.34-2,.65-3,1l-.22,0-1.24-2.84.15-.24c1.67-.38,3-.69,4.3-1v-4.32h-.84c-.19,1.12-.38,2.17-.57,3.06-.05.19-.15.28-.31.28a.69.69,0,0,1-.39-.12L1048,103.4a49.64,49.64,0,0,0,1-8.27l.17,0,2.62.62.07.26c-.07.81-.16,1.62-.23,2.39Zm8.4,10.34h.24a13.51,13.51,0,0,1,2.51,2.65l0,.22-2.46,1.79-.21,0a19.29,19.29,0,0,0-2.34-2.82l0-.21Z"/><path class="d" d="M1080.27,94l3.31-.07.17.17-.07,2.77v2.1l.07,3.25-.17.17-3.31-.07h-1.17c0,.54,0,1.09,0,1.64h1.86l3.08-.07.17.17a67.83,67.83,0,0,1-.38,7.21c-.36,2.84-1.06,4.16-4.83,4.16a.64.64,0,0,1-.69-.46l-1.24-2.84a15.39,15.39,0,0,1-2.49,2.94.61.61,0,0,1-.33.21c-.1,0-.17-.07-.29-.19l-2.08-2.27c2.94-2.38,4-4.75,4-10.48l-2.6,0-.17-.17.07-3.25v-2.1l-.07-2.77.17-.17,3.32.07Zm.11,2.75h-4.08v2.82h4.08Zm-1.55,10.08A12.72,12.72,0,0,1,1077,112c1.08.07,1.48.07,1.79.07,1.24,0,1.44-.38,1.65-2a29,29,0,0,0,.24-3.32Zm10-10.75v6.83l.12,6.69h-3.53l.12-6.69V96l.17-.16h3Zm5.07,15.79c0,2.82-.67,3.6-4.56,3.6-.48,0-.51,0-.62-.28l-1.53-3.08c1.12,0,2.17,0,2.58-.1s.64-.19.64-.76V93.68l.17-.17h3.06l.16.17v12.94Z"/><path class="d" d="M1099.11,102.75l-2.65.07-.17-.14v-2.6l.15-.15,2.67.08h1V93l.12-.14H1103l.15.14v7h1l2.27-.08.12.12v2.65l-.12.12-2.27-.07h-1v2l1-.72h.24a16.89,16.89,0,0,1,2.51,2.7l0,.24-2,1.6-.24,0a18.53,18.53,0,0,0-1.5-2.15v1.14l.16,8.2h-3.37l.24-8.82a22.79,22.79,0,0,1-2.27,4.56.39.39,0,0,1-.31.22c-.12,0-.23-.1-.33-.26l-1.51-2.32a29.44,29.44,0,0,0,3.61-6.38Zm-.79-8,.24.07a19.83,19.83,0,0,1,1.29,3.61l-.14.21-2,.84-.16-.14a30.81,30.81,0,0,0-1.22-3.63l.09-.24Zm8.41.64.1.29a23.21,23.21,0,0,1-1.27,3.39c-.07.17-.14.24-.24.24a.56.56,0,0,1-.26-.07l-1.82-.69a27.32,27.32,0,0,0,1.08-3.94l.26-.07Zm6.57-2.34.17-.16h3l.17.16v12l1.6-.45.24,0,.5,2.85-.14.19-2.18.52.1,7.53h-3.63l.1-6.64-2.85.71-3.15.84-.21-.07-.58-2.92.15-.19,3.24-.67,3.42-.83Zm-2.46,11.59-.24.07a16.66,16.66,0,0,0-3.46-2.22l0-.24,1.65-2.08.24-.07a19.3,19.3,0,0,1,3.44,1.91l0,.24Zm.4-5.35-.23,0a13.14,13.14,0,0,0-3.3-2.58v-.24l1.86-1.86.24,0a13.83,13.83,0,0,1,3.32,2.27v.23Z"/><path class="d" d="M1132.84,104.81h3.82l3.39-.07.14.12v2.67l-.14.12-3.39-.07h-3.82V112h2.84l-1.74-.72a23.29,23.29,0,0,0,1.67-3.44l.21-.12,3,1.08.07.26a23.8,23.8,0,0,1-1.94,2.94h1.84l3.15-.07.15.12v2.69l-.15.12-3.15-.07h-15l-3.13.07-.17-.14V112l.15-.14,3.15.07h1.53a17.54,17.54,0,0,0-1.39-3l.07-.22,2.51-.93.27.1a17.14,17.14,0,0,1,1.6,2.89l-.08.23-2.22.89h3.35v-4.37h-3.66l-3.36.07-.17-.14v-2.63l.14-.14,3.39.07h3.66v-1.67h-.77l-2.65.07-.17-.15V102c-1,.69-2,1.36-3.17,2a1.16,1.16,0,0,1-.46.14.57.57,0,0,1-.4-.21l-2.15-2.15c4.49-2.18,7.69-4.85,10-8.86l.26-.08,3.4.91.07.24c-.12.19-.24.38-.38.57a24.08,24.08,0,0,0,10,6.38L1141,103.3c-.27.31-.48.46-.69.46a1,1,0,0,1-.39-.12c-1.09-.6-2.17-1.22-3.25-1.89v1.34l-.14.12-2.67-.07h-1Zm1.81-4.45a23.72,23.72,0,0,1-3.51-3.29,22.76,22.76,0,0,1-3.22,3.29l.76,0h5.14Z"/><path class="d" d="M267.43,346.65a3,3,0,0,1,0,6,3,3,0,0,1-3.23-3.36,8.25,8.25,0,0,1,1.34-3.95l2-3.79h2.58Zm7.35,0a3,3,0,0,1,0,6,3,3,0,0,1-3.24-3.36,8.35,8.35,0,0,1,1.34-3.95l2-3.79h2.58Z"/><path class="d" d="M296.69,354.58v11.33c0,1,.09,1.08,3.62,1.08,4.41,0,5.22-.13,5.75-.59s.78-1.24.91-3.52l3.85,1.53c.36.13.4.26.36.65-.16,2.32-.55,3.89-1.63,4.77-1.31,1.08-2.48,1.27-9.53,1.27-6.86,0-7.81-1-7.81-3.62l.07-6.07v-5.16l-2.26.88-.29-.16-1.11-3.2h-1.05v7.7c1.15-.36,2.29-.72,3.43-1.11v3.3a.88.88,0,0,1-.65,1c-2.15.88-6.2,2.19-9.27,3.07l-.3-.16-1.24-3.82.17-.3c1.2-.26,2.41-.52,3.59-.81v-8.92l-3,.1-.23-.2V350l.2-.19,3.07.09V342l.23-.26h3.82l.22.23v7.9l3-.06.2.16v2.38l1.47-.42V344l.23-.26h3.91l.27.3v6.36l2-.71V341l.23-.23h3.75l.26.26v7.12l3.2-1.17,3.14-1.21.36.26c0,5,0,7.77-.17,10.68-.29,4.31-1.6,5.32-4.7,5.32-.52,0-.68,0-.88-.59l-.91-2.38.06,6.17h-4.44l.1-8.46v-3Zm6.23,3.59a5.6,5.6,0,0,0,1.31-.13c.59-.1.85-.39,1-1.6.1-.94.16-3.16.16-5.12l-2.45.91Z"/><path class="d" d="M333.94,365.26c0,1.17,0,1.21,1.8,1.21,3,0,3.2-.3,3.23-5.06l4.15,1.43c.32.1.32.23.32.56,0,3.43-.55,5.26-1.5,6.07-1.11,1-2.35,1.37-6,1.37-6.23,0-7-.65-7-4.67l.1-8.72V355h-3l0,1.79a17.67,17.67,0,0,1-1.79,8,13.7,13.7,0,0,1-7.25,6.6,2.49,2.49,0,0,1-.42.13.45.45,0,0,1-.33-.17l-3.53-3.72a10.25,10.25,0,0,0,7.28-5.88,14,14,0,0,0,1.11-5.32l0-1.4H319l-5.42.1-.23-.23V351l.23-.23,5.42.1h18.19l5.39-.1.23.23v3.92l-.23.23-5.39-.1h-3.2Zm-17-18.65-.23-.23v-3.91l.23-.23,5.42.1h11.3l5.39-.1.22.23v3.91l-.22.23-5.39-.09h-11.3Z"/><path class="d" d="M359.63,366.3c7-1.17,10.19-4.54,10.19-8.45,0-5-2.74-8.1-6.07-8.79-.65,6.17-2.78,11.92-5,15.22-1.76,2.58-3.59,3.53-6.14,3.53-2,0-3.36-.95-4.6-2.91a10.34,10.34,0,0,1-1.6-5.91c0-7.9,5.91-14.3,14.89-14.3s13.68,6,13.68,13.22c0,5.94-4.18,10.45-11.1,12.08a1.05,1.05,0,0,1-1.05-.32ZM350.88,359a4.79,4.79,0,0,0,.56,2.48c.36.65.82,1.08,1.34,1.08.75,0,1.7-.75,2.58-2.52a32.5,32.5,0,0,0,3.23-11.1c-4.77.82-7.71,5-7.71,10.06"/><path class="d" d="M387.65,347.1l.19.2v2.55h.53l3-.1.23.23,0,1.21a32,32,0,0,0,4.11-10.52l.33-.16,4.05,1.14.06.33c-.42,1.53-.91,3.07-1.47,4.57h6.21l2.09-.16,1.5,1.3a.7.7,0,0,1,.36.62,1.77,1.77,0,0,1-.1.49A54,54,0,0,1,406,356c-.17.33-.36.49-.59.49a1.38,1.38,0,0,1-.49-.13l-3.4-1.4a21.29,21.29,0,0,0,2.06-4.54H397a28.27,28.27,0,0,1-2.42,4,.79.79,0,0,1-.59.33,1.48,1.48,0,0,1-.45-.13l-2-1.18v4.84l.1,3.85-.23.23-3-.1h-4.25v3.92c1-.16,1.93-.36,2.91-.59-.26-.49-.53-1-.85-1.53l.16-.3,2.94-1.24.36.16A35.69,35.69,0,0,1,392,367c2.45-2,3.59-4.21,4.21-7.58a43.2,43.2,0,0,0,.36-7.57l.23-.26h4.08l.26.23c0,1.43,0,2.74-.09,4,1.33,5.62,3.91,8.65,8.13,11.62l-2.84,3.47c-.23.26-.43.39-.59.39a.72.72,0,0,1-.49-.26,19.81,19.81,0,0,1-5.62-8.33c-1,3.72-2.84,6.14-6.59,8.85a.71.71,0,0,1-.4.16.5.5,0,0,1-.36-.19L390.81,370l-1.37.76-.29-.14c-.23-.68-.43-1.33-.65-1.92-2.88.88-5.78,1.7-9.34,2.51l-.3-.1-1.2-3.75.22-.29,2.19-.3V354.65l-.06-3.3-.76.55a.49.49,0,0,1-.32.13c-.13,0-.23-.09-.3-.26L377.39,348a21,21,0,0,0,6.47-7.38l.33-.13,3.65,1,.17.29c-.1.23-.23.43-.33.62a35.65,35.65,0,0,1,5.39,3.92l0,.33-2.58,2.77-.33-.06a21.89,21.89,0,0,0-4.47-3.86c-.39.56-.82,1.08-1.24,1.6Zm-3.59.49a26.62,26.62,0,0,1-2.19,2.19l2.19.07Zm.06,6.89h3.33V353h-3.33Zm3.33,2.81h-3.33V359h3.33Z"/><path class="d" d="M435.74,353.73v4.18l.07,2.84a1.59,1.59,0,0,0,.26-.26h.29l3.07,2.68,0,.33a38,38,0,0,1-5.16,3.13,29.56,29.56,0,0,0,7.58,1.5l-2.49,3.72c-.16.23-.52.2-.75.17a23.9,23.9,0,0,1-8.81-3.33,16.64,16.64,0,0,1-3-2.55l-.27,2.68a.58.58,0,0,1-.55.62c-3.89.78-8.65,1.63-13.75,2.38l-.29-.1-1.41-3.78.23-.3c1.77-.16,3.43-.32,5-.52l0-13.36-.06-2.05-1.77.78a1.66,1.66,0,0,1-.52.16.44.44,0,0,1-.36-.22L410.17,349a32.2,32.2,0,0,0,14.24-8.49l.36-.09,4.18,1,.1.33a4.48,4.48,0,0,1-.36.42,34.75,34.75,0,0,0,13.19,6l-2.32,3.95c-.16.26-.23.39-.39.39a1.09,1.09,0,0,1-.36-.09c-1-.36-2-.79-3-1.24Zm-11.95-6.3.23-.26h4l.23.23v2.54h2.61l2.39,0a45.24,45.24,0,0,1-7.28-4.86,37,37,0,0,1-6.76,4.86l1.4,0h3.2Zm-3.49,7.12h10.94V353H420.3Zm0,4.57h10.94v-1.7H420.3Zm0,3.07v4.34q3-.43,6-1a19,19,0,0,1-2.22-3.36Zm8.19,0a16.6,16.6,0,0,0,2.32,2.42,24.46,24.46,0,0,0,3.37-2.36l-3.34-.06Z"/><path class="d" d="M457.09,340.8l.23-.23h4.38l.23.23v3.33H468l5.42-.1.23.23v3.66l-.23.23-5.42-.1h-18v7.05c0,7.51-1.2,12.35-3.72,16.14-.13.19-.23.26-.36.26a.57.57,0,0,1-.39-.2l-3-2.84c2.06-3.76,2.91-7.09,2.91-13.29v-5.58l-.1-5.33.23-.23,5.42.1h6.07ZM455.92,370v1.76h-4.7l.16-6v-2.94l-.1-3.72.23-.23,4.7.1H458V349l.16-.2h4.34l.2.2v2.84h5.81l4-.1.2.16v3.72l-.23.23-3.95-.1h-5.81V359h3.52l4.67-.1.23.23-.1,3.72v2.45l.17,6.17h-4.83V370Zm10.42-7.29H455.92v3.47h10.42Z"/><path class="d" d="M497.11,366.61c-2.48.19-5.11.3-8.51.3-6.49,0-9.59-2-9.59-6.21,0-2.46,2-4.81,4.89-6.84a72.87,72.87,0,0,1-3.95-6.43l.06-.27,3.27-1.7.27.08a72.33,72.33,0,0,0,3.83,6.29,78.61,78.61,0,0,1,7.92-3.4l.27.11,1.6,3.54-.11.21c-2.35.79-4.76,1.7-6.33,2.38A1.76,1.76,0,0,0,490,356a2,2,0,0,1-1.94,1.76,2.79,2.79,0,0,1-1.87-.73c-2.1,1.21-3.05,2.35-3.05,3.62,0,1.81,2.3,2.22,5.49,2.22a77.29,77.29,0,0,0,8.32-.55l.22.17.1,3.86Z"/><path class="d" d="M527,348.54c.23.26.36.39.36.59a1.2,1.2,0,0,1-.16.55,51.43,51.43,0,0,1-5.16,8.88c1,.89,2.09,1.83,3.1,2.88v.36L522,365.32l-.29,0c-1-1.05-1.9-2-2.88-2.94a40.3,40.3,0,0,1-11,7.8,1.35,1.35,0,0,1-.62.23,1.29,1.29,0,0,1-.75-.33l-3.82-2.61a39.18,39.18,0,0,0,12.57-8.23,42.4,42.4,0,0,0-3.66-2.51v-.33l2.78-3,.36,0c1.21.72,2.38,1.44,3.49,2.19a27.48,27.48,0,0,0,2.91-5.13l-6.34,0a48.94,48.94,0,0,1-6.66,7.54c-.62.46-.78.42-1.37,0l-3.56-2.28a35.49,35.49,0,0,0,10.58-13.39l.33-.1,4.44,1.6.06.36c-.36.72-.75,1.4-1.14,2.09l4.47-.07,2.68-.19Z"/><path class="d" d="M544.2,350.83a38.72,38.72,0,0,1-6.5,6.76c-.35.26-.55.39-.78.39a1.19,1.19,0,0,1-.52-.2l-3.89-2.35a33,33,0,0,0,10.81-13.16l.3-.1,4.66,1.73.07.33c-.42.82-.85,1.57-1.34,2.35l4.18-.06,2.48-.2,2.84,2.65c.3.26.46.45.46.68a1.58,1.58,0,0,1-.2.65c-4.11,8.85-9.4,14.89-18.67,19.14a3,3,0,0,1-.85.26.82.82,0,0,1-.56-.26l-4.05-3.14a29.46,29.46,0,0,0,17.8-15.51Z"/><path class="d" d="M561.41,356.05l1.76-4.05.3-.13a26,26,0,0,0,6.69,2.19l.16.26L569,358.66l-.29.17a22.18,22.18,0,0,1-7.18-2.49Zm26.68-2.19a2.16,2.16,0,0,1,.09.52,1,1,0,0,1-.35.69c-4.94,5.68-13.23,10.81-21.49,13.88l-.36-.07-2.78-4.4.1-.36a49.91,49.91,0,0,0,23.32-15.48Zm-23.32-5.81,2.65-3.53.39-.06a30,30,0,0,1,6.24,3.49l.06.36L571.4,352l-.36.07a27.4,27.4,0,0,0-6.2-3.72Z"/><polygon class="d" points="614.3 359.02 599.71 359.02 594.84 359.12 594.61 358.86 594.61 354.19 594.91 353.99 599.58 354.09 614.14 354.09 619.17 353.99 619.43 354.22 619.43 358.86 619.2 359.12 614.3 359.02"/><path class="d" d="M641.89,356h3.3l5.42-.1.23.23v3l-.23.23-5.42-.1h-3.3v1.31h7.19l5.42-.1.22.23v3.13l-.22.23-5.42-.1h-4.87a46.36,46.36,0,0,0,11.46,3.56l-2.48,3.5a.4.4,0,0,1-.39.22,1.25,1.25,0,0,1-.43-.06,34.33,34.33,0,0,1-10.54-4.67l.22,5.35h-4.86l.23-5.15a42.73,42.73,0,0,1-10.32,4.83,1.76,1.76,0,0,1-.43.1c-.26,0-.35-.13-.49-.3l-2.48-3.2A47.34,47.34,0,0,0,635,364h-4.7l-5.26.1-.23-.23v-3.13l.23-.23,5.26.1h7.08v-1.31h-3.07l-5.42.1-.23-.23v-3l.23-.23,5.42.1h3.07v-1.27h-4.93l-5.42.1-.23-.23v-3.14l.23-.22,5.42.09h.79c-.17-.75-.4-1.47-.62-2.18h-2.52l-5.26.09-.22-.23v-3.2l.22-.22,4.08.06a20.69,20.69,0,0,0-1.24-2.64l.17-.26,3.43-1.15.26.1a34.41,34.41,0,0,1,1.92,4h1.05v-4.76l.23-.26h3.82l.26.22v4.8h1.6v-4.76l.23-.26h4l.26.22v4.8h1a21.58,21.58,0,0,0,1.63-4.11l.33-.13,4,1.31.09.32c-.36.72-.88,1.67-1.43,2.58l4-.06.22.22V349l-.22.23-5.26-.09h-1.9c-.22.75-.55,1.46-.84,2.18H647l5.42-.09.23.22v3.14l-.23.23-5.42-.1h-5.13ZM637,349.1c.29.71.52,1.43.75,2.18H642c.19-.72.36-1.43.52-2.18Z"/><path class="d" d="M684.24,351.22l.1,4.18-.26.23-4.84-.1a22,22,0,0,0,9.08,4.44l-2.38,4a.45.45,0,0,1-.36.19,1.2,1.2,0,0,1-.46-.1,29,29,0,0,1-6-3.23V365l.17,6.82h-4.9l.16-6.82v-5.72l.23-.23h2.12a22.58,22.58,0,0,1-3.07-3.49h-2.71a22.8,22.8,0,0,1-2.67,3.46h1.47l.23.23v2.87c0,3-1.15,7.87-7.74,9.77a1.55,1.55,0,0,1-.33.06.55.55,0,0,1-.49-.23l-2.87-3.13c5.42-1.37,6.79-3.73,6.89-7.06a24.61,24.61,0,0,1-5.59,3,2,2,0,0,1-.42.13c-.13,0-.26-.1-.43-.3l-2.81-3.16c4.35-1.34,7.29-2.91,9.51-5.62h-.17l-5,.1-.23-.23.1-4.18v-5.68l-.1-3.56.23-.2,5,.1h13.39l5-.1.26.26-.1,3.5ZM665,346.94h5v-1.63h-5Zm0,5.16h5v-1.83h-5Zm9.53-5.16h5.06v-1.63h-5.06Zm0,5.16h5.06v-1.83h-5.06Z"/><path class="d" d="M690.25,358.28a31,31,0,0,0,6.43-6.59c-1.24.1-2.53.13-3.75.13l-.15-.16-.1-3.18.18-.15c1.94,0,3.85-.06,5.76-.19a26.79,26.79,0,0,0,1.22-3.46l.2-.13,3.54.52.16.18c-.31.9-.62,1.68-.91,2.43,1.3-.21,2.59-.44,3.88-.75l.23.13.26,3.05-.15.23c-1.89.39-4,.73-6.16,1-.41.62-1,1.43-1.49,2.05a7.31,7.31,0,0,1,2.43-.34,3.17,3.17,0,0,1,3.15,2.48q2.44-.93,5.48-1.94l.26.11,1.6,3.18-.13.23c-2.61.67-4.83,1.34-6.75,2,.06,1,.08,2.27.11,3.52l-.18.15-3.42.13-.2-.15v-2.12c-1.58.74-2.46,1.47-2.46,2.35s1,1.11,3.34,1.14a46.56,46.56,0,0,0,6.74-.55l.26.16.23,3.43-.15.21c-2.46.21-4.63.34-7.65.34-5.22,0-6.59-2.2-6.59-4.42,0-2.48,2.09-4.22,4.49-5.59.47-.25,1-.51,1.56-.77a1.14,1.14,0,0,0-1.3-1,5,5,0,0,0-2.94.9,37.69,37.69,0,0,0-4.5,4.19l-.26,0-2.27-2.53Z"/><path class="d" d="M729.25,340.77l.23-.23h4.38l.23.23v3.43h6.13l5.42-.1.23.23V348l-.23.22-5.42-.09H722v7c0,7.19-.89,12.09-3.4,16.14-.13.19-.23.26-.36.26a.57.57,0,0,1-.39-.2l-3-2.84c2-3.76,2.58-7.28,2.58-13.29v-5.52l-.1-5.32.23-.23,5.42.1h6.27Zm-1.73,16.69.2.26a30.81,30.81,0,0,1-2,9.4l-.3.16-3.88-1.3-.13-.33a28.67,28.67,0,0,0,2.09-8.88l.26-.2Zm5.65,8.58c0,.92.16,1,1.5,1s1.64,0,2.16-.49.59-1,.72-3.4l3.85,1.47c.36.13.39.26.36.65-.1,2.26-.42,3.89-1.5,4.74s-2.09,1.14-6,1.14c-5,0-5.78-.62-5.78-3.49l.09-4.25v-8.59l.23-.26h4.15l.26.3Zm-.85-17.63.33-.1a25.53,25.53,0,0,1,5.65,3.59v.33l-2.71,3.07h-.33a25.54,25.54,0,0,0-5.42-4V351Zm9.67,6.86.32.1a33.44,33.44,0,0,1,4.28,7.41l-.13.32L742.64,365l-.26-.1a33.77,33.77,0,0,0-4-7.74l.13-.3Z"/><path class="d" d="M755.8,367.68c-.17,3.29-1.7,4.17-5.46,4.17-.39,0-.49-.06-.62-.39l-1.63-4.08a18.31,18.31,0,0,0,2.42-.13c.68-.06.88-.26.88-1v-5.62c-.66.2-1.34.36-2.09.55L749,361l-1.3-3.82.16-.29c1.31-.26,2.45-.49,3.53-.75v-5.33l-3,.1-.23-.19v-3.56l.2-.2,3.07.1V340.8l.26-.26h3.69l.29.23V347l2.45-.07.2.16v3.63l-.2.16-2.45-.06V355c.72-.23,1.47-.46,2.22-.72v3.3a.88.88,0,0,1-.68,1l-1.54.59v.62l.13,6a23.12,23.12,0,0,0,5.69-6.24c.22-.39.42-.78.62-1.17l-3.3.06-.23-.19V355.1l.19-.19,4.31.1h.27a9.46,9.46,0,0,0,.29-1.34h-.26l-4.12.09-.22-.19V350.5l.19-.2,1.86,0a13.94,13.94,0,0,0-1.37-3l.1-.26,3.23-1,.3.06a14.53,14.53,0,0,1,1.76,3.07l-.1.29-2.55.92.92,0h10.19l-2.61-1a19.82,19.82,0,0,0,1.53-4.31l.26-.16,3.95,1.3.1.3a29,29,0,0,1-2.09,3.85l2.91-.07.19.17v3.13l-.19.16-4.15-.09h-5.49c-.1.45-.23.88-.32,1.34h6.69l4.15-.1.19.16v3.2l-.19.16-4.15-.09h-7.8c-.17.36-.33.75-.49,1.11h6.14l2.22-.17,1.66,1.51a.71.71,0,0,1,.33.55,1.25,1.25,0,0,1-.23.62,17.45,17.45,0,0,1-3.72,4.51,35.62,35.62,0,0,0,6.92,1.63l-2,3.3a.49.49,0,0,1-.49.32,3.42,3.42,0,0,1-.46-.06,28.92,28.92,0,0,1-7.51-2.74,32.93,32.93,0,0,1-7.44,2.84,2.64,2.64,0,0,1-.59.09c-.26,0-.39-.09-.62-.39l-2.09-2.58-.13.1a1.12,1.12,0,0,1-.52.26.67.67,0,0,1-.46-.26ZM775.52,341a33,33,0,0,1,2.55,2.81l-.07.29A153.24,153.24,0,0,1,760,346a.61.61,0,0,1-.62-.36l-1.57-2.94c6-.23,13.26-.82,17.37-1.8Zm-10.06,25.5a17.77,17.77,0,0,1-2.28-2.55,23.18,23.18,0,0,1-4.61,4.67,33.52,33.52,0,0,0,6.89-2.12m1.34-16.26-.29-.13a14.48,14.48,0,0,0-1.18-3.53l.13-.23,3.17-.88.29.1a11.29,11.29,0,0,1,1.47,3.33l-.13.29Zm-.2,12.21a13.34,13.34,0,0,0,2.23,2,11.86,11.86,0,0,0,2.09-2Z"/><path class="d" d="M787.37,342.66l4.6,0,.26.22c-.16,4.05-.32,6.83-.49,10.19-.13,2.84-.32,6.5-.32,9.05,0,2.35,1.11,3.39,3.07,3.39,3.75,0,8-2.94,10.77-8l2.84,3.79a.76.76,0,0,1,.1,1.05c-3.23,5.12-8.36,8.13-13.35,8.13s-8.3-2.32-8.3-7.84c0-4.54.23-7.58.33-10.55.1-2.54.26-5.42.26-9.24Z"/><path class="d" d="M838.63,352.1a38.21,38.21,0,0,1-8.07,1.44c.1,2.22.23,4.24.43,6.23a42.07,42.07,0,0,1,10.09,5.69l0,.35-2.94,3.73-.36,0a28,28,0,0,0-6.76-4.87c-.39,3-2.74,5.49-7.57,5.49-4.51,0-7.68-1.8-7.68-5.81,0-3.4,3.6-5.59,8-5.59a18.3,18.3,0,0,1,2.22.1c-.39-4.93-.65-9.37-.72-16l.26-.23h4.54l.26.23c0,2.16,0,4.15,0,6a33.37,33.37,0,0,0,7.16-1.44l.32.17.88,4.14Zm-15.48,10.78c-1.73,0-2.77.65-2.77,1.46,0,1.08,1.07,1.54,2.84,1.54a2.37,2.37,0,0,0,2.67-2.61,7.73,7.73,0,0,0-2.74-.39"/><path class="d" d="M853.06,356.41l-1.24-4.28.16-.29c2.25-.52,4.7-1.31,6.73-1.86a18.3,18.3,0,0,1,4.44-.92c4.18,0,6.89,3,6.89,9.18,0,7.87-4.18,11.26-11,13a.52.52,0,0,1-.55-.26l-3.11-3.72c6.54-1.37,9.34-3.92,9.34-8.29,0-3.69-.68-5-2-5a12.47,12.47,0,0,0-3.33.82c-1.74.52-3.83,1.17-5.95,1.76Zm3.1-11.3,1.21-4.08.29-.1a46,46,0,0,0,9.8,1.57l.19.23-.75,4.47-.26.16a69.73,69.73,0,0,1-10.35-2Z"/><path class="d" d="M886.75,366.43a3.15,3.15,0,0,1-6.3,0,3.15,3.15,0,1,1,6.3,0m-.58-5.81H881V343.15h5.13Z"/><path class="d" d="M900.3,347.5a3,3,0,0,1,0-6,3,3,0,0,1,3.23,3.36,8.34,8.34,0,0,1-1.33,3.95l-2,3.79h-2.58Zm7.35,0a3,3,0,0,1,0-6,3,3,0,0,1,3.23,3.36,8.35,8.35,0,0,1-1.34,3.95l-2,3.79H905Z"/></g></svg>
